<?xml version="1.0" encoding="utf-8"?>
<svg xmlns="http://www.w3.org/2000/svg" xmlns:xlink="http://www.w3.org/1999/xlink" width="600" height="400" viewBox="0 0 2400 1600">
<defs>
  <clipPath id="clip490">
    <rect x="0" y="0" width="2400" height="1600"/>
  </clipPath>
</defs>
<path clip-path="url(#clip490)" d="
M0 1600 L2400 1600 L2400 0 L0 0  Z
  " fill="#ffffff" fill-rule="evenodd" fill-opacity="1"/>
<defs>
  <clipPath id="clip491">
    <rect x="480" y="0" width="1681" height="1600"/>
  </clipPath>
</defs>
<path clip-path="url(#clip490)" d="
M156.598 1486.45 L2352.76 1486.45 L2352.76 47.2441 L156.598 47.2441  Z
  " fill="#ffffff" fill-rule="evenodd" fill-opacity="1"/>
<defs>
  <clipPath id="clip492">
    <rect x="156" y="47" width="2197" height="1440"/>
  </clipPath>
</defs>
<polyline clip-path="url(#clip492)" style="stroke:#000000; stroke-linecap:round; stroke-linejoin:round; stroke-width:2; stroke-opacity:0.1; fill:none" points="
  286.027,1486.45 286.027,47.2441 
  "/>
<polyline clip-path="url(#clip492)" style="stroke:#000000; stroke-linecap:round; stroke-linejoin:round; stroke-width:2; stroke-opacity:0.1; fill:none" points="
  676.585,1486.45 676.585,47.2441 
  "/>
<polyline clip-path="url(#clip492)" style="stroke:#000000; stroke-linecap:round; stroke-linejoin:round; stroke-width:2; stroke-opacity:0.1; fill:none" points="
  1067.14,1486.45 1067.14,47.2441 
  "/>
<polyline clip-path="url(#clip492)" style="stroke:#000000; stroke-linecap:round; stroke-linejoin:round; stroke-width:2; stroke-opacity:0.1; fill:none" points="
  1457.7,1486.45 1457.7,47.2441 
  "/>
<polyline clip-path="url(#clip492)" style="stroke:#000000; stroke-linecap:round; stroke-linejoin:round; stroke-width:2; stroke-opacity:0.1; fill:none" points="
  1848.26,1486.45 1848.26,47.2441 
  "/>
<polyline clip-path="url(#clip492)" style="stroke:#000000; stroke-linecap:round; stroke-linejoin:round; stroke-width:2; stroke-opacity:0.1; fill:none" points="
  2238.82,1486.45 2238.82,47.2441 
  "/>
<polyline clip-path="url(#clip490)" style="stroke:#000000; stroke-linecap:round; stroke-linejoin:round; stroke-width:4; stroke-opacity:1; fill:none" points="
  156.598,1486.45 2352.76,1486.45 
  "/>
<polyline clip-path="url(#clip490)" style="stroke:#000000; stroke-linecap:round; stroke-linejoin:round; stroke-width:4; stroke-opacity:1; fill:none" points="
  286.027,1486.45 286.027,1467.55 
  "/>
<polyline clip-path="url(#clip490)" style="stroke:#000000; stroke-linecap:round; stroke-linejoin:round; stroke-width:4; stroke-opacity:1; fill:none" points="
  676.585,1486.45 676.585,1467.55 
  "/>
<polyline clip-path="url(#clip490)" style="stroke:#000000; stroke-linecap:round; stroke-linejoin:round; stroke-width:4; stroke-opacity:1; fill:none" points="
  1067.14,1486.45 1067.14,1467.55 
  "/>
<polyline clip-path="url(#clip490)" style="stroke:#000000; stroke-linecap:round; stroke-linejoin:round; stroke-width:4; stroke-opacity:1; fill:none" points="
  1457.7,1486.45 1457.7,1467.55 
  "/>
<polyline clip-path="url(#clip490)" style="stroke:#000000; stroke-linecap:round; stroke-linejoin:round; stroke-width:4; stroke-opacity:1; fill:none" points="
  1848.26,1486.45 1848.26,1467.55 
  "/>
<polyline clip-path="url(#clip490)" style="stroke:#000000; stroke-linecap:round; stroke-linejoin:round; stroke-width:4; stroke-opacity:1; fill:none" points="
  2238.82,1486.45 2238.82,1467.55 
  "/>
<path clip-path="url(#clip490)" d="M255.969 1532.02 L285.645 1532.02 L285.645 1535.95 L255.969 1535.95 L255.969 1532.02 Z" fill="#000000" fill-rule="evenodd" fill-opacity="1" /><path clip-path="url(#clip490)" d="M299.765 1544.91 L316.084 1544.91 L316.084 1548.85 L294.14 1548.85 L294.14 1544.91 Q296.802 1542.16 301.385 1537.53 Q305.992 1532.88 307.172 1531.53 Q309.418 1529.01 310.297 1527.27 Q311.2 1525.51 311.2 1523.82 Q311.2 1521.07 309.256 1519.33 Q307.334 1517.6 304.233 1517.6 Q302.033 1517.6 299.58 1518.36 Q297.149 1519.13 294.371 1520.68 L294.371 1515.95 Q297.196 1514.82 299.649 1514.24 Q302.103 1513.66 304.14 1513.66 Q309.51 1513.66 312.705 1516.35 Q315.899 1519.03 315.899 1523.52 Q315.899 1525.65 315.089 1527.57 Q314.302 1529.47 312.195 1532.07 Q311.617 1532.74 308.515 1535.95 Q305.413 1539.15 299.765 1544.91 Z" fill="#000000" fill-rule="evenodd" fill-opacity="1" /><path clip-path="url(#clip490)" d="M646.342 1532.02 L676.018 1532.02 L676.018 1535.95 L646.342 1535.95 L646.342 1532.02 Z" fill="#000000" fill-rule="evenodd" fill-opacity="1" /><path clip-path="url(#clip490)" d="M686.92 1544.91 L694.559 1544.91 L694.559 1518.55 L686.249 1520.21 L686.249 1515.95 L694.513 1514.29 L699.189 1514.29 L699.189 1544.91 L706.828 1544.91 L706.828 1548.85 L686.92 1548.85 L686.92 1544.91 Z" fill="#000000" fill-rule="evenodd" fill-opacity="1" /><path clip-path="url(#clip490)" d="M1067.14 1517.37 Q1063.53 1517.37 1061.7 1520.93 Q1059.9 1524.47 1059.9 1531.6 Q1059.9 1538.71 1061.7 1542.27 Q1063.53 1545.82 1067.14 1545.82 Q1070.78 1545.82 1072.58 1542.27 Q1074.41 1538.71 1074.41 1531.6 Q1074.41 1524.47 1072.58 1520.93 Q1070.78 1517.37 1067.14 1517.37 M1067.14 1513.66 Q1072.95 1513.66 1076.01 1518.27 Q1079.09 1522.85 1079.09 1531.6 Q1079.09 1540.33 1076.01 1544.94 Q1072.95 1549.52 1067.14 1549.52 Q1061.33 1549.52 1058.25 1544.94 Q1055.2 1540.33 1055.2 1531.6 Q1055.2 1522.85 1058.25 1518.27 Q1061.33 1513.66 1067.14 1513.66 Z" fill="#000000" fill-rule="evenodd" fill-opacity="1" /><path clip-path="url(#clip490)" d="M1448.08 1544.91 L1455.72 1544.91 L1455.72 1518.55 L1447.41 1520.21 L1447.41 1515.95 L1455.68 1514.29 L1460.35 1514.29 L1460.35 1544.91 L1467.99 1544.91 L1467.99 1548.85 L1448.08 1548.85 L1448.08 1544.91 Z" fill="#000000" fill-rule="evenodd" fill-opacity="1" /><path clip-path="url(#clip490)" d="M1842.91 1544.91 L1859.23 1544.91 L1859.23 1548.85 L1837.29 1548.85 L1837.29 1544.91 Q1839.95 1542.16 1844.53 1537.53 Q1849.14 1532.88 1850.32 1531.53 Q1852.56 1529.01 1853.44 1527.27 Q1854.35 1525.51 1854.35 1523.82 Q1854.35 1521.07 1852.4 1519.33 Q1850.48 1517.6 1847.38 1517.6 Q1845.18 1517.6 1842.73 1518.36 Q1840.3 1519.13 1837.52 1520.68 L1837.52 1515.95 Q1840.34 1514.82 1842.8 1514.24 Q1845.25 1513.66 1847.29 1513.66 Q1852.66 1513.66 1855.85 1516.35 Q1859.05 1519.03 1859.05 1523.52 Q1859.05 1525.65 1858.24 1527.57 Q1857.45 1529.47 1855.34 1532.07 Q1854.76 1532.74 1851.66 1535.95 Q1848.56 1539.15 1842.91 1544.91 Z" fill="#000000" fill-rule="evenodd" fill-opacity="1" /><path clip-path="url(#clip490)" d="M2243.07 1530.21 Q2246.42 1530.93 2248.3 1533.2 Q2250.19 1535.47 2250.19 1538.8 Q2250.19 1543.92 2246.68 1546.72 Q2243.16 1549.52 2236.68 1549.52 Q2234.5 1549.52 2232.19 1549.08 Q2229.89 1548.66 2227.44 1547.81 L2227.44 1543.29 Q2229.38 1544.43 2231.7 1545.01 Q2234.01 1545.58 2236.54 1545.58 Q2240.94 1545.58 2243.23 1543.85 Q2245.54 1542.11 2245.54 1538.8 Q2245.54 1535.75 2243.39 1534.03 Q2241.26 1532.3 2237.44 1532.3 L2233.41 1532.3 L2233.41 1528.45 L2237.63 1528.45 Q2241.07 1528.45 2242.9 1527.09 Q2244.73 1525.7 2244.73 1523.11 Q2244.73 1520.45 2242.83 1519.03 Q2240.96 1517.6 2237.44 1517.6 Q2235.52 1517.6 2233.32 1518.01 Q2231.12 1518.43 2228.48 1519.31 L2228.48 1515.14 Q2231.14 1514.4 2233.46 1514.03 Q2235.8 1513.66 2237.86 1513.66 Q2243.18 1513.66 2246.28 1516.09 Q2249.38 1518.5 2249.38 1522.62 Q2249.38 1525.49 2247.74 1527.48 Q2246.1 1529.45 2243.07 1530.21 Z" fill="#000000" fill-rule="evenodd" fill-opacity="1" /><polyline clip-path="url(#clip492)" style="stroke:#000000; stroke-linecap:round; stroke-linejoin:round; stroke-width:2; stroke-opacity:0.1; fill:none" points="
  156.598,1445.72 2352.76,1445.72 
  "/>
<polyline clip-path="url(#clip492)" style="stroke:#000000; stroke-linecap:round; stroke-linejoin:round; stroke-width:2; stroke-opacity:0.1; fill:none" points="
  156.598,1105.33 2352.76,1105.33 
  "/>
<polyline clip-path="url(#clip492)" style="stroke:#000000; stroke-linecap:round; stroke-linejoin:round; stroke-width:2; stroke-opacity:0.1; fill:none" points="
  156.598,764.949 2352.76,764.949 
  "/>
<polyline clip-path="url(#clip492)" style="stroke:#000000; stroke-linecap:round; stroke-linejoin:round; stroke-width:2; stroke-opacity:0.1; fill:none" points="
  156.598,424.566 2352.76,424.566 
  "/>
<polyline clip-path="url(#clip492)" style="stroke:#000000; stroke-linecap:round; stroke-linejoin:round; stroke-width:2; stroke-opacity:0.1; fill:none" points="
  156.598,84.1825 2352.76,84.1825 
  "/>
<polyline clip-path="url(#clip490)" style="stroke:#000000; stroke-linecap:round; stroke-linejoin:round; stroke-width:4; stroke-opacity:1; fill:none" points="
  156.598,1486.45 156.598,47.2441 
  "/>
<polyline clip-path="url(#clip490)" style="stroke:#000000; stroke-linecap:round; stroke-linejoin:round; stroke-width:4; stroke-opacity:1; fill:none" points="
  156.598,1445.72 175.496,1445.72 
  "/>
<polyline clip-path="url(#clip490)" style="stroke:#000000; stroke-linecap:round; stroke-linejoin:round; stroke-width:4; stroke-opacity:1; fill:none" points="
  156.598,1105.33 175.496,1105.33 
  "/>
<polyline clip-path="url(#clip490)" style="stroke:#000000; stroke-linecap:round; stroke-linejoin:round; stroke-width:4; stroke-opacity:1; fill:none" points="
  156.598,764.949 175.496,764.949 
  "/>
<polyline clip-path="url(#clip490)" style="stroke:#000000; stroke-linecap:round; stroke-linejoin:round; stroke-width:4; stroke-opacity:1; fill:none" points="
  156.598,424.566 175.496,424.566 
  "/>
<polyline clip-path="url(#clip490)" style="stroke:#000000; stroke-linecap:round; stroke-linejoin:round; stroke-width:4; stroke-opacity:1; fill:none" points="
  156.598,84.1825 175.496,84.1825 
  "/>
<path clip-path="url(#clip490)" d="M63.4226 1431.51 Q59.8115 1431.51 57.9828 1435.08 Q56.1773 1438.62 56.1773 1445.75 Q56.1773 1452.86 57.9828 1456.42 Q59.8115 1459.96 63.4226 1459.96 Q67.0569 1459.96 68.8624 1456.42 Q70.6911 1452.86 70.6911 1445.75 Q70.6911 1438.62 68.8624 1435.08 Q67.0569 1431.51 63.4226 1431.51 M63.4226 1427.81 Q69.2328 1427.81 72.2883 1432.42 Q75.367 1437 75.367 1445.75 Q75.367 1454.48 72.2883 1459.08 Q69.2328 1463.67 63.4226 1463.67 Q57.6125 1463.67 54.5338 1459.08 Q51.4782 1454.48 51.4782 1445.75 Q51.4782 1437 54.5338 1432.42 Q57.6125 1427.81 63.4226 1427.81 Z" fill="#000000" fill-rule="evenodd" fill-opacity="1" /><path clip-path="url(#clip490)" d="M83.5845 1457.12 L88.4688 1457.12 L88.4688 1463 L83.5845 1463 L83.5845 1457.12 Z" fill="#000000" fill-rule="evenodd" fill-opacity="1" /><path clip-path="url(#clip490)" d="M108.654 1431.51 Q105.043 1431.51 103.214 1435.08 Q101.409 1438.62 101.409 1445.75 Q101.409 1452.86 103.214 1456.42 Q105.043 1459.96 108.654 1459.96 Q112.288 1459.96 114.094 1456.42 Q115.922 1452.86 115.922 1445.75 Q115.922 1438.62 114.094 1435.08 Q112.288 1431.51 108.654 1431.51 M108.654 1427.81 Q114.464 1427.81 117.52 1432.42 Q120.598 1437 120.598 1445.75 Q120.598 1454.48 117.52 1459.08 Q114.464 1463.67 108.654 1463.67 Q102.844 1463.67 99.765 1459.08 Q96.7095 1454.48 96.7095 1445.75 Q96.7095 1437 99.765 1432.42 Q102.844 1427.81 108.654 1427.81 Z" fill="#000000" fill-rule="evenodd" fill-opacity="1" /><path clip-path="url(#clip490)" d="M65.0198 1091.13 Q61.4087 1091.13 59.58 1094.7 Q57.7745 1098.24 57.7745 1105.37 Q57.7745 1112.47 59.58 1116.04 Q61.4087 1119.58 65.0198 1119.58 Q68.6541 1119.58 70.4596 1116.04 Q72.2883 1112.47 72.2883 1105.37 Q72.2883 1098.24 70.4596 1094.7 Q68.6541 1091.13 65.0198 1091.13 M65.0198 1087.43 Q70.83 1087.43 73.8855 1092.03 Q76.9642 1096.62 76.9642 1105.37 Q76.9642 1114.09 73.8855 1118.7 Q70.83 1123.28 65.0198 1123.28 Q59.2097 1123.28 56.131 1118.7 Q53.0754 1114.09 53.0754 1105.37 Q53.0754 1096.62 56.131 1092.03 Q59.2097 1087.43 65.0198 1087.43 Z" fill="#000000" fill-rule="evenodd" fill-opacity="1" /><path clip-path="url(#clip490)" d="M85.1818 1116.73 L90.066 1116.73 L90.066 1122.61 L85.1818 1122.61 L85.1818 1116.73 Z" fill="#000000" fill-rule="evenodd" fill-opacity="1" /><path clip-path="url(#clip490)" d="M104.279 1118.68 L120.598 1118.68 L120.598 1122.61 L98.6539 1122.61 L98.6539 1118.68 Q101.316 1115.92 105.899 1111.29 Q110.506 1106.64 111.686 1105.3 Q113.932 1102.77 114.811 1101.04 Q115.714 1099.28 115.714 1097.59 Q115.714 1094.83 113.77 1093.1 Q111.848 1091.36 108.746 1091.36 Q106.547 1091.36 104.094 1092.13 Q101.663 1092.89 98.8854 1094.44 L98.8854 1089.72 Q101.709 1088.58 104.163 1088.01 Q106.617 1087.43 108.654 1087.43 Q114.024 1087.43 117.219 1090.11 Q120.413 1092.8 120.413 1097.29 Q120.413 1099.42 119.603 1101.34 Q118.816 1103.24 116.709 1105.83 Q116.131 1106.5 113.029 1109.72 Q109.927 1112.91 104.279 1118.68 Z" fill="#000000" fill-rule="evenodd" fill-opacity="1" /><path clip-path="url(#clip490)" d="M62.9365 750.748 Q59.3254 750.748 57.4967 754.313 Q55.6912 757.854 55.6912 764.984 Q55.6912 772.09 57.4967 775.655 Q59.3254 779.197 62.9365 779.197 Q66.5707 779.197 68.3763 775.655 Q70.205 772.09 70.205 764.984 Q70.205 757.854 68.3763 754.313 Q66.5707 750.748 62.9365 750.748 M62.9365 747.044 Q68.7467 747.044 71.8022 751.651 Q74.8809 756.234 74.8809 764.984 Q74.8809 773.711 71.8022 778.317 Q68.7467 782.9 62.9365 782.9 Q57.1264 782.9 54.0477 778.317 Q50.9921 773.711 50.9921 764.984 Q50.9921 756.234 54.0477 751.651 Q57.1264 747.044 62.9365 747.044 Z" fill="#000000" fill-rule="evenodd" fill-opacity="1" /><path clip-path="url(#clip490)" d="M83.0984 776.35 L87.9827 776.35 L87.9827 782.229 L83.0984 782.229 L83.0984 776.35 Z" fill="#000000" fill-rule="evenodd" fill-opacity="1" /><path clip-path="url(#clip490)" d="M111.015 751.743 L99.2095 770.192 L111.015 770.192 L111.015 751.743 M109.788 747.669 L115.668 747.669 L115.668 770.192 L120.598 770.192 L120.598 774.081 L115.668 774.081 L115.668 782.229 L111.015 782.229 L111.015 774.081 L95.4132 774.081 L95.4132 769.567 L109.788 747.669 Z" fill="#000000" fill-rule="evenodd" fill-opacity="1" /><path clip-path="url(#clip490)" d="M63.2606 410.364 Q59.6495 410.364 57.8208 413.929 Q56.0152 417.471 56.0152 424.601 Q56.0152 431.707 57.8208 435.272 Q59.6495 438.813 63.2606 438.813 Q66.8948 438.813 68.7004 435.272 Q70.5291 431.707 70.5291 424.601 Q70.5291 417.471 68.7004 413.929 Q66.8948 410.364 63.2606 410.364 M63.2606 406.661 Q69.0707 406.661 72.1263 411.267 Q75.205 415.851 75.205 424.601 Q75.205 433.327 72.1263 437.934 Q69.0707 442.517 63.2606 442.517 Q57.4504 442.517 54.3717 437.934 Q51.3162 433.327 51.3162 424.601 Q51.3162 415.851 54.3717 411.267 Q57.4504 406.661 63.2606 406.661 Z" fill="#000000" fill-rule="evenodd" fill-opacity="1" /><path clip-path="url(#clip490)" d="M83.4225 435.966 L88.3067 435.966 L88.3067 441.846 L83.4225 441.846 L83.4225 435.966 Z" fill="#000000" fill-rule="evenodd" fill-opacity="1" /><path clip-path="url(#clip490)" d="M109.071 422.702 Q105.922 422.702 104.071 424.855 Q102.242 427.008 102.242 430.758 Q102.242 434.485 104.071 436.661 Q105.922 438.813 109.071 438.813 Q112.219 438.813 114.047 436.661 Q115.899 434.485 115.899 430.758 Q115.899 427.008 114.047 424.855 Q112.219 422.702 109.071 422.702 M118.353 408.05 L118.353 412.309 Q116.594 411.476 114.788 411.036 Q113.006 410.596 111.246 410.596 Q106.617 410.596 104.163 413.721 Q101.733 416.846 101.385 423.165 Q102.751 421.151 104.811 420.087 Q106.871 418.999 109.348 418.999 Q114.557 418.999 117.566 422.17 Q120.598 425.318 120.598 430.758 Q120.598 436.082 117.45 439.3 Q114.302 442.517 109.071 442.517 Q103.075 442.517 99.9039 437.934 Q96.7326 433.327 96.7326 424.601 Q96.7326 416.406 100.621 411.545 Q104.51 406.661 111.061 406.661 Q112.82 406.661 114.603 407.008 Q116.408 407.355 118.353 408.05 Z" fill="#000000" fill-rule="evenodd" fill-opacity="1" /><path clip-path="url(#clip490)" d="M63.5152 69.9812 Q59.9041 69.9812 58.0754 73.546 Q56.2699 77.0876 56.2699 84.2172 Q56.2699 91.3237 58.0754 94.8885 Q59.9041 98.4301 63.5152 98.4301 Q67.1494 98.4301 68.955 94.8885 Q70.7837 91.3237 70.7837 84.2172 Q70.7837 77.0876 68.955 73.546 Q67.1494 69.9812 63.5152 69.9812 M63.5152 66.2775 Q69.3254 66.2775 72.3809 70.884 Q75.4596 75.4673 75.4596 84.2172 Q75.4596 92.944 72.3809 97.5505 Q69.3254 102.134 63.5152 102.134 Q57.7051 102.134 54.6264 97.5505 Q51.5708 92.944 51.5708 84.2172 Q51.5708 75.4673 54.6264 70.884 Q57.7051 66.2775 63.5152 66.2775 Z" fill="#000000" fill-rule="evenodd" fill-opacity="1" /><path clip-path="url(#clip490)" d="M83.6771 95.5829 L88.5614 95.5829 L88.5614 101.463 L83.6771 101.463 L83.6771 95.5829 Z" fill="#000000" fill-rule="evenodd" fill-opacity="1" /><path clip-path="url(#clip490)" d="M108.746 85.0506 Q105.413 85.0506 103.492 86.833 Q101.594 88.6154 101.594 91.7403 Q101.594 94.8653 103.492 96.6477 Q105.413 98.4301 108.746 98.4301 Q112.08 98.4301 114.001 96.6477 Q115.922 94.8422 115.922 91.7403 Q115.922 88.6154 114.001 86.833 Q112.103 85.0506 108.746 85.0506 M104.071 83.0598 Q101.061 82.3191 99.3715 80.2589 Q97.7048 78.1988 97.7048 75.2358 Q97.7048 71.0923 100.645 68.6849 Q103.608 66.2775 108.746 66.2775 Q113.908 66.2775 116.848 68.6849 Q119.788 71.0923 119.788 75.2358 Q119.788 78.1988 118.098 80.2589 Q116.432 82.3191 113.445 83.0598 Q116.825 83.8469 118.7 86.1385 Q120.598 88.4302 120.598 91.7403 Q120.598 96.7635 117.52 99.4486 Q114.464 102.134 108.746 102.134 Q103.029 102.134 99.9502 99.4486 Q96.8947 96.7635 96.8947 91.7403 Q96.8947 88.4302 98.7928 86.1385 Q100.691 83.8469 104.071 83.0598 M102.358 75.6756 Q102.358 78.3608 104.024 79.8654 Q105.714 81.37 108.746 81.37 Q111.756 81.37 113.445 79.8654 Q115.158 78.3608 115.158 75.6756 Q115.158 72.9904 113.445 71.4858 Q111.756 69.9812 108.746 69.9812 Q105.714 69.9812 104.024 71.4858 Q102.358 72.9904 102.358 75.6756 Z" fill="#000000" fill-rule="evenodd" fill-opacity="1" /><circle clip-path="url(#clip492)" cx="1340.01" cy="1445.72" r="14.4" fill="#808080" fill-rule="evenodd" fill-opacity="0.5" stroke="#000000" stroke-opacity="0.5" stroke-width="3.2"/>
<circle clip-path="url(#clip492)" cx="1447" cy="1445.72" r="14.4" fill="#808080" fill-rule="evenodd" fill-opacity="0.5" stroke="#000000" stroke-opacity="0.5" stroke-width="3.2"/>
<circle clip-path="url(#clip492)" cx="1257.59" cy="1445.72" r="14.4" fill="#808080" fill-rule="evenodd" fill-opacity="0.5" stroke="#000000" stroke-opacity="0.5" stroke-width="3.2"/>
<circle clip-path="url(#clip492)" cx="1207.86" cy="1445.72" r="14.4" fill="#808080" fill-rule="evenodd" fill-opacity="0.5" stroke="#000000" stroke-opacity="0.5" stroke-width="3.2"/>
<circle clip-path="url(#clip492)" cx="1597.52" cy="1445.72" r="14.4" fill="#808080" fill-rule="evenodd" fill-opacity="0.5" stroke="#000000" stroke-opacity="0.5" stroke-width="3.2"/>
<circle clip-path="url(#clip492)" cx="1395.7" cy="1445.72" r="14.4" fill="#808080" fill-rule="evenodd" fill-opacity="0.5" stroke="#000000" stroke-opacity="0.5" stroke-width="3.2"/>
<circle clip-path="url(#clip492)" cx="1394.18" cy="1445.72" r="14.4" fill="#808080" fill-rule="evenodd" fill-opacity="0.5" stroke="#000000" stroke-opacity="0.5" stroke-width="3.2"/>
<circle clip-path="url(#clip492)" cx="1207.23" cy="1445.72" r="14.4" fill="#808080" fill-rule="evenodd" fill-opacity="0.5" stroke="#000000" stroke-opacity="0.5" stroke-width="3.2"/>
<circle clip-path="url(#clip492)" cx="1773.15" cy="1445.72" r="14.4" fill="#808080" fill-rule="evenodd" fill-opacity="0.5" stroke="#000000" stroke-opacity="0.5" stroke-width="3.2"/>
<circle clip-path="url(#clip492)" cx="1365.31" cy="1445.72" r="14.4" fill="#808080" fill-rule="evenodd" fill-opacity="0.5" stroke="#000000" stroke-opacity="0.5" stroke-width="3.2"/>
<circle clip-path="url(#clip492)" cx="1265.25" cy="1445.72" r="14.4" fill="#808080" fill-rule="evenodd" fill-opacity="0.5" stroke="#000000" stroke-opacity="0.5" stroke-width="3.2"/>
<circle clip-path="url(#clip492)" cx="1189.41" cy="1445.72" r="14.4" fill="#808080" fill-rule="evenodd" fill-opacity="0.5" stroke="#000000" stroke-opacity="0.5" stroke-width="3.2"/>
<circle clip-path="url(#clip492)" cx="1296.63" cy="1445.72" r="14.4" fill="#808080" fill-rule="evenodd" fill-opacity="0.5" stroke="#000000" stroke-opacity="0.5" stroke-width="3.2"/>
<circle clip-path="url(#clip492)" cx="678.297" cy="1445.72" r="14.4" fill="#808080" fill-rule="evenodd" fill-opacity="0.5" stroke="#000000" stroke-opacity="0.5" stroke-width="3.2"/>
<circle clip-path="url(#clip492)" cx="682.36" cy="1445.72" r="14.4" fill="#808080" fill-rule="evenodd" fill-opacity="0.5" stroke="#000000" stroke-opacity="0.5" stroke-width="3.2"/>
<circle clip-path="url(#clip492)" cx="1330.62" cy="1445.72" r="14.4" fill="#808080" fill-rule="evenodd" fill-opacity="0.5" stroke="#000000" stroke-opacity="0.5" stroke-width="3.2"/>
<circle clip-path="url(#clip492)" cx="781.061" cy="1445.72" r="14.4" fill="#808080" fill-rule="evenodd" fill-opacity="0.5" stroke="#000000" stroke-opacity="0.5" stroke-width="3.2"/>
<circle clip-path="url(#clip492)" cx="1294.81" cy="1445.72" r="14.4" fill="#808080" fill-rule="evenodd" fill-opacity="0.5" stroke="#000000" stroke-opacity="0.5" stroke-width="3.2"/>
<circle clip-path="url(#clip492)" cx="1387.36" cy="1445.72" r="14.4" fill="#808080" fill-rule="evenodd" fill-opacity="0.5" stroke="#000000" stroke-opacity="0.5" stroke-width="3.2"/>
<circle clip-path="url(#clip492)" cx="660.086" cy="1445.72" r="14.4" fill="#808080" fill-rule="evenodd" fill-opacity="0.5" stroke="#000000" stroke-opacity="0.5" stroke-width="3.2"/>
<circle clip-path="url(#clip492)" cx="1435.28" cy="1445.72" r="14.4" fill="#808080" fill-rule="evenodd" fill-opacity="0.5" stroke="#000000" stroke-opacity="0.5" stroke-width="3.2"/>
<circle clip-path="url(#clip492)" cx="1451.18" cy="1445.72" r="14.4" fill="#808080" fill-rule="evenodd" fill-opacity="0.5" stroke="#000000" stroke-opacity="0.5" stroke-width="3.2"/>
<circle clip-path="url(#clip492)" cx="1488.92" cy="1445.72" r="14.4" fill="#808080" fill-rule="evenodd" fill-opacity="0.5" stroke="#000000" stroke-opacity="0.5" stroke-width="3.2"/>
<circle clip-path="url(#clip492)" cx="1661.02" cy="1445.72" r="14.4" fill="#808080" fill-rule="evenodd" fill-opacity="0.5" stroke="#000000" stroke-opacity="0.5" stroke-width="3.2"/>
<circle clip-path="url(#clip492)" cx="1385.79" cy="1445.72" r="14.4" fill="#808080" fill-rule="evenodd" fill-opacity="0.5" stroke="#000000" stroke-opacity="0.5" stroke-width="3.2"/>
<circle clip-path="url(#clip492)" cx="636.082" cy="1445.72" r="14.4" fill="#808080" fill-rule="evenodd" fill-opacity="0.5" stroke="#000000" stroke-opacity="0.5" stroke-width="3.2"/>
<circle clip-path="url(#clip492)" cx="731.103" cy="1445.72" r="14.4" fill="#808080" fill-rule="evenodd" fill-opacity="0.5" stroke="#000000" stroke-opacity="0.5" stroke-width="3.2"/>
<circle clip-path="url(#clip492)" cx="1224.53" cy="1445.72" r="14.4" fill="#808080" fill-rule="evenodd" fill-opacity="0.5" stroke="#000000" stroke-opacity="0.5" stroke-width="3.2"/>
<circle clip-path="url(#clip492)" cx="702.905" cy="1445.72" r="14.4" fill="#808080" fill-rule="evenodd" fill-opacity="0.5" stroke="#000000" stroke-opacity="0.5" stroke-width="3.2"/>
<circle clip-path="url(#clip492)" cx="1830.36" cy="1445.72" r="14.4" fill="#808080" fill-rule="evenodd" fill-opacity="0.5" stroke="#000000" stroke-opacity="0.5" stroke-width="3.2"/>
<circle clip-path="url(#clip492)" cx="1436.68" cy="1445.72" r="14.4" fill="#808080" fill-rule="evenodd" fill-opacity="0.5" stroke="#000000" stroke-opacity="0.5" stroke-width="3.2"/>
<circle clip-path="url(#clip492)" cx="674.26" cy="1445.72" r="14.4" fill="#808080" fill-rule="evenodd" fill-opacity="0.5" stroke="#000000" stroke-opacity="0.5" stroke-width="3.2"/>
<circle clip-path="url(#clip492)" cx="609.312" cy="1445.72" r="14.4" fill="#808080" fill-rule="evenodd" fill-opacity="0.5" stroke="#000000" stroke-opacity="0.5" stroke-width="3.2"/>
<circle clip-path="url(#clip492)" cx="1512.62" cy="1445.72" r="14.4" fill="#808080" fill-rule="evenodd" fill-opacity="0.5" stroke="#000000" stroke-opacity="0.5" stroke-width="3.2"/>
<circle clip-path="url(#clip492)" cx="1352.12" cy="1445.72" r="14.4" fill="#808080" fill-rule="evenodd" fill-opacity="0.5" stroke="#000000" stroke-opacity="0.5" stroke-width="3.2"/>
<circle clip-path="url(#clip492)" cx="1469.83" cy="1445.72" r="14.4" fill="#808080" fill-rule="evenodd" fill-opacity="0.5" stroke="#000000" stroke-opacity="0.5" stroke-width="3.2"/>
<circle clip-path="url(#clip492)" cx="695.712" cy="1445.72" r="14.4" fill="#808080" fill-rule="evenodd" fill-opacity="0.5" stroke="#000000" stroke-opacity="0.5" stroke-width="3.2"/>
<circle clip-path="url(#clip492)" cx="642.487" cy="1445.72" r="14.4" fill="#808080" fill-rule="evenodd" fill-opacity="0.5" stroke="#000000" stroke-opacity="0.5" stroke-width="3.2"/>
<circle clip-path="url(#clip492)" cx="1482.29" cy="1445.72" r="14.4" fill="#808080" fill-rule="evenodd" fill-opacity="0.5" stroke="#000000" stroke-opacity="0.5" stroke-width="3.2"/>
<circle clip-path="url(#clip492)" cx="1452.05" cy="1445.72" r="14.4" fill="#808080" fill-rule="evenodd" fill-opacity="0.5" stroke="#000000" stroke-opacity="0.5" stroke-width="3.2"/>
<circle clip-path="url(#clip492)" cx="620.044" cy="1445.72" r="14.4" fill="#808080" fill-rule="evenodd" fill-opacity="0.5" stroke="#000000" stroke-opacity="0.5" stroke-width="3.2"/>
<circle clip-path="url(#clip492)" cx="1128.55" cy="1445.72" r="14.4" fill="#808080" fill-rule="evenodd" fill-opacity="0.5" stroke="#000000" stroke-opacity="0.5" stroke-width="3.2"/>
<circle clip-path="url(#clip492)" cx="750.048" cy="1445.72" r="14.4" fill="#808080" fill-rule="evenodd" fill-opacity="0.5" stroke="#000000" stroke-opacity="0.5" stroke-width="3.2"/>
<circle clip-path="url(#clip492)" cx="1677.09" cy="1445.72" r="14.4" fill="#808080" fill-rule="evenodd" fill-opacity="0.5" stroke="#000000" stroke-opacity="0.5" stroke-width="3.2"/>
<circle clip-path="url(#clip492)" cx="1412.86" cy="1445.72" r="14.4" fill="#808080" fill-rule="evenodd" fill-opacity="0.5" stroke="#000000" stroke-opacity="0.5" stroke-width="3.2"/>
<circle clip-path="url(#clip492)" cx="1199.43" cy="1445.72" r="14.4" fill="#808080" fill-rule="evenodd" fill-opacity="0.5" stroke="#000000" stroke-opacity="0.5" stroke-width="3.2"/>
<circle clip-path="url(#clip492)" cx="1552.44" cy="1445.72" r="14.4" fill="#808080" fill-rule="evenodd" fill-opacity="0.5" stroke="#000000" stroke-opacity="0.5" stroke-width="3.2"/>
<circle clip-path="url(#clip492)" cx="1342.47" cy="1445.72" r="14.4" fill="#808080" fill-rule="evenodd" fill-opacity="0.5" stroke="#000000" stroke-opacity="0.5" stroke-width="3.2"/>
<circle clip-path="url(#clip492)" cx="1341.53" cy="1445.72" r="14.4" fill="#808080" fill-rule="evenodd" fill-opacity="0.5" stroke="#000000" stroke-opacity="0.5" stroke-width="3.2"/>
<circle clip-path="url(#clip492)" cx="613.213" cy="1445.72" r="14.4" fill="#808080" fill-rule="evenodd" fill-opacity="0.5" stroke="#000000" stroke-opacity="0.5" stroke-width="3.2"/>
<circle clip-path="url(#clip492)" cx="1473.53" cy="1445.72" r="14.4" fill="#808080" fill-rule="evenodd" fill-opacity="0.5" stroke="#000000" stroke-opacity="0.5" stroke-width="3.2"/>
<circle clip-path="url(#clip492)" cx="1846.61" cy="1445.72" r="14.4" fill="#808080" fill-rule="evenodd" fill-opacity="0.5" stroke="#000000" stroke-opacity="0.5" stroke-width="3.2"/>
<circle clip-path="url(#clip492)" cx="1900.04" cy="1445.72" r="14.4" fill="#808080" fill-rule="evenodd" fill-opacity="0.5" stroke="#000000" stroke-opacity="0.5" stroke-width="3.2"/>
<circle clip-path="url(#clip492)" cx="1381.57" cy="1445.72" r="14.4" fill="#808080" fill-rule="evenodd" fill-opacity="0.5" stroke="#000000" stroke-opacity="0.5" stroke-width="3.2"/>
<circle clip-path="url(#clip492)" cx="1118.34" cy="1445.72" r="14.4" fill="#808080" fill-rule="evenodd" fill-opacity="0.5" stroke="#000000" stroke-opacity="0.5" stroke-width="3.2"/>
<circle clip-path="url(#clip492)" cx="668.495" cy="1445.72" r="14.4" fill="#808080" fill-rule="evenodd" fill-opacity="0.5" stroke="#000000" stroke-opacity="0.5" stroke-width="3.2"/>
<circle clip-path="url(#clip492)" cx="635.187" cy="1445.72" r="14.4" fill="#808080" fill-rule="evenodd" fill-opacity="0.5" stroke="#000000" stroke-opacity="0.5" stroke-width="3.2"/>
<circle clip-path="url(#clip492)" cx="706.1" cy="1445.72" r="14.4" fill="#808080" fill-rule="evenodd" fill-opacity="0.5" stroke="#000000" stroke-opacity="0.5" stroke-width="3.2"/>
<circle clip-path="url(#clip492)" cx="1819.22" cy="1445.72" r="14.4" fill="#808080" fill-rule="evenodd" fill-opacity="0.5" stroke="#000000" stroke-opacity="0.5" stroke-width="3.2"/>
<circle clip-path="url(#clip492)" cx="1629.87" cy="1445.72" r="14.4" fill="#808080" fill-rule="evenodd" fill-opacity="0.5" stroke="#000000" stroke-opacity="0.5" stroke-width="3.2"/>
<circle clip-path="url(#clip492)" cx="1288.87" cy="1445.72" r="14.4" fill="#808080" fill-rule="evenodd" fill-opacity="0.5" stroke="#000000" stroke-opacity="0.5" stroke-width="3.2"/>
<circle clip-path="url(#clip492)" cx="1163.84" cy="1445.72" r="14.4" fill="#808080" fill-rule="evenodd" fill-opacity="0.5" stroke="#000000" stroke-opacity="0.5" stroke-width="3.2"/>
<circle clip-path="url(#clip492)" cx="1347.63" cy="1445.72" r="14.4" fill="#808080" fill-rule="evenodd" fill-opacity="0.5" stroke="#000000" stroke-opacity="0.5" stroke-width="3.2"/>
<circle clip-path="url(#clip492)" cx="1336.51" cy="1445.72" r="14.4" fill="#808080" fill-rule="evenodd" fill-opacity="0.5" stroke="#000000" stroke-opacity="0.5" stroke-width="3.2"/>
<circle clip-path="url(#clip492)" cx="1055.78" cy="1445.72" r="14.4" fill="#808080" fill-rule="evenodd" fill-opacity="0.5" stroke="#000000" stroke-opacity="0.5" stroke-width="3.2"/>
<circle clip-path="url(#clip492)" cx="1476.6" cy="1445.72" r="14.4" fill="#808080" fill-rule="evenodd" fill-opacity="0.5" stroke="#000000" stroke-opacity="0.5" stroke-width="3.2"/>
<circle clip-path="url(#clip492)" cx="695.056" cy="1445.72" r="14.4" fill="#808080" fill-rule="evenodd" fill-opacity="0.5" stroke="#000000" stroke-opacity="0.5" stroke-width="3.2"/>
<circle clip-path="url(#clip492)" cx="1614.29" cy="1445.72" r="14.4" fill="#808080" fill-rule="evenodd" fill-opacity="0.5" stroke="#000000" stroke-opacity="0.5" stroke-width="3.2"/>
<circle clip-path="url(#clip492)" cx="1375.03" cy="1445.72" r="14.4" fill="#808080" fill-rule="evenodd" fill-opacity="0.5" stroke="#000000" stroke-opacity="0.5" stroke-width="3.2"/>
<circle clip-path="url(#clip492)" cx="1686.58" cy="1445.72" r="14.4" fill="#808080" fill-rule="evenodd" fill-opacity="0.5" stroke="#000000" stroke-opacity="0.5" stroke-width="3.2"/>
<circle clip-path="url(#clip492)" cx="1459.22" cy="1445.72" r="14.4" fill="#808080" fill-rule="evenodd" fill-opacity="0.5" stroke="#000000" stroke-opacity="0.5" stroke-width="3.2"/>
<circle clip-path="url(#clip492)" cx="1569.59" cy="1445.72" r="14.4" fill="#808080" fill-rule="evenodd" fill-opacity="0.5" stroke="#000000" stroke-opacity="0.5" stroke-width="3.2"/>
<circle clip-path="url(#clip492)" cx="1370.4" cy="1445.72" r="14.4" fill="#808080" fill-rule="evenodd" fill-opacity="0.5" stroke="#000000" stroke-opacity="0.5" stroke-width="3.2"/>
<circle clip-path="url(#clip492)" cx="697.695" cy="1445.72" r="14.4" fill="#808080" fill-rule="evenodd" fill-opacity="0.5" stroke="#000000" stroke-opacity="0.5" stroke-width="3.2"/>
<circle clip-path="url(#clip492)" cx="661.112" cy="1445.72" r="14.4" fill="#808080" fill-rule="evenodd" fill-opacity="0.5" stroke="#000000" stroke-opacity="0.5" stroke-width="3.2"/>
<circle clip-path="url(#clip492)" cx="1424.9" cy="1445.72" r="14.4" fill="#808080" fill-rule="evenodd" fill-opacity="0.5" stroke="#000000" stroke-opacity="0.5" stroke-width="3.2"/>
<circle clip-path="url(#clip492)" cx="1033.85" cy="1445.72" r="14.4" fill="#808080" fill-rule="evenodd" fill-opacity="0.5" stroke="#000000" stroke-opacity="0.5" stroke-width="3.2"/>
<circle clip-path="url(#clip492)" cx="712.058" cy="1445.72" r="14.4" fill="#808080" fill-rule="evenodd" fill-opacity="0.5" stroke="#000000" stroke-opacity="0.5" stroke-width="3.2"/>
<circle clip-path="url(#clip492)" cx="1575.37" cy="1445.72" r="14.4" fill="#808080" fill-rule="evenodd" fill-opacity="0.5" stroke="#000000" stroke-opacity="0.5" stroke-width="3.2"/>
<circle clip-path="url(#clip492)" cx="1254.09" cy="1445.72" r="14.4" fill="#808080" fill-rule="evenodd" fill-opacity="0.5" stroke="#000000" stroke-opacity="0.5" stroke-width="3.2"/>
<circle clip-path="url(#clip492)" cx="711.052" cy="1445.72" r="14.4" fill="#808080" fill-rule="evenodd" fill-opacity="0.5" stroke="#000000" stroke-opacity="0.5" stroke-width="3.2"/>
<circle clip-path="url(#clip492)" cx="1377.49" cy="1445.72" r="14.4" fill="#808080" fill-rule="evenodd" fill-opacity="0.5" stroke="#000000" stroke-opacity="0.5" stroke-width="3.2"/>
<circle clip-path="url(#clip492)" cx="673.623" cy="1445.72" r="14.4" fill="#808080" fill-rule="evenodd" fill-opacity="0.5" stroke="#000000" stroke-opacity="0.5" stroke-width="3.2"/>
<circle clip-path="url(#clip492)" cx="1684.4" cy="1445.72" r="14.4" fill="#808080" fill-rule="evenodd" fill-opacity="0.5" stroke="#000000" stroke-opacity="0.5" stroke-width="3.2"/>
<circle clip-path="url(#clip492)" cx="1085.98" cy="1445.72" r="14.4" fill="#808080" fill-rule="evenodd" fill-opacity="0.5" stroke="#000000" stroke-opacity="0.5" stroke-width="3.2"/>
<circle clip-path="url(#clip492)" cx="1457.47" cy="1445.72" r="14.4" fill="#808080" fill-rule="evenodd" fill-opacity="0.5" stroke="#000000" stroke-opacity="0.5" stroke-width="3.2"/>
<circle clip-path="url(#clip492)" cx="708.817" cy="1445.72" r="14.4" fill="#808080" fill-rule="evenodd" fill-opacity="0.5" stroke="#000000" stroke-opacity="0.5" stroke-width="3.2"/>
<circle clip-path="url(#clip492)" cx="1253.4" cy="1445.72" r="14.4" fill="#808080" fill-rule="evenodd" fill-opacity="0.5" stroke="#000000" stroke-opacity="0.5" stroke-width="3.2"/>
<circle clip-path="url(#clip492)" cx="721.629" cy="1445.72" r="14.4" fill="#808080" fill-rule="evenodd" fill-opacity="0.5" stroke="#000000" stroke-opacity="0.5" stroke-width="3.2"/>
<circle clip-path="url(#clip492)" cx="1741.04" cy="1445.72" r="14.4" fill="#808080" fill-rule="evenodd" fill-opacity="0.5" stroke="#000000" stroke-opacity="0.5" stroke-width="3.2"/>
<circle clip-path="url(#clip492)" cx="1819.74" cy="1445.72" r="14.4" fill="#808080" fill-rule="evenodd" fill-opacity="0.5" stroke="#000000" stroke-opacity="0.5" stroke-width="3.2"/>
<circle clip-path="url(#clip492)" cx="728.745" cy="1445.72" r="14.4" fill="#808080" fill-rule="evenodd" fill-opacity="0.5" stroke="#000000" stroke-opacity="0.5" stroke-width="3.2"/>
<circle clip-path="url(#clip492)" cx="1512.44" cy="1445.72" r="14.4" fill="#808080" fill-rule="evenodd" fill-opacity="0.5" stroke="#000000" stroke-opacity="0.5" stroke-width="3.2"/>
<circle clip-path="url(#clip492)" cx="1619.67" cy="1445.72" r="14.4" fill="#808080" fill-rule="evenodd" fill-opacity="0.5" stroke="#000000" stroke-opacity="0.5" stroke-width="3.2"/>
<circle clip-path="url(#clip492)" cx="712.36" cy="1445.72" r="14.4" fill="#808080" fill-rule="evenodd" fill-opacity="0.5" stroke="#000000" stroke-opacity="0.5" stroke-width="3.2"/>
<circle clip-path="url(#clip492)" cx="1429.85" cy="1445.72" r="14.4" fill="#808080" fill-rule="evenodd" fill-opacity="0.5" stroke="#000000" stroke-opacity="0.5" stroke-width="3.2"/>
<circle clip-path="url(#clip492)" cx="724.637" cy="1445.72" r="14.4" fill="#808080" fill-rule="evenodd" fill-opacity="0.5" stroke="#000000" stroke-opacity="0.5" stroke-width="3.2"/>
<circle clip-path="url(#clip492)" cx="1225.29" cy="1445.72" r="14.4" fill="#808080" fill-rule="evenodd" fill-opacity="0.5" stroke="#000000" stroke-opacity="0.5" stroke-width="3.2"/>
<circle clip-path="url(#clip492)" cx="1899" cy="1445.72" r="14.4" fill="#808080" fill-rule="evenodd" fill-opacity="0.5" stroke="#000000" stroke-opacity="0.5" stroke-width="3.2"/>
<circle clip-path="url(#clip492)" cx="791.216" cy="1445.72" r="14.4" fill="#808080" fill-rule="evenodd" fill-opacity="0.5" stroke="#000000" stroke-opacity="0.5" stroke-width="3.2"/>
<path clip-path="url(#clip492)" d="
M218.754 1313.07 L222.906 1313.07 L227.058 1313.07 L231.21 1313.07 L235.362 1313.07 L239.514 1313.07 L243.666 1313.07 L247.818 1313.07 L251.97 1313.07 L256.122 1313.07 
  L260.274 1313.07 L264.426 1313.07 L268.578 1313.07 L272.73 1313.07 L276.882 1313.07 L281.034 1313.07 L285.186 1311.76 L289.338 1311.76 L293.49 1311.76 L297.642 1311.76 
  L301.794 1311.76 L305.946 1311.76 L310.098 1311.76 L314.25 1311.76 L318.402 1311.76 L322.554 1311.76 L326.706 1311.76 L330.858 1311.76 L335.01 1311.76 L339.162 1311.76 
  L343.314 1311.76 L347.466 1311.76 L351.618 1312.84 L355.77 1312.84 L359.922 1312.84 L364.074 1312.84 L368.226 1312.84 L372.378 1312.84 L376.53 1312.84 L380.682 1312.84 
  L384.834 1312.84 L388.986 1312.84 L393.138 1312.84 L397.29 1312.84 L401.442 1312.84 L405.594 1312.84 L409.746 1312.84 L413.898 1313.58 L418.05 1313.58 L422.202 1313.58 
  L426.354 1313.58 L430.506 1313.58 L434.658 1313.58 L438.81 1313.58 L442.962 1313.58 L447.114 1313.58 L451.266 1313.58 L455.418 1313.58 L459.57 1313.58 L463.722 1313.58 
  L467.874 1313.58 L472.026 1313.58 L476.177 1313.58 L480.329 1166.03 L484.481 1166.03 L488.633 1166.03 L492.785 1166.03 L496.937 1166.03 L501.089 1166.03 L505.241 1166.03 
  L509.393 1166.03 L513.545 1166.03 L517.697 1166.03 L521.849 1166.03 L526.001 1166.03 L530.153 1166.03 L534.305 1166.03 L538.457 1166.03 L542.609 1161.02 L546.761 1161.02 
  L550.913 1161.02 L555.065 1161.02 L559.217 1161.02 L563.369 1161.02 L567.521 1161.02 L571.673 1161.02 L575.825 1161.02 L579.977 1161.02 L584.129 1161.02 L588.281 1161.02 
  L592.433 1161.02 L596.585 1161.02 L600.737 1161.02 L604.889 1161.02 L609.041 787.377 L613.193 787.377 L617.345 787.377 L621.497 787.377 L625.649 787.377 L629.801 787.377 
  L633.953 787.377 L638.105 787.377 L642.257 787.377 L646.409 787.377 L650.561 787.377 L654.713 787.377 L658.865 787.377 L663.017 787.377 L667.169 787.377 L671.321 787.377 
  L675.473 636.552 L679.625 636.552 L683.777 636.552 L687.929 636.552 L692.081 636.552 L696.233 636.552 L700.385 636.552 L704.537 636.552 L708.689 636.552 L712.841 636.552 
  L716.993 636.552 L721.145 636.552 L725.297 636.552 L729.449 636.552 L733.601 636.552 L737.753 1270.19 L741.905 1270.19 L746.057 1270.19 L750.209 1270.19 L754.361 1270.19 
  L758.513 1270.19 L762.665 1270.19 L766.817 1270.19 L770.969 1270.19 L775.121 1270.19 L779.273 1270.19 L783.425 1270.19 L787.577 1270.19 L791.729 1270.19 L795.881 1270.19 
  L800.033 1270.19 L804.185 1287.88 L808.337 1287.88 L812.489 1287.88 L816.641 1287.88 L820.793 1287.88 L824.945 1287.88 L829.097 1287.88 L833.249 1287.88 L837.401 1287.88 
  L841.553 1287.88 L845.705 1287.88 L849.857 1287.88 L854.009 1287.88 L858.161 1287.88 L862.313 1287.88 L866.465 1305.49 L870.617 1305.49 L874.769 1305.49 L878.921 1305.49 
  L883.073 1305.49 L887.225 1305.49 L891.377 1305.49 L895.529 1305.49 L899.681 1305.49 L903.833 1305.49 L907.985 1305.49 L912.137 1305.49 L916.289 1305.49 L920.441 1305.49 
  L924.593 1305.49 L928.745 1305.49 L932.897 1305.19 L937.049 1305.19 L941.201 1305.19 L945.353 1305.19 L949.505 1305.19 L953.657 1305.19 L957.809 1305.19 L961.961 1305.19 
  L966.113 1305.19 L970.265 1305.19 L974.417 1305.19 L978.569 1305.19 L982.721 1305.19 L986.873 1305.19 L991.025 1305.19 L995.177 1305.19 L999.329 1191.47 L1003.48 1191.47 
  L1007.63 1191.47 L1011.79 1191.47 L1015.94 1191.47 L1020.09 1191.47 L1024.24 1191.47 L1028.39 1191.47 L1032.55 1191.47 L1036.7 1191.47 L1040.85 1191.47 L1045 1191.47 
  L1049.15 1191.47 L1053.31 1191.47 L1057.46 1191.47 L1061.61 1192.86 L1065.76 1192.86 L1069.91 1192.86 L1074.07 1192.86 L1078.22 1192.86 L1082.37 1192.86 L1086.52 1192.86 
  L1090.67 1192.86 L1094.83 1192.86 L1098.98 1192.86 L1103.13 1192.86 L1107.28 1192.86 L1111.43 1192.86 L1115.59 1192.86 L1119.74 1192.86 L1123.89 1192.86 L1128.04 1140.76 
  L1132.19 1140.76 L1136.35 1140.76 L1140.5 1140.76 L1144.65 1140.76 L1148.8 1140.76 L1152.95 1140.76 L1157.11 1140.76 L1161.26 1140.76 L1165.41 1140.76 L1169.56 1140.76 
  L1173.71 1140.76 L1177.87 1140.76 L1182.02 1140.76 L1186.17 1140.76 L1190.32 1093.15 L1194.47 1093.15 L1198.63 1093.15 L1202.78 1093.15 L1206.93 1093.15 L1211.08 1093.15 
  L1215.23 1093.15 L1219.39 1093.15 L1223.54 1093.15 L1227.69 1093.15 L1231.84 1093.15 L1235.99 1093.15 L1240.15 1093.15 L1244.3 1093.15 L1248.45 1093.15 L1252.6 1093.15 
  L1256.75 755.801 L1260.91 755.801 L1265.06 755.801 L1269.21 755.801 L1273.36 755.801 L1277.51 755.801 L1281.67 755.801 L1285.82 755.801 L1289.97 755.801 L1294.12 755.801 
  L1298.27 755.801 L1302.43 755.801 L1306.58 755.801 L1310.73 755.801 L1314.88 755.801 L1319.03 755.801 L1323.19 588.759 L1327.34 588.759 L1331.49 588.759 L1335.64 588.759 
  L1339.79 588.759 L1343.95 588.759 L1348.1 588.759 L1352.25 588.759 L1356.4 588.759 L1360.55 588.759 L1364.71 588.759 L1368.86 588.759 L1373.01 588.759 L1377.16 588.759 
  L1381.31 588.759 L1385.46 594.304 L1389.62 594.304 L1393.77 594.304 L1397.92 594.304 L1402.07 594.304 L1406.22 594.304 L1410.38 594.304 L1414.53 594.304 L1418.68 594.304 
  L1422.83 594.304 L1426.98 594.304 L1431.14 594.304 L1435.29 594.304 L1439.44 594.304 L1443.59 594.304 L1447.74 594.304 L1451.9 570.389 L1456.05 570.389 L1460.2 570.389 
  L1464.35 570.389 L1468.5 570.389 L1472.66 570.389 L1476.81 570.389 L1480.96 570.389 L1485.11 570.389 L1489.26 570.389 L1493.42 570.389 L1497.57 570.389 L1501.72 570.389 
  L1505.87 570.389 L1510.02 570.389 L1514.18 1069.21 L1518.33 1069.21 L1522.48 1069.21 L1526.63 1069.21 L1530.78 1069.21 L1534.94 1069.21 L1539.09 1069.21 L1543.24 1069.21 
  L1547.39 1069.21 L1551.54 1069.21 L1555.7 1069.21 L1559.85 1069.21 L1564 1069.21 L1568.15 1069.21 L1572.3 1069.21 L1576.46 1069.21 L1580.61 1051.5 L1584.76 1051.5 
  L1588.91 1051.5 L1593.06 1051.5 L1597.22 1051.5 L1601.37 1051.5 L1605.52 1051.5 L1609.67 1051.5 L1613.82 1051.5 L1617.98 1051.5 L1622.13 1051.5 L1626.28 1051.5 
  L1630.43 1051.5 L1634.58 1051.5 L1638.74 1051.5 L1642.89 1051.5 L1647.04 1073.02 L1651.19 1073.02 L1655.34 1073.02 L1659.5 1073.02 L1663.65 1073.02 L1667.8 1073.02 
  L1671.95 1073.02 L1676.1 1073.02 L1680.26 1073.02 L1684.41 1073.02 L1688.56 1073.02 L1692.71 1073.02 L1696.86 1073.02 L1701.02 1073.02 L1705.17 1073.02 L1709.32 1112.81 
  L1713.47 1112.81 L1717.62 1112.81 L1721.78 1112.81 L1725.93 1112.81 L1730.08 1112.81 L1734.23 1112.81 L1738.38 1112.81 L1742.54 1112.81 L1746.69 1112.81 L1750.84 1112.81 
  L1754.99 1112.81 L1759.14 1112.81 L1763.3 1112.81 L1767.45 1112.81 L1771.6 1112.81 L1775.75 1258.49 L1779.9 1258.49 L1784.06 1258.49 L1788.21 1258.49 L1792.36 1258.49 
  L1796.51 1258.49 L1800.66 1258.49 L1804.82 1258.49 L1808.97 1258.49 L1813.12 1258.49 L1817.27 1258.49 L1821.42 1258.49 L1825.58 1258.49 L1829.73 1258.49 L1833.88 1258.49 
  L1838.03 1265.72 L1842.18 1265.72 L1846.34 1265.72 L1850.49 1265.72 L1854.64 1265.72 L1858.79 1265.72 L1862.94 1265.72 L1867.1 1265.72 L1871.25 1265.72 L1875.4 1265.72 
  L1879.55 1265.72 L1883.7 1265.72 L1887.86 1265.72 L1892.01 1265.72 L1896.16 1265.72 L1900.31 1265.72 L1904.46 1317.85 L1908.62 1317.85 L1912.77 1317.85 L1916.92 1317.85 
  L1921.07 1317.85 L1925.22 1317.85 L1929.38 1317.85 L1933.53 1317.85 L1937.68 1317.85 L1941.83 1317.85 L1945.98 1317.85 L1950.14 1317.85 L1954.29 1317.85 L1958.44 1317.85 
  L1962.59 1317.85 L1966.74 1317.85 L1970.9 1317.09 L1975.05 1317.09 L1979.2 1317.09 L1983.35 1317.09 L1987.5 1317.09 L1991.66 1317.09 L1995.81 1317.09 L1999.96 1317.09 
  L2004.11 1317.09 L2008.26 1317.09 L2012.42 1317.09 L2016.57 1317.09 L2020.72 1317.09 L2024.87 1317.09 L2029.02 1317.09 L2033.18 1357.7 L2037.33 1357.7 L2041.48 1357.7 
  L2045.63 1357.7 L2049.78 1357.7 L2053.94 1357.7 L2058.09 1357.7 L2062.24 1357.7 L2066.39 1357.7 L2070.54 1357.7 L2074.7 1357.7 L2078.85 1357.7 L2083 1357.7 
  L2087.15 1357.7 L2091.3 1357.7 L2095.46 1357.7 L2099.61 1357.18 L2103.76 1357.18 L2107.91 1357.18 L2112.06 1357.18 L2116.22 1357.18 L2120.37 1357.18 L2124.52 1357.18 
  L2128.67 1357.18 L2132.82 1357.18 L2136.98 1357.18 L2141.13 1357.18 L2145.28 1357.18 L2149.43 1357.18 L2153.58 1357.18 L2157.74 1357.18 L2161.89 1358.08 L2166.04 1358.08 
  L2170.19 1358.08 L2174.34 1358.08 L2178.5 1358.08 L2182.65 1358.08 L2186.8 1358.08 L2190.95 1358.08 L2195.1 1358.08 L2199.26 1358.08 L2203.41 1358.08 L2207.56 1358.08 
  L2211.71 1358.08 L2215.86 1358.08 L2220.02 1358.08 L2224.17 1358.08 L2228.32 1357.98 L2232.47 1357.98 L2236.62 1357.98 L2240.78 1357.98 L2244.93 1357.98 L2249.08 1357.98 
  L2253.23 1357.98 L2257.38 1357.98 L2261.54 1357.98 L2265.69 1357.98 L2269.84 1357.98 L2273.99 1357.98 L2278.14 1357.98 L2282.3 1357.98 L2286.45 1357.98 L2290.6 1357.98 
  L2290.6 1355.92 L2286.45 1355.92 L2282.3 1355.92 L2278.14 1355.92 L2273.99 1355.92 L2269.84 1355.92 L2265.69 1355.92 L2261.54 1355.92 L2257.38 1355.92 L2253.23 1355.92 
  L2249.08 1355.92 L2244.93 1355.92 L2240.78 1355.92 L2236.62 1355.92 L2232.47 1355.92 L2228.32 1355.92 L2224.17 1356.03 L2220.02 1356.03 L2215.86 1356.03 L2211.71 1356.03 
  L2207.56 1356.03 L2203.41 1356.03 L2199.26 1356.03 L2195.1 1356.03 L2190.95 1356.03 L2186.8 1356.03 L2182.65 1356.03 L2178.5 1356.03 L2174.34 1356.03 L2170.19 1356.03 
  L2166.04 1356.03 L2161.89 1356.03 L2157.74 1355.1 L2153.58 1355.1 L2149.43 1355.1 L2145.28 1355.1 L2141.13 1355.1 L2136.98 1355.1 L2132.82 1355.1 L2128.67 1355.1 
  L2124.52 1355.1 L2120.37 1355.1 L2116.22 1355.1 L2112.06 1355.1 L2107.91 1355.1 L2103.76 1355.1 L2099.61 1355.1 L2095.46 1355.61 L2091.3 1355.61 L2087.15 1355.61 
  L2083 1355.61 L2078.85 1355.61 L2074.7 1355.61 L2070.54 1355.61 L2066.39 1355.61 L2062.24 1355.61 L2058.09 1355.61 L2053.94 1355.61 L2049.78 1355.61 L2045.63 1355.61 
  L2041.48 1355.61 L2037.33 1355.61 L2033.18 1355.61 L2029.02 1313.95 L2024.87 1313.95 L2020.72 1313.95 L2016.57 1313.95 L2012.42 1313.95 L2008.26 1313.95 L2004.11 1313.95 
  L1999.96 1313.95 L1995.81 1313.95 L1991.66 1313.95 L1987.5 1313.95 L1983.35 1313.95 L1979.2 1313.95 L1975.05 1313.95 L1970.9 1313.95 L1966.74 1314.72 L1962.59 1314.72 
  L1958.44 1314.72 L1954.29 1314.72 L1950.14 1314.72 L1945.98 1314.72 L1941.83 1314.72 L1937.68 1314.72 L1933.53 1314.72 L1929.38 1314.72 L1925.22 1314.72 L1921.07 1314.72 
  L1916.92 1314.72 L1912.77 1314.72 L1908.62 1314.72 L1904.46 1314.72 L1900.31 1259.54 L1896.16 1259.54 L1892.01 1259.54 L1887.86 1259.54 L1883.7 1259.54 L1879.55 1259.54 
  L1875.4 1259.54 L1871.25 1259.54 L1867.1 1259.54 L1862.94 1259.54 L1858.79 1259.54 L1854.64 1259.54 L1850.49 1259.54 L1846.34 1259.54 L1842.18 1259.54 L1838.03 1259.54 
  L1833.88 1251.71 L1829.73 1251.71 L1825.58 1251.71 L1821.42 1251.71 L1817.27 1251.71 L1813.12 1251.71 L1808.97 1251.71 L1804.82 1251.71 L1800.66 1251.71 L1796.51 1251.71 
  L1792.36 1251.71 L1788.21 1251.71 L1784.06 1251.71 L1779.9 1251.71 L1775.75 1251.71 L1771.6 1100.61 L1767.45 1100.61 L1763.3 1100.61 L1759.14 1100.61 L1754.99 1100.61 
  L1750.84 1100.61 L1746.69 1100.61 L1742.54 1100.61 L1738.38 1100.61 L1734.23 1100.61 L1730.08 1100.61 L1725.93 1100.61 L1721.78 1100.61 L1717.62 1100.61 L1713.47 1100.61 
  L1709.32 1100.61 L1705.17 1058.93 L1701.02 1058.93 L1696.86 1058.93 L1692.71 1058.93 L1688.56 1058.93 L1684.41 1058.93 L1680.26 1058.93 L1676.1 1058.93 L1671.95 1058.93 
  L1667.8 1058.93 L1663.65 1058.93 L1659.5 1058.93 L1655.34 1058.93 L1651.19 1058.93 L1647.04 1058.93 L1642.89 1035.5 L1638.74 1035.5 L1634.58 1035.5 L1630.43 1035.5 
  L1626.28 1035.5 L1622.13 1035.5 L1617.98 1035.5 L1613.82 1035.5 L1609.67 1035.5 L1605.52 1035.5 L1601.37 1035.5 L1597.22 1035.5 L1593.06 1035.5 L1588.91 1035.5 
  L1584.76 1035.5 L1580.61 1035.5 L1576.46 1054.88 L1572.3 1054.88 L1568.15 1054.88 L1564 1054.88 L1559.85 1054.88 L1555.7 1054.88 L1551.54 1054.88 L1547.39 1054.88 
  L1543.24 1054.88 L1539.09 1054.88 L1534.94 1054.88 L1530.78 1054.88 L1526.63 1054.88 L1522.48 1054.88 L1518.33 1054.88 L1514.18 1054.88 L1510.02 529.043 L1505.87 529.043 
  L1501.72 529.043 L1497.57 529.043 L1493.42 529.043 L1489.26 529.043 L1485.11 529.043 L1480.96 529.043 L1476.81 529.043 L1472.66 529.043 L1468.5 529.043 L1464.35 529.043 
  L1460.2 529.043 L1456.05 529.043 L1451.9 529.043 L1447.74 556.566 L1443.59 556.566 L1439.44 556.566 L1435.29 556.566 L1431.14 556.566 L1426.98 556.566 L1422.83 556.566 
  L1418.68 556.566 L1414.53 556.566 L1410.38 556.566 L1406.22 556.566 L1402.07 556.566 L1397.92 556.566 L1393.77 556.566 L1389.62 556.566 L1385.46 556.566 L1381.31 546.385 
  L1377.16 546.385 L1373.01 546.385 L1368.86 546.385 L1364.71 546.385 L1360.55 546.385 L1356.4 546.385 L1352.25 546.385 L1348.1 546.385 L1343.95 546.385 L1339.79 546.385 
  L1335.64 546.385 L1331.49 546.385 L1327.34 546.385 L1323.19 546.385 L1319.03 726.742 L1314.88 726.742 L1310.73 726.742 L1306.58 726.742 L1302.43 726.742 L1298.27 726.742 
  L1294.12 726.742 L1289.97 726.742 L1285.82 726.742 L1281.67 726.742 L1277.51 726.742 L1273.36 726.742 L1269.21 726.742 L1265.06 726.742 L1260.91 726.742 L1256.75 726.742 
  L1252.6 1079.14 L1248.45 1079.14 L1244.3 1079.14 L1240.15 1079.14 L1235.99 1079.14 L1231.84 1079.14 L1227.69 1079.14 L1223.54 1079.14 L1219.39 1079.14 L1215.23 1079.14 
  L1211.08 1079.14 L1206.93 1079.14 L1202.78 1079.14 L1198.63 1079.14 L1194.47 1079.14 L1190.32 1079.14 L1186.17 1129.89 L1182.02 1129.89 L1177.87 1129.89 L1173.71 1129.89 
  L1169.56 1129.89 L1165.41 1129.89 L1161.26 1129.89 L1157.11 1129.89 L1152.95 1129.89 L1148.8 1129.89 L1144.65 1129.89 L1140.5 1129.89 L1136.35 1129.89 L1132.19 1129.89 
  L1128.04 1129.89 L1123.89 1184.54 L1119.74 1184.54 L1115.59 1184.54 L1111.43 1184.54 L1107.28 1184.54 L1103.13 1184.54 L1098.98 1184.54 L1094.83 1184.54 L1090.67 1184.54 
  L1086.52 1184.54 L1082.37 1184.54 L1078.22 1184.54 L1074.07 1184.54 L1069.91 1184.54 L1065.76 1184.54 L1061.61 1184.54 L1057.46 1183.18 L1053.31 1183.18 L1049.15 1183.18 
  L1045 1183.18 L1040.85 1183.18 L1036.7 1183.18 L1032.55 1183.18 L1028.39 1183.18 L1024.24 1183.18 L1020.09 1183.18 L1015.94 1183.18 L1011.79 1183.18 L1007.63 1183.18 
  L1003.48 1183.18 L999.329 1183.18 L995.177 1301.44 L991.025 1301.44 L986.873 1301.44 L982.721 1301.44 L978.569 1301.44 L974.417 1301.44 L970.265 1301.44 L966.113 1301.44 
  L961.961 1301.44 L957.809 1301.44 L953.657 1301.44 L949.505 1301.44 L945.353 1301.44 L941.201 1301.44 L937.049 1301.44 L932.897 1301.44 L928.745 1301.97 L924.593 1301.97 
  L920.441 1301.97 L916.289 1301.97 L912.137 1301.97 L907.985 1301.97 L903.833 1301.97 L899.681 1301.97 L895.529 1301.97 L891.377 1301.97 L887.225 1301.97 L883.073 1301.97 
  L878.921 1301.97 L874.769 1301.97 L870.617 1301.97 L866.465 1301.97 L862.313 1283.49 L858.161 1283.49 L854.009 1283.49 L849.857 1283.49 L845.705 1283.49 L841.553 1283.49 
  L837.401 1283.49 L833.249 1283.49 L829.097 1283.49 L824.945 1283.49 L820.793 1283.49 L816.641 1283.49 L812.489 1283.49 L808.337 1283.49 L804.185 1283.49 L800.033 1264.73 
  L795.881 1264.73 L791.729 1264.73 L787.577 1264.73 L783.425 1264.73 L779.273 1264.73 L775.121 1264.73 L770.969 1264.73 L766.817 1264.73 L762.665 1264.73 L758.513 1264.73 
  L754.361 1264.73 L750.209 1264.73 L746.057 1264.73 L741.905 1264.73 L737.753 1264.73 L733.601 595.104 L729.449 595.104 L725.297 595.104 L721.145 595.104 L716.993 595.104 
  L712.841 595.104 L708.689 595.104 L704.537 595.104 L700.385 595.104 L696.233 595.104 L692.081 595.104 L687.929 595.104 L683.777 595.104 L679.625 595.104 L675.473 595.104 
  L671.321 759.455 L667.169 759.455 L663.017 759.455 L658.865 759.455 L654.713 759.455 L650.561 759.455 L646.409 759.455 L642.257 759.455 L638.105 759.455 L633.953 759.455 
  L629.801 759.455 L625.649 759.455 L621.497 759.455 L617.345 759.455 L613.193 759.455 L609.041 759.455 L604.889 1150.15 L600.737 1150.15 L596.585 1150.15 L592.433 1150.15 
  L588.281 1150.15 L584.129 1150.15 L579.977 1150.15 L575.825 1150.15 L571.673 1150.15 L567.521 1150.15 L563.369 1150.15 L559.217 1150.15 L555.065 1150.15 L550.913 1150.15 
  L546.761 1150.15 L542.609 1150.15 L538.457 1156.78 L534.305 1156.78 L530.153 1156.78 L526.001 1156.78 L521.849 1156.78 L517.697 1156.78 L513.545 1156.78 L509.393 1156.78 
  L505.241 1156.78 L501.089 1156.78 L496.937 1156.78 L492.785 1156.78 L488.633 1156.78 L484.481 1156.78 L480.329 1156.78 L476.177 1310.06 L472.026 1310.06 L467.874 1310.06 
  L463.722 1310.06 L459.57 1310.06 L455.418 1310.06 L451.266 1310.06 L447.114 1310.06 L442.962 1310.06 L438.81 1310.06 L434.658 1310.06 L430.506 1310.06 L426.354 1310.06 
  L422.202 1310.06 L418.05 1310.06 L413.898 1310.06 L409.746 1309.05 L405.594 1309.05 L401.442 1309.05 L397.29 1309.05 L393.138 1309.05 L388.986 1309.05 L384.834 1309.05 
  L380.682 1309.05 L376.53 1309.05 L372.378 1309.05 L368.226 1309.05 L364.074 1309.05 L359.922 1309.05 L355.77 1309.05 L351.618 1309.05 L347.466 1308.12 L343.314 1308.12 
  L339.162 1308.12 L335.01 1308.12 L330.858 1308.12 L326.706 1308.12 L322.554 1308.12 L318.402 1308.12 L314.25 1308.12 L310.098 1308.12 L305.946 1308.12 L301.794 1308.12 
  L297.642 1308.12 L293.49 1308.12 L289.338 1308.12 L285.186 1308.12 L281.034 1309.65 L276.882 1309.65 L272.73 1309.65 L268.578 1309.65 L264.426 1309.65 L260.274 1309.65 
  L256.122 1309.65 L251.97 1309.65 L247.818 1309.65 L243.666 1309.65 L239.514 1309.65 L235.362 1309.65 L231.21 1309.65 L227.058 1309.65 L222.906 1309.65 L218.754 1309.65 
   Z
  " fill="#000000" fill-rule="evenodd" fill-opacity="0.5"/>
<polyline clip-path="url(#clip492)" style="stroke:#000000; stroke-linecap:round; stroke-linejoin:round; stroke-width:4; stroke-opacity:1; fill:none" points="
  218.754,1311.36 222.906,1311.36 227.058,1311.36 231.21,1311.36 235.362,1311.36 239.514,1311.36 243.666,1311.36 247.818,1311.36 251.97,1311.36 256.122,1311.36 
  260.274,1311.36 264.426,1311.36 268.578,1311.36 272.73,1311.36 276.882,1311.36 281.034,1311.36 285.186,1309.94 289.338,1309.94 293.49,1309.94 297.642,1309.94 
  301.794,1309.94 305.946,1309.94 310.098,1309.94 314.25,1309.94 318.402,1309.94 322.554,1309.94 326.706,1309.94 330.858,1309.94 335.01,1309.94 339.162,1309.94 
  343.314,1309.94 347.466,1309.94 351.618,1310.95 355.77,1310.95 359.922,1310.95 364.074,1310.95 368.226,1310.95 372.378,1310.95 376.53,1310.95 380.682,1310.95 
  384.834,1310.95 388.986,1310.95 393.138,1310.95 397.29,1310.95 401.442,1310.95 405.594,1310.95 409.746,1310.95 413.898,1311.82 418.05,1311.82 422.202,1311.82 
  426.354,1311.82 430.506,1311.82 434.658,1311.82 438.81,1311.82 442.962,1311.82 447.114,1311.82 451.266,1311.82 455.418,1311.82 459.57,1311.82 463.722,1311.82 
  467.874,1311.82 472.026,1311.82 476.177,1311.82 480.329,1161.4 484.481,1161.4 488.633,1161.4 492.785,1161.4 496.937,1161.4 501.089,1161.4 505.241,1161.4 
  509.393,1161.4 513.545,1161.4 517.697,1161.4 521.849,1161.4 526.001,1161.4 530.153,1161.4 534.305,1161.4 538.457,1161.4 542.609,1155.59 546.761,1155.59 
  550.913,1155.59 555.065,1155.59 559.217,1155.59 563.369,1155.59 567.521,1155.59 571.673,1155.59 575.825,1155.59 579.977,1155.59 584.129,1155.59 588.281,1155.59 
  592.433,1155.59 596.585,1155.59 600.737,1155.59 604.889,1155.59 609.041,773.416 613.193,773.416 617.345,773.416 621.497,773.416 625.649,773.416 629.801,773.416 
  633.953,773.416 638.105,773.416 642.257,773.416 646.409,773.416 650.561,773.416 654.713,773.416 658.865,773.416 663.017,773.416 667.169,773.416 671.321,773.416 
  675.473,615.828 679.625,615.828 683.777,615.828 687.929,615.828 692.081,615.828 696.233,615.828 700.385,615.828 704.537,615.828 708.689,615.828 712.841,615.828 
  716.993,615.828 721.145,615.828 725.297,615.828 729.449,615.828 733.601,615.828 737.753,1267.46 741.905,1267.46 746.057,1267.46 750.209,1267.46 754.361,1267.46 
  758.513,1267.46 762.665,1267.46 766.817,1267.46 770.969,1267.46 775.121,1267.46 779.273,1267.46 783.425,1267.46 787.577,1267.46 791.729,1267.46 795.881,1267.46 
  800.033,1267.46 804.185,1285.68 808.337,1285.68 812.489,1285.68 816.641,1285.68 820.793,1285.68 824.945,1285.68 829.097,1285.68 833.249,1285.68 837.401,1285.68 
  841.553,1285.68 845.705,1285.68 849.857,1285.68 854.009,1285.68 858.161,1285.68 862.313,1285.68 866.465,1303.73 870.617,1303.73 874.769,1303.73 878.921,1303.73 
  883.073,1303.73 887.225,1303.73 891.377,1303.73 895.529,1303.73 899.681,1303.73 903.833,1303.73 907.985,1303.73 912.137,1303.73 916.289,1303.73 920.441,1303.73 
  924.593,1303.73 928.745,1303.73 932.897,1303.32 937.049,1303.32 941.201,1303.32 945.353,1303.32 949.505,1303.32 953.657,1303.32 957.809,1303.32 961.961,1303.32 
  966.113,1303.32 970.265,1303.32 974.417,1303.32 978.569,1303.32 982.721,1303.32 986.873,1303.32 991.025,1303.32 995.177,1303.32 999.329,1187.32 1003.48,1187.32 
  1007.63,1187.32 1011.79,1187.32 1015.94,1187.32 1020.09,1187.32 1024.24,1187.32 1028.39,1187.32 1032.55,1187.32 1036.7,1187.32 1040.85,1187.32 1045,1187.32 
  1049.15,1187.32 1053.31,1187.32 1057.46,1187.32 1061.61,1188.7 1065.76,1188.7 1069.91,1188.7 1074.07,1188.7 1078.22,1188.7 1082.37,1188.7 1086.52,1188.7 
  1090.67,1188.7 1094.83,1188.7 1098.98,1188.7 1103.13,1188.7 1107.28,1188.7 1111.43,1188.7 1115.59,1188.7 1119.74,1188.7 1123.89,1188.7 1128.04,1135.33 
  1132.19,1135.33 1136.35,1135.33 1140.5,1135.33 1144.65,1135.33 1148.8,1135.33 1152.95,1135.33 1157.11,1135.33 1161.26,1135.33 1165.41,1135.33 1169.56,1135.33 
  1173.71,1135.33 1177.87,1135.33 1182.02,1135.33 1186.17,1135.33 1190.32,1086.14 1194.47,1086.14 1198.63,1086.14 1202.78,1086.14 1206.93,1086.14 1211.08,1086.14 
  1215.23,1086.14 1219.39,1086.14 1223.54,1086.14 1227.69,1086.14 1231.84,1086.14 1235.99,1086.14 1240.15,1086.14 1244.3,1086.14 1248.45,1086.14 1252.6,1086.14 
  1256.75,741.272 1260.91,741.272 1265.06,741.272 1269.21,741.272 1273.36,741.272 1277.51,741.272 1281.67,741.272 1285.82,741.272 1289.97,741.272 1294.12,741.272 
  1298.27,741.272 1302.43,741.272 1306.58,741.272 1310.73,741.272 1314.88,741.272 1319.03,741.272 1323.19,567.572 1327.34,567.572 1331.49,567.572 1335.64,567.572 
  1339.79,567.572 1343.95,567.572 1348.1,567.572 1352.25,567.572 1356.4,567.572 1360.55,567.572 1364.71,567.572 1368.86,567.572 1373.01,567.572 1377.16,567.572 
  1381.31,567.572 1385.46,575.435 1389.62,575.435 1393.77,575.435 1397.92,575.435 1402.07,575.435 1406.22,575.435 1410.38,575.435 1414.53,575.435 1418.68,575.435 
  1422.83,575.435 1426.98,575.435 1431.14,575.435 1435.29,575.435 1439.44,575.435 1443.59,575.435 1447.74,575.435 1451.9,549.716 1456.05,549.716 1460.2,549.716 
  1464.35,549.716 1468.5,549.716 1472.66,549.716 1476.81,549.716 1480.96,549.716 1485.11,549.716 1489.26,549.716 1493.42,549.716 1497.57,549.716 1501.72,549.716 
  1505.87,549.716 1510.02,549.716 1514.18,1062.04 1518.33,1062.04 1522.48,1062.04 1526.63,1062.04 1530.78,1062.04 1534.94,1062.04 1539.09,1062.04 1543.24,1062.04 
  1547.39,1062.04 1551.54,1062.04 1555.7,1062.04 1559.85,1062.04 1564,1062.04 1568.15,1062.04 1572.3,1062.04 1576.46,1062.04 1580.61,1043.5 1584.76,1043.5 
  1588.91,1043.5 1593.06,1043.5 1597.22,1043.5 1601.37,1043.5 1605.52,1043.5 1609.67,1043.5 1613.82,1043.5 1617.98,1043.5 1622.13,1043.5 1626.28,1043.5 
  1630.43,1043.5 1634.58,1043.5 1638.74,1043.5 1642.89,1043.5 1647.04,1065.98 1651.19,1065.98 1655.34,1065.98 1659.5,1065.98 1663.65,1065.98 1667.8,1065.98 
  1671.95,1065.98 1676.1,1065.98 1680.26,1065.98 1684.41,1065.98 1688.56,1065.98 1692.71,1065.98 1696.86,1065.98 1701.02,1065.98 1705.17,1065.98 1709.32,1106.71 
  1713.47,1106.71 1717.62,1106.71 1721.78,1106.71 1725.93,1106.71 1730.08,1106.71 1734.23,1106.71 1738.38,1106.71 1742.54,1106.71 1746.69,1106.71 1750.84,1106.71 
  1754.99,1106.71 1759.14,1106.71 1763.3,1106.71 1767.45,1106.71 1771.6,1106.71 1775.75,1255.1 1779.9,1255.1 1784.06,1255.1 1788.21,1255.1 1792.36,1255.1 
  1796.51,1255.1 1800.66,1255.1 1804.82,1255.1 1808.97,1255.1 1813.12,1255.1 1817.27,1255.1 1821.42,1255.1 1825.58,1255.1 1829.73,1255.1 1833.88,1255.1 
  1838.03,1262.63 1842.18,1262.63 1846.34,1262.63 1850.49,1262.63 1854.64,1262.63 1858.79,1262.63 1862.94,1262.63 1867.1,1262.63 1871.25,1262.63 1875.4,1262.63 
  1879.55,1262.63 1883.7,1262.63 1887.86,1262.63 1892.01,1262.63 1896.16,1262.63 1900.31,1262.63 1904.46,1316.29 1908.62,1316.29 1912.77,1316.29 1916.92,1316.29 
  1921.07,1316.29 1925.22,1316.29 1929.38,1316.29 1933.53,1316.29 1937.68,1316.29 1941.83,1316.29 1945.98,1316.29 1950.14,1316.29 1954.29,1316.29 1958.44,1316.29 
  1962.59,1316.29 1966.74,1316.29 1970.9,1315.52 1975.05,1315.52 1979.2,1315.52 1983.35,1315.52 1987.5,1315.52 1991.66,1315.52 1995.81,1315.52 1999.96,1315.52 
  2004.11,1315.52 2008.26,1315.52 2012.42,1315.52 2016.57,1315.52 2020.72,1315.52 2024.87,1315.52 2029.02,1315.52 2033.18,1356.66 2037.33,1356.66 2041.48,1356.66 
  2045.63,1356.66 2049.78,1356.66 2053.94,1356.66 2058.09,1356.66 2062.24,1356.66 2066.39,1356.66 2070.54,1356.66 2074.7,1356.66 2078.85,1356.66 2083,1356.66 
  2087.15,1356.66 2091.3,1356.66 2095.46,1356.66 2099.61,1356.14 2103.76,1356.14 2107.91,1356.14 2112.06,1356.14 2116.22,1356.14 2120.37,1356.14 2124.52,1356.14 
  2128.67,1356.14 2132.82,1356.14 2136.98,1356.14 2141.13,1356.14 2145.28,1356.14 2149.43,1356.14 2153.58,1356.14 2157.74,1356.14 2161.89,1357.06 2166.04,1357.06 
  2170.19,1357.06 2174.34,1357.06 2178.5,1357.06 2182.65,1357.06 2186.8,1357.06 2190.95,1357.06 2195.1,1357.06 2199.26,1357.06 2203.41,1357.06 2207.56,1357.06 
  2211.71,1357.06 2215.86,1357.06 2220.02,1357.06 2224.17,1357.06 2228.32,1356.95 2232.47,1356.95 2236.62,1356.95 2240.78,1356.95 2244.93,1356.95 2249.08,1356.95 
  2253.23,1356.95 2257.38,1356.95 2261.54,1356.95 2265.69,1356.95 2269.84,1356.95 2273.99,1356.95 2278.14,1356.95 2282.3,1356.95 2286.45,1356.95 2290.6,1356.95 
  
  "/>
<polyline clip-path="url(#clip492)" style="stroke:#808080; stroke-linecap:round; stroke-linejoin:round; stroke-width:4; stroke-opacity:1; fill:none" stroke-dasharray="16, 10" points="
  218.754,1445.72 222.906,1445.72 227.058,1445.72 231.21,1445.72 235.362,1445.72 239.514,1445.72 243.666,1445.72 247.818,1445.72 251.97,1445.72 256.122,1445.72 
  260.274,1445.72 264.426,1445.72 268.578,1445.72 272.73,1445.72 276.882,1445.72 281.034,1445.72 285.186,1445.72 289.338,1445.72 293.49,1445.72 297.642,1445.72 
  301.794,1445.72 305.946,1445.72 310.098,1445.72 314.25,1445.72 318.402,1445.72 322.554,1445.72 326.706,1445.72 330.858,1445.72 335.01,1445.72 339.162,1445.72 
  343.314,1445.72 347.466,1445.72 351.618,1445.72 355.77,1445.72 359.922,1445.72 364.074,1445.72 368.226,1445.72 372.378,1445.72 376.53,1445.72 380.682,1445.72 
  384.834,1445.72 388.986,1445.72 393.138,1445.72 397.29,1445.72 401.442,1445.72 405.594,1445.72 409.746,1445.72 413.898,1445.72 418.05,1445.71 422.202,1445.71 
  426.354,1445.71 430.506,1445.71 434.658,1445.71 438.81,1445.71 442.962,1445.71 447.114,1445.71 451.266,1445.71 455.418,1445.71 459.57,1445.71 463.722,1445.71 
  467.874,1445.71 472.026,1445.71 476.177,1445.71 480.329,1445.71 484.481,1445.7 488.633,1445.7 492.785,1445.69 496.937,1445.68 501.089,1445.65 505.241,1445.62 
  509.393,1445.57 513.545,1445.48 517.697,1445.36 521.849,1445.17 526.001,1444.9 530.153,1444.5 534.305,1443.92 538.457,1443.09 542.609,1441.92 546.761,1440.28 
  550.913,1438.03 555.065,1434.96 559.217,1430.83 563.369,1425.35 567.521,1418.17 571.673,1408.86 575.825,1396.97 579.977,1381.95 584.129,1363.25 588.281,1340.26 
  592.433,1312.37 596.585,1279 600.737,1239.62 604.889,1193.8 609.041,1141.24 613.193,1081.86 617.345,1015.78 621.497,943.404 625.649,865.439 629.801,782.904 
  633.953,697.136 638.105,609.769 642.257,522.695 646.409,438.002 650.561,357.899 654.713,284.623 658.865,220.336 663.017,167.019 667.169,126.374 671.321,99.7311 
  675.473,87.9763 679.625,91.5041 683.777,110.194 687.929,143.419 692.081,190.078 696.233,248.658 700.385,317.315 704.537,393.969 708.689,476.412 712.841,562.407 
  716.993,649.789 721.145,736.551 725.297,820.917 729.449,901.385 733.601,976.764 737.753,1046.18 741.905,1109.08 746.057,1165.17 750.209,1214.45 754.361,1257.11 
  758.513,1293.5 762.665,1324.11 766.817,1349.49 770.969,1370.24 775.121,1386.98 779.273,1400.29 783.425,1410.72 787.577,1418.76 791.729,1424.88 795.881,1429.44 
  800.033,1432.78 804.185,1435.17 808.337,1436.81 812.489,1437.9 816.641,1438.56 820.793,1438.91 824.945,1439.01 829.097,1438.94 833.249,1438.74 837.401,1438.44 
  841.553,1438.05 845.705,1437.6 849.857,1437.09 854.009,1436.54 858.161,1435.93 862.313,1435.29 866.465,1434.6 870.617,1433.87 874.769,1433.09 878.921,1432.27 
  883.073,1431.4 887.225,1430.48 891.377,1429.51 895.529,1428.48 899.681,1427.4 903.833,1426.26 907.985,1425.05 912.137,1423.78 916.289,1422.45 920.441,1421.04 
  924.593,1419.56 928.745,1418 932.897,1416.36 937.049,1414.64 941.201,1412.84 945.353,1410.95 949.505,1408.96 953.657,1406.88 957.809,1404.7 961.961,1402.41 
  966.113,1400.02 970.265,1397.52 974.417,1394.9 978.569,1392.17 982.721,1389.31 986.873,1386.33 991.025,1383.22 995.177,1379.98 999.329,1376.6 1003.48,1373.08 
  1007.63,1369.42 1011.79,1365.6 1015.94,1361.64 1020.09,1357.51 1024.24,1353.23 1028.39,1348.78 1032.55,1344.17 1036.7,1339.38 1040.85,1334.42 1045,1329.28 
  1049.15,1323.95 1053.31,1318.44 1057.46,1312.74 1061.61,1306.85 1065.76,1300.76 1069.91,1294.48 1074.07,1287.99 1078.22,1281.3 1082.37,1274.4 1086.52,1267.3 
  1090.67,1259.98 1094.83,1252.45 1098.98,1244.71 1103.13,1236.75 1107.28,1228.58 1111.43,1220.18 1115.59,1211.57 1119.74,1202.74 1123.89,1193.69 1128.04,1184.42 
  1132.19,1174.93 1136.35,1165.23 1140.5,1155.3 1144.65,1145.17 1148.8,1134.82 1152.95,1124.25 1157.11,1113.48 1161.26,1102.51 1165.41,1091.33 1169.56,1079.95 
  1173.71,1068.38 1177.87,1056.62 1182.02,1044.67 1186.17,1032.55 1190.32,1020.25 1194.47,1007.78 1198.63,995.145 1202.78,982.359 1206.93,969.426 1211.08,956.353 
  1215.23,943.148 1219.39,929.821 1223.54,916.379 1227.69,902.832 1231.84,889.191 1235.99,875.464 1240.15,861.663 1244.3,847.798 1248.45,833.881 1252.6,819.923 
  1256.75,805.936 1260.91,791.932 1265.06,777.923 1269.21,763.922 1273.36,749.942 1277.51,735.997 1281.67,722.099 1285.82,708.263 1289.97,694.502 1294.12,680.829 
  1298.27,667.26 1302.43,653.809 1306.58,640.489 1310.73,627.315 1314.88,614.301 1319.03,601.462 1323.19,588.812 1327.34,576.366 1331.49,564.138 1335.64,552.142 
  1339.79,540.392 1343.95,528.902 1348.1,517.686 1352.25,506.757 1356.4,496.129 1360.55,485.814 1364.71,475.826 1368.86,466.178 1373.01,456.88 1377.16,447.945 
  1381.31,439.384 1385.46,431.209 1389.62,423.429 1393.77,416.056 1397.92,409.098 1402.07,402.565 1406.22,396.464 1410.38,390.806 1414.53,385.596 1418.68,380.842 
  1422.83,376.55 1426.98,372.725 1431.14,369.374 1435.29,366.501 1439.44,364.108 1443.59,362.201 1447.74,360.78 1451.9,359.849 1456.05,359.408 1460.2,359.458 
  1464.35,359.999 1468.5,361.031 1472.66,362.551 1476.81,364.558 1480.96,367.048 1485.11,370.02 1489.26,373.468 1493.42,377.388 1497.57,381.775 1501.72,386.623 
  1505.87,391.925 1510.02,397.674 1514.18,403.864 1518.33,410.484 1522.48,417.528 1526.63,424.985 1530.78,432.846 1534.94,441.101 1539.09,449.739 1543.24,458.749 
  1547.39,468.119 1551.54,477.839 1555.7,487.894 1559.85,498.274 1564,508.964 1568.15,519.953 1572.3,531.226 1576.46,542.77 1580.61,554.572 1584.76,566.616 
  1588.91,578.89 1593.06,591.379 1597.22,604.069 1601.37,616.944 1605.52,629.992 1609.67,643.197 1613.82,656.545 1617.98,670.022 1622.13,683.613 1626.28,697.305 
  1630.43,711.082 1634.58,724.932 1638.74,738.841 1642.89,752.794 1647.04,766.779 1651.19,780.783 1655.34,794.792 1659.5,808.794 1663.65,822.776 1667.8,836.726 
  1671.95,850.634 1676.1,864.486 1680.26,878.273 1684.41,891.983 1688.56,905.606 1692.71,919.132 1696.86,932.551 1701.02,945.855 1705.17,959.033 1709.32,972.078 
  1713.47,984.982 1717.62,997.737 1721.78,1010.34 1725.93,1022.77 1730.08,1035.04 1734.23,1047.13 1738.38,1059.04 1742.54,1070.76 1746.69,1082.29 1750.84,1093.63 
  1754.99,1104.77 1759.14,1115.7 1763.3,1126.43 1767.45,1136.95 1771.6,1147.25 1775.75,1157.35 1779.9,1167.23 1784.06,1176.89 1788.21,1186.33 1792.36,1195.55 
  1796.51,1204.56 1800.66,1213.35 1804.82,1221.91 1808.97,1230.26 1813.12,1238.4 1817.27,1246.31 1821.42,1254.01 1825.58,1261.49 1829.73,1268.77 1833.88,1275.83 
  1838.03,1282.68 1842.18,1289.33 1846.34,1295.78 1850.49,1302.02 1854.64,1308.07 1858.79,1313.92 1862.94,1319.58 1867.1,1325.05 1871.25,1330.34 1875.4,1335.44 
  1879.55,1340.37 1883.7,1345.12 1887.86,1349.7 1892.01,1354.12 1896.16,1358.37 1900.31,1362.46 1904.46,1366.39 1908.62,1370.18 1912.77,1373.81 1916.92,1377.3 
  1921.07,1380.65 1925.22,1383.87 1929.38,1386.95 1933.53,1389.91 1937.68,1392.74 1941.83,1395.45 1945.98,1398.04 1950.14,1400.52 1954.29,1402.89 1958.44,1405.15 
  1962.59,1407.31 1966.74,1409.37 1970.9,1411.34 1975.05,1413.22 1979.2,1415 1983.35,1416.7 1987.5,1418.32 1991.66,1419.87 1995.81,1421.33 1999.96,1422.72 
  2004.11,1424.05 2008.26,1425.3 2012.42,1426.5 2016.57,1427.63 2020.72,1428.7 2024.87,1429.71 2029.02,1430.67 2033.18,1431.58 2037.33,1432.45 2041.48,1433.26 
  2045.63,1434.03 2049.78,1434.76 2053.94,1435.44 2058.09,1436.09 2062.24,1436.7 2066.39,1437.28 2070.54,1437.82 2074.7,1438.33 2078.85,1438.81 2083,1439.27 
  2087.15,1439.69 2091.3,1440.09 2095.46,1440.47 2099.61,1440.82 2103.76,1441.15 2107.91,1441.46 2112.06,1441.76 2116.22,1442.03 2120.37,1442.28 2124.52,1442.52 
  2128.67,1442.75 2132.82,1442.96 2136.98,1443.15 2141.13,1443.34 2145.28,1443.51 2149.43,1443.67 2153.58,1443.82 2157.74,1443.96 2161.89,1444.09 2166.04,1444.21 
  2170.19,1444.32 2174.34,1444.42 2178.5,1444.52 2182.65,1444.61 2186.8,1444.69 2190.95,1444.77 2195.1,1444.85 2199.26,1444.91 2203.41,1444.98 2207.56,1445.03 
  2211.71,1445.09 2215.86,1445.14 2220.02,1445.18 2224.17,1445.23 2228.32,1445.26 2232.47,1445.3 2236.62,1445.33 2240.78,1445.37 2244.93,1445.39 2249.08,1445.42 
  2253.23,1445.45 2257.38,1445.47 2261.54,1445.49 2265.69,1445.51 2269.84,1445.53 2273.99,1445.54 2278.14,1445.56 2282.3,1445.57 2286.45,1445.58 2290.6,1445.59 
  
  "/>
</svg>
