<?xml version="1.0" encoding="utf-8"?>
<svg xmlns="http://www.w3.org/2000/svg" xmlns:xlink="http://www.w3.org/1999/xlink" width="400" height="200" viewBox="0 0 1600 800">
<defs>
  <clipPath id="clip200">
    <rect x="0" y="0" width="1600" height="800"/>
  </clipPath>
</defs>
<path clip-path="url(#clip200)" d="
M0 800 L1600 800 L1600 0 L0 0  Z
  " fill="#ffffff" fill-rule="evenodd" fill-opacity="1"/>
<defs>
  <clipPath id="clip201">
    <rect x="320" y="0" width="1121" height="800"/>
  </clipPath>
</defs>
<path clip-path="url(#clip200)" d="
M148.598 703.088 L1552.76 703.088 L1552.76 47.2441 L148.598 47.2441  Z
  " fill="#ffffff" fill-rule="evenodd" fill-opacity="1"/>
<defs>
  <clipPath id="clip202">
    <rect x="148" y="47" width="1405" height="657"/>
  </clipPath>
</defs>
<polyline clip-path="url(#clip202)" style="stroke:#000000; stroke-linecap:round; stroke-linejoin:round; stroke-width:2; stroke-opacity:0.1; fill:none" points="
  226.702,703.088 226.702,47.2441 
  "/>
<polyline clip-path="url(#clip202)" style="stroke:#000000; stroke-linecap:round; stroke-linejoin:round; stroke-width:2; stroke-opacity:0.1; fill:none" points="
  468.87,703.088 468.87,47.2441 
  "/>
<polyline clip-path="url(#clip202)" style="stroke:#000000; stroke-linecap:round; stroke-linejoin:round; stroke-width:2; stroke-opacity:0.1; fill:none" points="
  711.037,703.088 711.037,47.2441 
  "/>
<polyline clip-path="url(#clip202)" style="stroke:#000000; stroke-linecap:round; stroke-linejoin:round; stroke-width:2; stroke-opacity:0.1; fill:none" points="
  953.205,703.088 953.205,47.2441 
  "/>
<polyline clip-path="url(#clip202)" style="stroke:#000000; stroke-linecap:round; stroke-linejoin:round; stroke-width:2; stroke-opacity:0.1; fill:none" points="
  1195.37,703.088 1195.37,47.2441 
  "/>
<polyline clip-path="url(#clip202)" style="stroke:#000000; stroke-linecap:round; stroke-linejoin:round; stroke-width:2; stroke-opacity:0.1; fill:none" points="
  1437.54,703.088 1437.54,47.2441 
  "/>
<polyline clip-path="url(#clip200)" style="stroke:#000000; stroke-linecap:round; stroke-linejoin:round; stroke-width:4; stroke-opacity:1; fill:none" points="
  148.598,703.088 1552.76,703.088 
  "/>
<polyline clip-path="url(#clip200)" style="stroke:#000000; stroke-linecap:round; stroke-linejoin:round; stroke-width:4; stroke-opacity:1; fill:none" points="
  226.702,703.088 226.702,684.19 
  "/>
<polyline clip-path="url(#clip200)" style="stroke:#000000; stroke-linecap:round; stroke-linejoin:round; stroke-width:4; stroke-opacity:1; fill:none" points="
  468.87,703.088 468.87,684.19 
  "/>
<polyline clip-path="url(#clip200)" style="stroke:#000000; stroke-linecap:round; stroke-linejoin:round; stroke-width:4; stroke-opacity:1; fill:none" points="
  711.037,703.088 711.037,684.19 
  "/>
<polyline clip-path="url(#clip200)" style="stroke:#000000; stroke-linecap:round; stroke-linejoin:round; stroke-width:4; stroke-opacity:1; fill:none" points="
  953.205,703.088 953.205,684.19 
  "/>
<polyline clip-path="url(#clip200)" style="stroke:#000000; stroke-linecap:round; stroke-linejoin:round; stroke-width:4; stroke-opacity:1; fill:none" points="
  1195.37,703.088 1195.37,684.19 
  "/>
<polyline clip-path="url(#clip200)" style="stroke:#000000; stroke-linecap:round; stroke-linejoin:round; stroke-width:4; stroke-opacity:1; fill:none" points="
  1437.54,703.088 1437.54,684.19 
  "/>
<path clip-path="url(#clip200)" d="M196.644 742.259 L226.32 742.259 L226.32 746.194 L196.644 746.194 L196.644 742.259 Z" fill="#000000" fill-rule="evenodd" fill-opacity="1" /><path clip-path="url(#clip200)" d="M240.44 755.153 L256.76 755.153 L256.76 759.088 L234.815 759.088 L234.815 755.153 Q237.477 752.398 242.061 747.768 Q246.667 743.116 247.848 741.773 Q250.093 739.25 250.973 737.514 Q251.876 735.755 251.876 734.065 Q251.876 731.31 249.931 729.574 Q248.01 727.838 244.908 727.838 Q242.709 727.838 240.255 728.602 Q237.825 729.366 235.047 730.917 L235.047 726.195 Q237.871 725.06 240.325 724.482 Q242.778 723.903 244.815 723.903 Q250.186 723.903 253.38 726.588 Q256.575 729.273 256.575 733.764 Q256.575 735.894 255.764 737.815 Q254.977 739.713 252.871 742.306 Q252.292 742.977 249.19 746.194 Q246.089 749.389 240.44 755.153 Z" fill="#000000" fill-rule="evenodd" fill-opacity="1" /><path clip-path="url(#clip200)" d="M438.627 742.259 L468.303 742.259 L468.303 746.194 L438.627 746.194 L438.627 742.259 Z" fill="#000000" fill-rule="evenodd" fill-opacity="1" /><path clip-path="url(#clip200)" d="M479.205 755.153 L486.844 755.153 L486.844 728.787 L478.534 730.454 L478.534 726.195 L486.798 724.528 L491.474 724.528 L491.474 755.153 L499.113 755.153 L499.113 759.088 L479.205 759.088 L479.205 755.153 Z" fill="#000000" fill-rule="evenodd" fill-opacity="1" /><path clip-path="url(#clip200)" d="M711.037 727.607 Q707.426 727.607 705.598 731.171 Q703.792 734.713 703.792 741.843 Q703.792 748.949 705.598 752.514 Q707.426 756.055 711.037 756.055 Q714.672 756.055 716.477 752.514 Q718.306 748.949 718.306 741.843 Q718.306 734.713 716.477 731.171 Q714.672 727.607 711.037 727.607 M711.037 723.903 Q716.848 723.903 719.903 728.509 Q722.982 733.093 722.982 741.843 Q722.982 750.569 719.903 755.176 Q716.848 759.759 711.037 759.759 Q705.227 759.759 702.149 755.176 Q699.093 750.569 699.093 741.843 Q699.093 733.093 702.149 728.509 Q705.227 723.903 711.037 723.903 Z" fill="#000000" fill-rule="evenodd" fill-opacity="1" /><path clip-path="url(#clip200)" d="M943.587 755.153 L951.226 755.153 L951.226 728.787 L942.916 730.454 L942.916 726.195 L951.18 724.528 L955.855 724.528 L955.855 755.153 L963.494 755.153 L963.494 759.088 L943.587 759.088 L943.587 755.153 Z" fill="#000000" fill-rule="evenodd" fill-opacity="1" /><path clip-path="url(#clip200)" d="M1190.03 755.153 L1206.34 755.153 L1206.34 759.088 L1184.4 759.088 L1184.4 755.153 Q1187.06 752.398 1191.65 747.768 Q1196.25 743.116 1197.43 741.773 Q1199.68 739.25 1200.56 737.514 Q1201.46 735.755 1201.46 734.065 Q1201.46 731.31 1199.52 729.574 Q1197.59 727.838 1194.49 727.838 Q1192.29 727.838 1189.84 728.602 Q1187.41 729.366 1184.63 730.917 L1184.63 726.195 Q1187.46 725.06 1189.91 724.482 Q1192.36 723.903 1194.4 723.903 Q1199.77 723.903 1202.97 726.588 Q1206.16 729.273 1206.16 733.764 Q1206.16 735.894 1205.35 737.815 Q1204.56 739.713 1202.46 742.306 Q1201.88 742.977 1198.78 746.194 Q1195.67 749.389 1190.03 755.153 Z" fill="#000000" fill-rule="evenodd" fill-opacity="1" /><path clip-path="url(#clip200)" d="M1441.79 740.454 Q1445.14 741.171 1447.02 743.44 Q1448.92 745.708 1448.92 749.042 Q1448.92 754.157 1445.4 756.958 Q1441.88 759.759 1435.4 759.759 Q1433.22 759.759 1430.91 759.319 Q1428.62 758.903 1426.16 758.046 L1426.16 753.532 Q1428.11 754.667 1430.42 755.245 Q1432.74 755.824 1435.26 755.824 Q1439.66 755.824 1441.95 754.088 Q1444.26 752.352 1444.26 749.042 Q1444.26 745.986 1442.11 744.273 Q1439.98 742.537 1436.16 742.537 L1432.14 742.537 L1432.14 738.694 L1436.35 738.694 Q1439.8 738.694 1441.63 737.329 Q1443.45 735.94 1443.45 733.347 Q1443.45 730.685 1441.56 729.273 Q1439.68 727.838 1436.16 727.838 Q1434.24 727.838 1432.04 728.255 Q1429.84 728.671 1427.2 729.551 L1427.2 725.384 Q1429.87 724.644 1432.18 724.273 Q1434.52 723.903 1436.58 723.903 Q1441.9 723.903 1445.01 726.333 Q1448.11 728.741 1448.11 732.861 Q1448.11 735.732 1446.46 737.722 Q1444.82 739.69 1441.79 740.454 Z" fill="#000000" fill-rule="evenodd" fill-opacity="1" /><polyline clip-path="url(#clip202)" style="stroke:#000000; stroke-linecap:round; stroke-linejoin:round; stroke-width:2; stroke-opacity:0.1; fill:none" points="
  148.598,684.526 1552.76,684.526 
  "/>
<polyline clip-path="url(#clip202)" style="stroke:#000000; stroke-linecap:round; stroke-linejoin:round; stroke-width:2; stroke-opacity:0.1; fill:none" points="
  148.598,529.38 1552.76,529.38 
  "/>
<polyline clip-path="url(#clip202)" style="stroke:#000000; stroke-linecap:round; stroke-linejoin:round; stroke-width:2; stroke-opacity:0.1; fill:none" points="
  148.598,374.234 1552.76,374.234 
  "/>
<polyline clip-path="url(#clip202)" style="stroke:#000000; stroke-linecap:round; stroke-linejoin:round; stroke-width:2; stroke-opacity:0.1; fill:none" points="
  148.598,219.089 1552.76,219.089 
  "/>
<polyline clip-path="url(#clip202)" style="stroke:#000000; stroke-linecap:round; stroke-linejoin:round; stroke-width:2; stroke-opacity:0.1; fill:none" points="
  148.598,63.9426 1552.76,63.9426 
  "/>
<polyline clip-path="url(#clip200)" style="stroke:#000000; stroke-linecap:round; stroke-linejoin:round; stroke-width:4; stroke-opacity:1; fill:none" points="
  148.598,703.088 148.598,47.2441 
  "/>
<polyline clip-path="url(#clip200)" style="stroke:#000000; stroke-linecap:round; stroke-linejoin:round; stroke-width:4; stroke-opacity:1; fill:none" points="
  148.598,684.526 167.496,684.526 
  "/>
<polyline clip-path="url(#clip200)" style="stroke:#000000; stroke-linecap:round; stroke-linejoin:round; stroke-width:4; stroke-opacity:1; fill:none" points="
  148.598,529.38 167.496,529.38 
  "/>
<polyline clip-path="url(#clip200)" style="stroke:#000000; stroke-linecap:round; stroke-linejoin:round; stroke-width:4; stroke-opacity:1; fill:none" points="
  148.598,374.234 167.496,374.234 
  "/>
<polyline clip-path="url(#clip200)" style="stroke:#000000; stroke-linecap:round; stroke-linejoin:round; stroke-width:4; stroke-opacity:1; fill:none" points="
  148.598,219.089 167.496,219.089 
  "/>
<polyline clip-path="url(#clip200)" style="stroke:#000000; stroke-linecap:round; stroke-linejoin:round; stroke-width:4; stroke-opacity:1; fill:none" points="
  148.598,63.9426 167.496,63.9426 
  "/>
<path clip-path="url(#clip200)" d="M67.4226 670.325 Q63.8115 670.325 61.9828 673.89 Q60.1773 677.431 60.1773 684.561 Q60.1773 691.667 61.9828 695.232 Q63.8115 698.774 67.4226 698.774 Q71.0569 698.774 72.8624 695.232 Q74.6911 691.667 74.6911 684.561 Q74.6911 677.431 72.8624 673.89 Q71.0569 670.325 67.4226 670.325 M67.4226 666.621 Q73.2328 666.621 76.2883 671.228 Q79.367 675.811 79.367 684.561 Q79.367 693.288 76.2883 697.894 Q73.2328 702.478 67.4226 702.478 Q61.6125 702.478 58.5338 697.894 Q55.4782 693.288 55.4782 684.561 Q55.4782 675.811 58.5338 671.228 Q61.6125 666.621 67.4226 666.621 Z" fill="#000000" fill-rule="evenodd" fill-opacity="1" /><path clip-path="url(#clip200)" d="M87.5845 695.927 L92.4688 695.927 L92.4688 701.806 L87.5845 701.806 L87.5845 695.927 Z" fill="#000000" fill-rule="evenodd" fill-opacity="1" /><path clip-path="url(#clip200)" d="M112.654 670.325 Q109.043 670.325 107.214 673.89 Q105.409 677.431 105.409 684.561 Q105.409 691.667 107.214 695.232 Q109.043 698.774 112.654 698.774 Q116.288 698.774 118.094 695.232 Q119.922 691.667 119.922 684.561 Q119.922 677.431 118.094 673.89 Q116.288 670.325 112.654 670.325 M112.654 666.621 Q118.464 666.621 121.52 671.228 Q124.598 675.811 124.598 684.561 Q124.598 693.288 121.52 697.894 Q118.464 702.478 112.654 702.478 Q106.844 702.478 103.765 697.894 Q100.709 693.288 100.709 684.561 Q100.709 675.811 103.765 671.228 Q106.844 666.621 112.654 666.621 Z" fill="#000000" fill-rule="evenodd" fill-opacity="1" /><path clip-path="url(#clip200)" d="M69.0198 515.179 Q65.4087 515.179 63.58 518.744 Q61.7745 522.285 61.7745 529.415 Q61.7745 536.522 63.58 540.086 Q65.4087 543.628 69.0198 543.628 Q72.6541 543.628 74.4596 540.086 Q76.2883 536.522 76.2883 529.415 Q76.2883 522.285 74.4596 518.744 Q72.6541 515.179 69.0198 515.179 M69.0198 511.475 Q74.83 511.475 77.8855 516.082 Q80.9642 520.665 80.9642 529.415 Q80.9642 538.142 77.8855 542.748 Q74.83 547.332 69.0198 547.332 Q63.2097 547.332 60.131 542.748 Q57.0754 538.142 57.0754 529.415 Q57.0754 520.665 60.131 516.082 Q63.2097 511.475 69.0198 511.475 Z" fill="#000000" fill-rule="evenodd" fill-opacity="1" /><path clip-path="url(#clip200)" d="M89.1818 540.781 L94.066 540.781 L94.066 546.66 L89.1818 546.66 L89.1818 540.781 Z" fill="#000000" fill-rule="evenodd" fill-opacity="1" /><path clip-path="url(#clip200)" d="M108.279 542.725 L124.598 542.725 L124.598 546.66 L102.654 546.66 L102.654 542.725 Q105.316 539.971 109.899 535.341 Q114.506 530.688 115.686 529.346 Q117.932 526.822 118.811 525.086 Q119.714 523.327 119.714 521.637 Q119.714 518.883 117.77 517.147 Q115.848 515.411 112.746 515.411 Q110.547 515.411 108.094 516.174 Q105.663 516.938 102.885 518.489 L102.885 513.767 Q105.709 512.633 108.163 512.054 Q110.617 511.475 112.654 511.475 Q118.024 511.475 121.219 514.161 Q124.413 516.846 124.413 521.336 Q124.413 523.466 123.603 525.387 Q122.816 527.285 120.709 529.878 Q120.131 530.549 117.029 533.767 Q113.927 536.961 108.279 542.725 Z" fill="#000000" fill-rule="evenodd" fill-opacity="1" /><path clip-path="url(#clip200)" d="M66.9365 360.033 Q63.3254 360.033 61.4967 363.598 Q59.6912 367.14 59.6912 374.269 Q59.6912 381.376 61.4967 384.94 Q63.3254 388.482 66.9365 388.482 Q70.5707 388.482 72.3763 384.94 Q74.205 381.376 74.205 374.269 Q74.205 367.14 72.3763 363.598 Q70.5707 360.033 66.9365 360.033 M66.9365 356.329 Q72.7467 356.329 75.8022 360.936 Q78.8809 365.519 78.8809 374.269 Q78.8809 382.996 75.8022 387.602 Q72.7467 392.186 66.9365 392.186 Q61.1264 392.186 58.0477 387.602 Q54.9921 382.996 54.9921 374.269 Q54.9921 365.519 58.0477 360.936 Q61.1264 356.329 66.9365 356.329 Z" fill="#000000" fill-rule="evenodd" fill-opacity="1" /><path clip-path="url(#clip200)" d="M87.0984 385.635 L91.9827 385.635 L91.9827 391.514 L87.0984 391.514 L87.0984 385.635 Z" fill="#000000" fill-rule="evenodd" fill-opacity="1" /><path clip-path="url(#clip200)" d="M115.015 361.028 L103.209 379.477 L115.015 379.477 L115.015 361.028 M113.788 356.954 L119.668 356.954 L119.668 379.477 L124.598 379.477 L124.598 383.366 L119.668 383.366 L119.668 391.514 L115.015 391.514 L115.015 383.366 L99.4132 383.366 L99.4132 378.852 L113.788 356.954 Z" fill="#000000" fill-rule="evenodd" fill-opacity="1" /><path clip-path="url(#clip200)" d="M67.2606 204.887 Q63.6495 204.887 61.8208 208.452 Q60.0152 211.994 60.0152 219.123 Q60.0152 226.23 61.8208 229.794 Q63.6495 233.336 67.2606 233.336 Q70.8948 233.336 72.7004 229.794 Q74.5291 226.23 74.5291 219.123 Q74.5291 211.994 72.7004 208.452 Q70.8948 204.887 67.2606 204.887 M67.2606 201.184 Q73.0707 201.184 76.1263 205.79 Q79.205 210.373 79.205 219.123 Q79.205 227.85 76.1263 232.456 Q73.0707 237.04 67.2606 237.04 Q61.4504 237.04 58.3717 232.456 Q55.3162 227.85 55.3162 219.123 Q55.3162 210.373 58.3717 205.79 Q61.4504 201.184 67.2606 201.184 Z" fill="#000000" fill-rule="evenodd" fill-opacity="1" /><path clip-path="url(#clip200)" d="M87.4225 230.489 L92.3067 230.489 L92.3067 236.369 L87.4225 236.369 L87.4225 230.489 Z" fill="#000000" fill-rule="evenodd" fill-opacity="1" /><path clip-path="url(#clip200)" d="M113.071 217.225 Q109.922 217.225 108.071 219.378 Q106.242 221.531 106.242 225.281 Q106.242 229.007 108.071 231.183 Q109.922 233.336 113.071 233.336 Q116.219 233.336 118.047 231.183 Q119.899 229.007 119.899 225.281 Q119.899 221.531 118.047 219.378 Q116.219 217.225 113.071 217.225 M122.353 202.572 L122.353 206.832 Q120.594 205.998 118.788 205.558 Q117.006 205.119 115.246 205.119 Q110.617 205.119 108.163 208.244 Q105.733 211.369 105.385 217.688 Q106.751 215.674 108.811 214.609 Q110.871 213.521 113.348 213.521 Q118.557 213.521 121.566 216.693 Q124.598 219.841 124.598 225.281 Q124.598 230.605 121.45 233.822 Q118.302 237.04 113.071 237.04 Q107.075 237.04 103.904 232.456 Q100.733 227.85 100.733 219.123 Q100.733 210.929 104.621 206.068 Q108.51 201.184 115.061 201.184 Q116.82 201.184 118.603 201.531 Q120.408 201.878 122.353 202.572 Z" fill="#000000" fill-rule="evenodd" fill-opacity="1" /><path clip-path="url(#clip200)" d="M67.5152 49.7413 Q63.9041 49.7413 62.0754 53.3061 Q60.2699 56.8477 60.2699 63.9773 Q60.2699 71.0838 62.0754 74.6486 Q63.9041 78.1902 67.5152 78.1902 Q71.1494 78.1902 72.955 74.6486 Q74.7837 71.0838 74.7837 63.9773 Q74.7837 56.8477 72.955 53.3061 Q71.1494 49.7413 67.5152 49.7413 M67.5152 46.0376 Q73.3254 46.0376 76.3809 50.6441 Q79.4596 55.2274 79.4596 63.9773 Q79.4596 72.7041 76.3809 77.3106 Q73.3254 81.8939 67.5152 81.8939 Q61.7051 81.8939 58.6264 77.3106 Q55.5708 72.7041 55.5708 63.9773 Q55.5708 55.2274 58.6264 50.6441 Q61.7051 46.0376 67.5152 46.0376 Z" fill="#000000" fill-rule="evenodd" fill-opacity="1" /><path clip-path="url(#clip200)" d="M87.6771 75.343 L92.5614 75.343 L92.5614 81.2226 L87.6771 81.2226 L87.6771 75.343 Z" fill="#000000" fill-rule="evenodd" fill-opacity="1" /><path clip-path="url(#clip200)" d="M112.746 64.8107 Q109.413 64.8107 107.492 66.593 Q105.594 68.3754 105.594 71.5004 Q105.594 74.6254 107.492 76.4078 Q109.413 78.1902 112.746 78.1902 Q116.08 78.1902 118.001 76.4078 Q119.922 74.6023 119.922 71.5004 Q119.922 68.3754 118.001 66.593 Q116.103 64.8107 112.746 64.8107 M108.071 62.8199 Q105.061 62.0792 103.371 60.019 Q101.705 57.9588 101.705 54.9959 Q101.705 50.8524 104.645 48.445 Q107.608 46.0376 112.746 46.0376 Q117.908 46.0376 120.848 48.445 Q123.788 50.8524 123.788 54.9959 Q123.788 57.9588 122.098 60.019 Q120.432 62.0792 117.445 62.8199 Q120.825 63.607 122.7 65.8986 Q124.598 68.1903 124.598 71.5004 Q124.598 76.5236 121.52 79.2087 Q118.464 81.8939 112.746 81.8939 Q107.029 81.8939 103.95 79.2087 Q100.895 76.5236 100.895 71.5004 Q100.895 68.1903 102.793 65.8986 Q104.691 63.607 108.071 62.8199 M106.358 55.4357 Q106.358 58.1209 108.024 59.6255 Q109.714 61.1301 112.746 61.1301 Q115.756 61.1301 117.445 59.6255 Q119.158 58.1209 119.158 55.4357 Q119.158 52.7505 117.445 51.2459 Q115.756 49.7413 112.746 49.7413 Q109.714 49.7413 108.024 51.2459 Q106.358 52.7505 106.358 55.4357 Z" fill="#000000" fill-rule="evenodd" fill-opacity="1" /><circle clip-path="url(#clip202)" cx="756.613" cy="684.526" r="14.4" fill="#808080" fill-rule="evenodd" fill-opacity="0.5" stroke="#000000" stroke-opacity="0.5" stroke-width="1.6"/>
<circle clip-path="url(#clip202)" cx="1071.99" cy="684.526" r="14.4" fill="#808080" fill-rule="evenodd" fill-opacity="0.5" stroke="#000000" stroke-opacity="0.5" stroke-width="1.6"/>
<circle clip-path="url(#clip202)" cx="790.758" cy="684.526" r="14.4" fill="#808080" fill-rule="evenodd" fill-opacity="0.5" stroke="#000000" stroke-opacity="0.5" stroke-width="1.6"/>
<circle clip-path="url(#clip202)" cx="860.163" cy="684.526" r="14.4" fill="#808080" fill-rule="evenodd" fill-opacity="0.5" stroke="#000000" stroke-opacity="0.5" stroke-width="1.6"/>
<circle clip-path="url(#clip202)" cx="1036.4" cy="684.526" r="14.4" fill="#808080" fill-rule="evenodd" fill-opacity="0.5" stroke="#000000" stroke-opacity="0.5" stroke-width="1.6"/>
<circle clip-path="url(#clip202)" cx="829.819" cy="684.526" r="14.4" fill="#808080" fill-rule="evenodd" fill-opacity="0.5" stroke="#000000" stroke-opacity="0.5" stroke-width="1.6"/>
<circle clip-path="url(#clip202)" cx="984.856" cy="684.526" r="14.4" fill="#808080" fill-rule="evenodd" fill-opacity="0.5" stroke="#000000" stroke-opacity="0.5" stroke-width="1.6"/>
<circle clip-path="url(#clip202)" cx="1000.23" cy="684.526" r="14.4" fill="#808080" fill-rule="evenodd" fill-opacity="0.5" stroke="#000000" stroke-opacity="0.5" stroke-width="1.6"/>
<circle clip-path="url(#clip202)" cx="470.252" cy="684.526" r="14.4" fill="#808080" fill-rule="evenodd" fill-opacity="0.5" stroke="#000000" stroke-opacity="0.5" stroke-width="1.6"/>
<circle clip-path="url(#clip202)" cx="1170.23" cy="684.526" r="14.4" fill="#808080" fill-rule="evenodd" fill-opacity="0.5" stroke="#000000" stroke-opacity="0.5" stroke-width="1.6"/>
<circle clip-path="url(#clip202)" cx="442.517" cy="684.526" r="14.4" fill="#808080" fill-rule="evenodd" fill-opacity="0.5" stroke="#000000" stroke-opacity="0.5" stroke-width="1.6"/>
<circle clip-path="url(#clip202)" cx="472.463" cy="684.526" r="14.4" fill="#808080" fill-rule="evenodd" fill-opacity="0.5" stroke="#000000" stroke-opacity="0.5" stroke-width="1.6"/>
<circle clip-path="url(#clip202)" cx="473.006" cy="684.526" r="14.4" fill="#808080" fill-rule="evenodd" fill-opacity="0.5" stroke="#000000" stroke-opacity="0.5" stroke-width="1.6"/>
<circle clip-path="url(#clip202)" cx="1092.29" cy="684.526" r="14.4" fill="#808080" fill-rule="evenodd" fill-opacity="0.5" stroke="#000000" stroke-opacity="0.5" stroke-width="1.6"/>
<circle clip-path="url(#clip202)" cx="979.618" cy="684.526" r="14.4" fill="#808080" fill-rule="evenodd" fill-opacity="0.5" stroke="#000000" stroke-opacity="0.5" stroke-width="1.6"/>
<circle clip-path="url(#clip202)" cx="742.116" cy="684.526" r="14.4" fill="#808080" fill-rule="evenodd" fill-opacity="0.5" stroke="#000000" stroke-opacity="0.5" stroke-width="1.6"/>
<circle clip-path="url(#clip202)" cx="1067.07" cy="684.526" r="14.4" fill="#808080" fill-rule="evenodd" fill-opacity="0.5" stroke="#000000" stroke-opacity="0.5" stroke-width="1.6"/>
<circle clip-path="url(#clip202)" cx="923.808" cy="684.526" r="14.4" fill="#808080" fill-rule="evenodd" fill-opacity="0.5" stroke="#000000" stroke-opacity="0.5" stroke-width="1.6"/>
<circle clip-path="url(#clip202)" cx="1034.05" cy="684.526" r="14.4" fill="#808080" fill-rule="evenodd" fill-opacity="0.5" stroke="#000000" stroke-opacity="0.5" stroke-width="1.6"/>
<circle clip-path="url(#clip202)" cx="909.082" cy="684.526" r="14.4" fill="#808080" fill-rule="evenodd" fill-opacity="0.5" stroke="#000000" stroke-opacity="0.5" stroke-width="1.6"/>
<circle clip-path="url(#clip202)" cx="451.703" cy="684.526" r="14.4" fill="#808080" fill-rule="evenodd" fill-opacity="0.5" stroke="#000000" stroke-opacity="0.5" stroke-width="1.6"/>
<circle clip-path="url(#clip202)" cx="894.82" cy="684.526" r="14.4" fill="#808080" fill-rule="evenodd" fill-opacity="0.5" stroke="#000000" stroke-opacity="0.5" stroke-width="1.6"/>
<circle clip-path="url(#clip202)" cx="808.084" cy="684.526" r="14.4" fill="#808080" fill-rule="evenodd" fill-opacity="0.5" stroke="#000000" stroke-opacity="0.5" stroke-width="1.6"/>
<circle clip-path="url(#clip202)" cx="1129.67" cy="684.526" r="14.4" fill="#808080" fill-rule="evenodd" fill-opacity="0.5" stroke="#000000" stroke-opacity="0.5" stroke-width="1.6"/>
<circle clip-path="url(#clip202)" cx="1074.37" cy="684.526" r="14.4" fill="#808080" fill-rule="evenodd" fill-opacity="0.5" stroke="#000000" stroke-opacity="0.5" stroke-width="1.6"/>
<circle clip-path="url(#clip202)" cx="936.727" cy="684.526" r="14.4" fill="#808080" fill-rule="evenodd" fill-opacity="0.5" stroke="#000000" stroke-opacity="0.5" stroke-width="1.6"/>
<circle clip-path="url(#clip202)" cx="759.53" cy="684.526" r="14.4" fill="#808080" fill-rule="evenodd" fill-opacity="0.5" stroke="#000000" stroke-opacity="0.5" stroke-width="1.6"/>
<circle clip-path="url(#clip202)" cx="471.152" cy="684.526" r="14.4" fill="#808080" fill-rule="evenodd" fill-opacity="0.5" stroke="#000000" stroke-opacity="0.5" stroke-width="1.6"/>
<circle clip-path="url(#clip202)" cx="1046.74" cy="684.526" r="14.4" fill="#808080" fill-rule="evenodd" fill-opacity="0.5" stroke="#000000" stroke-opacity="0.5" stroke-width="1.6"/>
<circle clip-path="url(#clip202)" cx="920.346" cy="684.526" r="14.4" fill="#808080" fill-rule="evenodd" fill-opacity="0.5" stroke="#000000" stroke-opacity="0.5" stroke-width="1.6"/>
<circle clip-path="url(#clip202)" cx="645.961" cy="684.526" r="14.4" fill="#808080" fill-rule="evenodd" fill-opacity="0.5" stroke="#000000" stroke-opacity="0.5" stroke-width="1.6"/>
<circle clip-path="url(#clip202)" cx="479.283" cy="684.526" r="14.4" fill="#808080" fill-rule="evenodd" fill-opacity="0.5" stroke="#000000" stroke-opacity="0.5" stroke-width="1.6"/>
<circle clip-path="url(#clip202)" cx="936.509" cy="684.526" r="14.4" fill="#808080" fill-rule="evenodd" fill-opacity="0.5" stroke="#000000" stroke-opacity="0.5" stroke-width="1.6"/>
<circle clip-path="url(#clip202)" cx="965.129" cy="684.526" r="14.4" fill="#808080" fill-rule="evenodd" fill-opacity="0.5" stroke="#000000" stroke-opacity="0.5" stroke-width="1.6"/>
<circle clip-path="url(#clip202)" cx="876.334" cy="684.526" r="14.4" fill="#808080" fill-rule="evenodd" fill-opacity="0.5" stroke="#000000" stroke-opacity="0.5" stroke-width="1.6"/>
<circle clip-path="url(#clip202)" cx="1218.63" cy="684.526" r="14.4" fill="#808080" fill-rule="evenodd" fill-opacity="0.5" stroke="#000000" stroke-opacity="0.5" stroke-width="1.6"/>
<circle clip-path="url(#clip202)" cx="1039.85" cy="684.526" r="14.4" fill="#808080" fill-rule="evenodd" fill-opacity="0.5" stroke="#000000" stroke-opacity="0.5" stroke-width="1.6"/>
<circle clip-path="url(#clip202)" cx="848.882" cy="684.526" r="14.4" fill="#808080" fill-rule="evenodd" fill-opacity="0.5" stroke="#000000" stroke-opacity="0.5" stroke-width="1.6"/>
<circle clip-path="url(#clip202)" cx="889.717" cy="684.526" r="14.4" fill="#808080" fill-rule="evenodd" fill-opacity="0.5" stroke="#000000" stroke-opacity="0.5" stroke-width="1.6"/>
<circle clip-path="url(#clip202)" cx="469.529" cy="684.526" r="14.4" fill="#808080" fill-rule="evenodd" fill-opacity="0.5" stroke="#000000" stroke-opacity="0.5" stroke-width="1.6"/>
<circle clip-path="url(#clip202)" cx="818.843" cy="684.526" r="14.4" fill="#808080" fill-rule="evenodd" fill-opacity="0.5" stroke="#000000" stroke-opacity="0.5" stroke-width="1.6"/>
<circle clip-path="url(#clip202)" cx="969.195" cy="684.526" r="14.4" fill="#808080" fill-rule="evenodd" fill-opacity="0.5" stroke="#000000" stroke-opacity="0.5" stroke-width="1.6"/>
<circle clip-path="url(#clip202)" cx="963.734" cy="684.526" r="14.4" fill="#808080" fill-rule="evenodd" fill-opacity="0.5" stroke="#000000" stroke-opacity="0.5" stroke-width="1.6"/>
<circle clip-path="url(#clip202)" cx="846.748" cy="684.526" r="14.4" fill="#808080" fill-rule="evenodd" fill-opacity="0.5" stroke="#000000" stroke-opacity="0.5" stroke-width="1.6"/>
<circle clip-path="url(#clip202)" cx="931.793" cy="684.526" r="14.4" fill="#808080" fill-rule="evenodd" fill-opacity="0.5" stroke="#000000" stroke-opacity="0.5" stroke-width="1.6"/>
<circle clip-path="url(#clip202)" cx="863.646" cy="684.526" r="14.4" fill="#808080" fill-rule="evenodd" fill-opacity="0.5" stroke="#000000" stroke-opacity="0.5" stroke-width="1.6"/>
<circle clip-path="url(#clip202)" cx="462.421" cy="684.526" r="14.4" fill="#808080" fill-rule="evenodd" fill-opacity="0.5" stroke="#000000" stroke-opacity="0.5" stroke-width="1.6"/>
<circle clip-path="url(#clip202)" cx="869.304" cy="684.526" r="14.4" fill="#808080" fill-rule="evenodd" fill-opacity="0.5" stroke="#000000" stroke-opacity="0.5" stroke-width="1.6"/>
<circle clip-path="url(#clip202)" cx="973.013" cy="684.526" r="14.4" fill="#808080" fill-rule="evenodd" fill-opacity="0.5" stroke="#000000" stroke-opacity="0.5" stroke-width="1.6"/>
<circle clip-path="url(#clip202)" cx="690.503" cy="684.526" r="14.4" fill="#808080" fill-rule="evenodd" fill-opacity="0.5" stroke="#000000" stroke-opacity="0.5" stroke-width="1.6"/>
<circle clip-path="url(#clip202)" cx="1160.9" cy="684.526" r="14.4" fill="#808080" fill-rule="evenodd" fill-opacity="0.5" stroke="#000000" stroke-opacity="0.5" stroke-width="1.6"/>
<circle clip-path="url(#clip202)" cx="1101" cy="684.526" r="14.4" fill="#808080" fill-rule="evenodd" fill-opacity="0.5" stroke="#000000" stroke-opacity="0.5" stroke-width="1.6"/>
<circle clip-path="url(#clip202)" cx="1270.85" cy="684.526" r="14.4" fill="#808080" fill-rule="evenodd" fill-opacity="0.5" stroke="#000000" stroke-opacity="0.5" stroke-width="1.6"/>
<circle clip-path="url(#clip202)" cx="906.275" cy="684.526" r="14.4" fill="#808080" fill-rule="evenodd" fill-opacity="0.5" stroke="#000000" stroke-opacity="0.5" stroke-width="1.6"/>
<circle clip-path="url(#clip202)" cx="827.517" cy="684.526" r="14.4" fill="#808080" fill-rule="evenodd" fill-opacity="0.5" stroke="#000000" stroke-opacity="0.5" stroke-width="1.6"/>
<circle clip-path="url(#clip202)" cx="475.417" cy="684.526" r="14.4" fill="#808080" fill-rule="evenodd" fill-opacity="0.5" stroke="#000000" stroke-opacity="0.5" stroke-width="1.6"/>
<circle clip-path="url(#clip202)" cx="903.086" cy="684.526" r="14.4" fill="#808080" fill-rule="evenodd" fill-opacity="0.5" stroke="#000000" stroke-opacity="0.5" stroke-width="1.6"/>
<circle clip-path="url(#clip202)" cx="965.918" cy="684.526" r="14.4" fill="#808080" fill-rule="evenodd" fill-opacity="0.5" stroke="#000000" stroke-opacity="0.5" stroke-width="1.6"/>
<circle clip-path="url(#clip202)" cx="1091.75" cy="684.526" r="14.4" fill="#808080" fill-rule="evenodd" fill-opacity="0.5" stroke="#000000" stroke-opacity="0.5" stroke-width="1.6"/>
<circle clip-path="url(#clip202)" cx="430.506" cy="684.526" r="14.4" fill="#808080" fill-rule="evenodd" fill-opacity="0.5" stroke="#000000" stroke-opacity="0.5" stroke-width="1.6"/>
<circle clip-path="url(#clip202)" cx="983.095" cy="684.526" r="14.4" fill="#808080" fill-rule="evenodd" fill-opacity="0.5" stroke="#000000" stroke-opacity="0.5" stroke-width="1.6"/>
<circle clip-path="url(#clip202)" cx="769.524" cy="684.526" r="14.4" fill="#808080" fill-rule="evenodd" fill-opacity="0.5" stroke="#000000" stroke-opacity="0.5" stroke-width="1.6"/>
<circle clip-path="url(#clip202)" cx="849.45" cy="684.526" r="14.4" fill="#808080" fill-rule="evenodd" fill-opacity="0.5" stroke="#000000" stroke-opacity="0.5" stroke-width="1.6"/>
<circle clip-path="url(#clip202)" cx="958.487" cy="684.526" r="14.4" fill="#808080" fill-rule="evenodd" fill-opacity="0.5" stroke="#000000" stroke-opacity="0.5" stroke-width="1.6"/>
<circle clip-path="url(#clip202)" cx="1036.35" cy="684.526" r="14.4" fill="#808080" fill-rule="evenodd" fill-opacity="0.5" stroke="#000000" stroke-opacity="0.5" stroke-width="1.6"/>
<circle clip-path="url(#clip202)" cx="898.833" cy="684.526" r="14.4" fill="#808080" fill-rule="evenodd" fill-opacity="0.5" stroke="#000000" stroke-opacity="0.5" stroke-width="1.6"/>
<circle clip-path="url(#clip202)" cx="493.714" cy="684.526" r="14.4" fill="#808080" fill-rule="evenodd" fill-opacity="0.5" stroke="#000000" stroke-opacity="0.5" stroke-width="1.6"/>
<circle clip-path="url(#clip202)" cx="910.243" cy="684.526" r="14.4" fill="#808080" fill-rule="evenodd" fill-opacity="0.5" stroke="#000000" stroke-opacity="0.5" stroke-width="1.6"/>
<circle clip-path="url(#clip202)" cx="898.313" cy="684.526" r="14.4" fill="#808080" fill-rule="evenodd" fill-opacity="0.5" stroke="#000000" stroke-opacity="0.5" stroke-width="1.6"/>
<circle clip-path="url(#clip202)" cx="701.09" cy="684.526" r="14.4" fill="#808080" fill-rule="evenodd" fill-opacity="0.5" stroke="#000000" stroke-opacity="0.5" stroke-width="1.6"/>
<circle clip-path="url(#clip202)" cx="500.528" cy="684.526" r="14.4" fill="#808080" fill-rule="evenodd" fill-opacity="0.5" stroke="#000000" stroke-opacity="0.5" stroke-width="1.6"/>
<circle clip-path="url(#clip202)" cx="492.49" cy="684.526" r="14.4" fill="#808080" fill-rule="evenodd" fill-opacity="0.5" stroke="#000000" stroke-opacity="0.5" stroke-width="1.6"/>
<circle clip-path="url(#clip202)" cx="892.25" cy="684.526" r="14.4" fill="#808080" fill-rule="evenodd" fill-opacity="0.5" stroke="#000000" stroke-opacity="0.5" stroke-width="1.6"/>
<circle clip-path="url(#clip202)" cx="1014.34" cy="684.526" r="14.4" fill="#808080" fill-rule="evenodd" fill-opacity="0.5" stroke="#000000" stroke-opacity="0.5" stroke-width="1.6"/>
<circle clip-path="url(#clip202)" cx="807.111" cy="684.526" r="14.4" fill="#808080" fill-rule="evenodd" fill-opacity="0.5" stroke="#000000" stroke-opacity="0.5" stroke-width="1.6"/>
<circle clip-path="url(#clip202)" cx="463.495" cy="684.526" r="14.4" fill="#808080" fill-rule="evenodd" fill-opacity="0.5" stroke="#000000" stroke-opacity="0.5" stroke-width="1.6"/>
<circle clip-path="url(#clip202)" cx="692.538" cy="684.526" r="14.4" fill="#808080" fill-rule="evenodd" fill-opacity="0.5" stroke="#000000" stroke-opacity="0.5" stroke-width="1.6"/>
<circle clip-path="url(#clip202)" cx="814.502" cy="684.526" r="14.4" fill="#808080" fill-rule="evenodd" fill-opacity="0.5" stroke="#000000" stroke-opacity="0.5" stroke-width="1.6"/>
<circle clip-path="url(#clip202)" cx="460.383" cy="684.526" r="14.4" fill="#808080" fill-rule="evenodd" fill-opacity="0.5" stroke="#000000" stroke-opacity="0.5" stroke-width="1.6"/>
<circle clip-path="url(#clip202)" cx="474.929" cy="684.526" r="14.4" fill="#808080" fill-rule="evenodd" fill-opacity="0.5" stroke="#000000" stroke-opacity="0.5" stroke-width="1.6"/>
<circle clip-path="url(#clip202)" cx="852.604" cy="684.526" r="14.4" fill="#808080" fill-rule="evenodd" fill-opacity="0.5" stroke="#000000" stroke-opacity="0.5" stroke-width="1.6"/>
<circle clip-path="url(#clip202)" cx="443.645" cy="684.526" r="14.4" fill="#808080" fill-rule="evenodd" fill-opacity="0.5" stroke="#000000" stroke-opacity="0.5" stroke-width="1.6"/>
<circle clip-path="url(#clip202)" cx="452.946" cy="684.526" r="14.4" fill="#808080" fill-rule="evenodd" fill-opacity="0.5" stroke="#000000" stroke-opacity="0.5" stroke-width="1.6"/>
<circle clip-path="url(#clip202)" cx="841.182" cy="684.526" r="14.4" fill="#808080" fill-rule="evenodd" fill-opacity="0.5" stroke="#000000" stroke-opacity="0.5" stroke-width="1.6"/>
<circle clip-path="url(#clip202)" cx="449.692" cy="684.526" r="14.4" fill="#808080" fill-rule="evenodd" fill-opacity="0.5" stroke="#000000" stroke-opacity="0.5" stroke-width="1.6"/>
<circle clip-path="url(#clip202)" cx="1013.08" cy="684.526" r="14.4" fill="#808080" fill-rule="evenodd" fill-opacity="0.5" stroke="#000000" stroke-opacity="0.5" stroke-width="1.6"/>
<circle clip-path="url(#clip202)" cx="1097.24" cy="684.526" r="14.4" fill="#808080" fill-rule="evenodd" fill-opacity="0.5" stroke="#000000" stroke-opacity="0.5" stroke-width="1.6"/>
<circle clip-path="url(#clip202)" cx="799.165" cy="684.526" r="14.4" fill="#808080" fill-rule="evenodd" fill-opacity="0.5" stroke="#000000" stroke-opacity="0.5" stroke-width="1.6"/>
<circle clip-path="url(#clip202)" cx="1140.67" cy="684.526" r="14.4" fill="#808080" fill-rule="evenodd" fill-opacity="0.5" stroke="#000000" stroke-opacity="0.5" stroke-width="1.6"/>
<circle clip-path="url(#clip202)" cx="475.337" cy="684.526" r="14.4" fill="#808080" fill-rule="evenodd" fill-opacity="0.5" stroke="#000000" stroke-opacity="0.5" stroke-width="1.6"/>
<circle clip-path="url(#clip202)" cx="1096.3" cy="684.526" r="14.4" fill="#808080" fill-rule="evenodd" fill-opacity="0.5" stroke="#000000" stroke-opacity="0.5" stroke-width="1.6"/>
<circle clip-path="url(#clip202)" cx="913.405" cy="684.526" r="14.4" fill="#808080" fill-rule="evenodd" fill-opacity="0.5" stroke="#000000" stroke-opacity="0.5" stroke-width="1.6"/>
<circle clip-path="url(#clip202)" cx="476.01" cy="684.526" r="14.4" fill="#808080" fill-rule="evenodd" fill-opacity="0.5" stroke="#000000" stroke-opacity="0.5" stroke-width="1.6"/>
<circle clip-path="url(#clip202)" cx="903.648" cy="684.526" r="14.4" fill="#808080" fill-rule="evenodd" fill-opacity="0.5" stroke="#000000" stroke-opacity="0.5" stroke-width="1.6"/>
<circle clip-path="url(#clip202)" cx="1072.53" cy="684.526" r="14.4" fill="#808080" fill-rule="evenodd" fill-opacity="0.5" stroke="#000000" stroke-opacity="0.5" stroke-width="1.6"/>
<circle clip-path="url(#clip202)" cx="736.72" cy="684.526" r="14.4" fill="#808080" fill-rule="evenodd" fill-opacity="0.5" stroke="#000000" stroke-opacity="0.5" stroke-width="1.6"/>
<circle clip-path="url(#clip202)" cx="661.605" cy="684.526" r="14.4" fill="#808080" fill-rule="evenodd" fill-opacity="0.5" stroke="#000000" stroke-opacity="0.5" stroke-width="1.6"/>
<circle clip-path="url(#clip202)" cx="989.877" cy="684.526" r="14.4" fill="#808080" fill-rule="evenodd" fill-opacity="0.5" stroke="#000000" stroke-opacity="0.5" stroke-width="1.6"/>
<circle clip-path="url(#clip202)" cx="1003.79" cy="684.526" r="14.4" fill="#808080" fill-rule="evenodd" fill-opacity="0.5" stroke="#000000" stroke-opacity="0.5" stroke-width="1.6"/>
<circle clip-path="url(#clip202)" cx="1094.58" cy="684.526" r="14.4" fill="#808080" fill-rule="evenodd" fill-opacity="0.5" stroke="#000000" stroke-opacity="0.5" stroke-width="1.6"/>
<polyline clip-path="url(#clip202)" style="stroke:#000000; stroke-linecap:round; stroke-linejoin:round; stroke-width:4; stroke-opacity:1; fill:none" points="
  188.339,620.659 190.993,618.042 193.648,617.111 196.303,615.908 198.957,617.098 201.612,616.757 204.267,613.733 206.921,616.126 209.576,604.387 212.231,609.708 
  214.885,612.341 217.54,615.311 220.195,602.441 222.849,609.112 225.504,610.722 228.158,615.312 230.813,600.146 233.468,607.729 236.122,614.731 238.777,612.298 
  241.432,615.956 244.086,621.195 246.741,607.159 249.396,603.108 252.05,582.324 254.705,583.184 257.36,586.674 260.014,591.745 262.669,577.72 265.324,578.001 
  267.978,585.237 270.633,584.419 273.288,635.801 275.942,637.21 278.597,639.142 281.252,635.09 283.906,623.748 286.561,627.133 289.216,631.066 291.87,609.206 
  294.525,623.761 297.18,615.229 299.834,621.776 302.489,625.88 305.144,623.903 307.798,635.462 310.453,623.708 313.108,633.554 315.762,630.774 318.417,626.402 
  321.072,631.709 323.726,611.599 326.381,619.683 329.036,623.016 331.69,622.129 334.345,614.322 337,624.945 339.654,619.115 342.309,627.243 344.964,624.489 
  347.618,630.088 350.273,626.003 352.928,630.307 355.582,489.39 358.237,497.806 360.892,499.64 363.546,476.072 366.201,520.637 368.856,516.349 371.51,530.92 
  374.165,537.172 376.82,515.97 379.474,524.937 382.129,534.062 384.784,536.773 387.438,518.726 390.093,511.076 392.748,501.203 395.402,536.107 398.057,526.143 
  400.712,541.051 403.366,543.096 406.021,526.665 408.676,525.694 411.33,541.345 413.985,557.555 416.64,516.907 419.294,508.445 421.949,527.81 424.604,522.793 
  427.258,512.665 429.913,501.711 432.568,538.36 435.222,536.783 437.877,464.29 440.532,466.529 443.186,491.104 445.841,464.177 448.496,498.882 451.15,483.3 
  453.805,468.946 456.46,466.877 459.114,459.944 461.769,482.656 464.424,482.422 467.078,477.804 469.733,439.373 472.388,453.021 475.042,465.945 477.697,464.868 
  480.352,499.206 483.006,492.08 485.661,496.066 488.316,495.923 490.97,516.81 493.625,509.645 496.28,521.988 498.934,501.129 501.589,503.016 504.243,519.412 
  506.898,526.873 509.553,496.412 512.207,497.946 514.862,495.744 517.517,513.841 520.171,610.596 522.826,615.31 525.481,617.152 528.135,625.261 530.79,608.18 
  533.445,603.345 536.099,606.12 538.754,601.929 541.409,607.823 544.063,607.881 546.718,602.861 549.373,591.316 552.027,591.845 554.682,591.1 557.337,598.728 
  559.991,597.594 562.646,567.773 565.301,574.639 567.955,564.019 570.61,564.759 573.265,569.731 575.919,557.723 578.574,566.521 581.229,572.389 583.883,550.617 
  586.538,558.206 589.193,579.614 591.847,570.165 594.502,552.961 597.157,556.166 599.811,539.473 602.466,586.546 605.121,587.333 607.775,571.801 610.43,564.637 
  613.085,575.713 615.739,572.666 618.394,578.065 621.049,578.916 623.703,587.535 626.358,578.672 629.013,571.898 631.667,558.95 634.322,581.953 636.977,581.481 
  639.631,578.623 642.286,577.05 644.941,572.761 647.595,573.66 650.25,553.693 652.905,555.578 655.559,555.628 658.214,575.549 660.869,563.092 663.523,563.542 
  666.178,550.003 668.833,537.838 671.487,548.34 674.142,542.865 676.797,548.912 679.451,545.296 682.106,556.955 684.761,555.347 687.415,492.903 690.07,505.342 
  692.725,494.101 695.379,513.131 698.034,517.003 700.689,521.534 703.343,529.711 705.998,492.198 708.653,506.51 711.307,513.721 713.962,505.934 716.617,471.352 
  719.271,463.176 721.926,513.911 724.581,514.858 727.235,461.871 729.89,427.792 732.545,471.854 735.199,448.436 737.854,434.74 740.509,461.926 743.163,456.416 
  745.818,453.772 748.473,516.64 751.127,501.511 753.782,531.634 756.437,537.258 759.091,495.057 761.746,481.782 764.401,513.506 767.055,519.141 769.71,539.039 
  772.364,533.173 775.019,528.565 777.674,541.603 780.328,539.273 782.983,521.026 785.638,515.606 788.292,513.223 790.947,535.342 793.602,544.802 796.256,537.702 
  798.911,526.653 801.566,526.728 804.22,476.3 806.875,473.22 809.53,516.698 812.184,513.969 814.839,544.078 817.494,524.128 820.148,484.727 822.803,480.221 
  825.458,495.958 828.112,511.359 830.767,464.278 833.422,473.522 836.076,459.082 838.731,461.437 841.386,479.444 844.04,499.373 846.695,488.777 849.35,494.819 
  852.004,438.403 854.659,419.662 857.314,416.37 859.968,379.025 862.623,401.995 865.278,387.394 867.932,353.581 870.587,406.195 873.242,440.093 875.896,457.827 
  878.551,400.253 881.206,407.241 883.86,423.012 886.515,412.171 889.17,423.878 891.824,412.685 894.479,355.295 897.134,403.853 899.788,364.478 902.443,381.195 
  905.098,364.455 907.752,353.358 910.407,334.035 913.062,351.169 915.716,347.739 918.371,383.629 921.026,380.586 923.68,317.475 926.335,290.724 928.99,345.915 
  931.644,319.641 934.299,425.168 936.954,422.076 939.608,422.857 942.263,422.183 944.918,351.391 947.572,375.392 950.227,395.528 952.882,400.363 955.536,349.023 
  958.191,365.291 960.846,410.443 963.5,376.034 966.155,432.643 968.81,382.287 971.464,418.043 974.119,429.934 976.774,214.97 979.428,199.934 982.083,232.419 
  984.738,177.519 987.392,294.566 990.047,331.73 992.702,306.38 995.356,266.186 998.011,287.98 1000.67,267.347 1003.32,242.965 1005.97,170.935 1008.63,208.078 
  1011.28,258.801 1013.94,239.912 1016.59,368.787 1019.25,392.038 1021.9,417.97 1024.56,424.227 1027.21,396.346 1029.87,424.057 1032.52,391.906 1035.18,381.043 
  1037.83,361.541 1040.49,347.159 1043.14,415.644 1045.79,418.596 1048.45,422.81 1051.1,392.811 1053.76,451.878 1056.41,432.24 1059.07,425.851 1061.72,446.717 
  1064.38,420.842 1067.03,419.522 1069.69,376.871 1072.34,362.908 1075,408.104 1077.65,399.173 1080.31,424.083 1082.96,418.927 1085.61,423.528 1088.27,438.674 
  1090.92,465.002 1093.58,462.222 1096.23,429.404 1098.89,425.832 1101.54,498.782 1104.2,499.536 1106.85,496.031 1109.51,493.673 1112.16,493.729 1114.82,477.329 
  1117.47,494.523 1120.13,455.269 1122.78,451.726 1125.43,489.98 1128.09,476.458 1130.74,464.627 1133.4,455.177 1136.05,439.561 1138.71,461.342 1141.36,508.579 
  1144.02,515.964 1146.67,486.245 1149.33,475.596 1151.98,473.536 1154.64,505.882 1157.29,519.684 1159.95,524.825 1162.6,533.752 1165.25,535.642 1167.91,541.409 
  1170.56,539.273 1173.22,525.176 1175.87,542.49 1178.53,537.973 1181.18,523.384 1183.84,672.716 1186.49,670.765 1189.15,671.607 1191.8,672.56 1194.46,672.459 
  1197.11,673.203 1199.77,673.33 1202.42,673.971 1205.07,672.301 1207.73,673.162 1210.38,673.575 1213.04,671.353 1215.69,670.6 1218.35,669.41 1221,668.792 
  1223.66,663.543 1226.31,663.444 1228.97,663.386 1231.62,661.612 1234.28,667.099 1236.93,663.251 1239.59,665.514 1242.24,664.429 1244.89,666.861 1247.55,667.043 
  1250.2,665.661 1252.86,669.372 1255.51,665.825 1258.17,666.924 1260.82,664.677 1263.48,667.921 1266.13,668.963 1268.79,669.944 1271.44,669.67 1274.1,669.883 
  1276.75,668.59 1279.41,668.831 1282.06,671.831 1284.71,672.47 1287.37,668.33 1290.02,668.579 1292.68,669.18 1295.33,670.122 1297.99,670.531 1300.64,669.248 
  1303.3,670.077 1305.95,669.095 1308.61,670.701 1311.26,668.773 1313.92,669.976 1316.57,669.492 1319.23,668.602 1321.88,669.567 1324.53,667.793 1327.19,672.427 
  1329.84,673.002 1332.5,671.705 1335.15,669.676 1337.81,670.137 1340.46,669.345 1343.12,667.343 1345.77,670.35 1348.43,660.785 1351.08,658.855 1353.74,665.439 
  1356.39,663.327 1359.05,661.898 1361.7,662.791 1364.35,663.485 1367.01,661.991 1369.66,665.53 1372.32,666.278 1374.97,661.177 1377.63,661.898 1380.28,663.512 
  1382.94,661.866 1385.59,663.176 1388.25,661.104 1390.9,667.699 1393.56,669.556 1396.21,667.345 1398.87,666.232 1401.52,661.982 1404.17,665.969 1406.83,663.429 
  1409.48,665.566 1412.14,664.465 1414.79,667.499 1417.45,668.07 1420.1,669.927 1422.76,668.587 1425.41,666.954 1428.07,670.221 1430.72,670.196 1433.38,668.31 
  1436.03,667.984 1438.69,668.853 1441.34,671.52 1443.99,672 1446.65,671.92 1449.3,670.479 1451.96,669.121 1454.61,670.396 1457.27,672.006 1459.92,672.808 
  1462.58,668.934 1465.23,670.663 1467.89,668.882 1470.54,670.103 1473.2,669.884 1475.85,670.37 1478.5,670.599 1481.16,670.322 1483.81,669.098 1486.47,668.502 
  1489.12,669.152 1491.78,668.897 1494.43,670.565 1497.09,671.31 1499.74,672.178 1502.4,671.424 1505.05,670.694 1507.71,669.436 1510.36,672.5 1513.02,673.436 
  
  "/>
<polyline clip-path="url(#clip202)" style="stroke:#000000; stroke-linecap:round; stroke-linejoin:round; stroke-width:4; stroke-opacity:1; fill:none" stroke-dasharray="16, 8, 2, 8" points="
  188.339,618.626 190.993,612.247 193.648,613.173 196.303,610.226 198.957,624.716 201.612,625 204.267,617.587 206.921,623.462 209.576,614.97 212.231,620.418 
  214.885,623.325 217.54,623.818 220.195,628.853 222.849,633.802 225.504,632.585 228.158,629.897 230.813,616.271 233.468,625.062 236.122,606.284 238.777,608.402 
  241.432,625.945 244.086,620.38 246.741,617.966 249.396,622.894 252.05,585.976 254.705,589.501 257.36,600.908 260.014,604.429 262.669,603.662 265.324,601.378 
  267.978,601.326 270.633,597.575 273.288,611.008 275.942,608.452 278.597,603.108 281.252,601.411 283.906,627.009 286.561,618.49 289.216,618.409 291.87,577.613 
  294.525,580.274 297.18,549.9 299.834,549.505 302.489,574.652 305.144,573.822 307.798,571.553 310.453,573.574 313.108,617.137 315.762,624.14 318.417,621.846 
  321.072,619.851 323.726,584.459 326.381,583.407 329.036,597.558 331.69,597.795 334.345,591.781 337,580.328 339.654,595.426 342.309,598.11 344.964,626.337 
  347.618,619.182 350.273,610.542 352.928,608.211 355.582,521.03 358.237,529.439 360.892,518.026 363.546,466.678 366.201,556.815 368.856,547.405 371.51,526.044 
  374.165,545.005 376.82,555.168 379.474,553.893 382.129,528.077 384.784,529.514 387.438,552.737 390.093,562.067 392.748,564.255 395.402,552.962 398.057,546.295 
  400.712,569.497 403.366,568.105 406.021,573.127 408.676,565.548 411.33,559.256 413.985,564.662 416.64,516.259 419.294,522.963 421.949,541.983 424.604,512.679 
  427.258,529.728 429.913,520.699 432.568,544.059 435.222,540.971 437.877,396.335 440.532,328.955 443.186,320.51 445.841,351.521 448.496,258.398 451.15,238.438 
  453.805,236.618 456.46,310.137 459.114,240.679 461.769,224.589 464.424,251.545 467.078,281.295 469.733,227.837 472.388,198.444 475.042,266.026 477.697,229.155 
  480.352,390.223 483.006,390.853 485.661,421.652 488.316,410.229 490.97,405.126 493.625,397.738 496.28,436.223 498.934,458.139 501.589,469.623 504.243,503.383 
  506.898,490.298 509.553,470.61 512.207,451.822 514.862,478.712 517.517,484.462 520.171,615.281 522.826,623.269 525.481,618.391 528.135,623.562 530.79,611.818 
  533.445,615.313 536.099,609.453 538.754,608.717 541.409,623.48 544.063,625.31 546.718,626.53 549.373,617.644 552.027,617.027 554.682,608.202 557.337,622.739 
  559.991,620.036 562.646,621.388 565.301,625.303 567.955,632.366 570.61,625.746 573.265,620.842 575.919,627.202 578.574,618.861 581.229,624.01 583.883,641.283 
  586.538,641.784 589.193,639.906 591.847,639.115 594.502,636.845 597.157,636.711 599.811,634.448 602.466,633.439 605.121,629.77 607.775,618.789 610.43,617.773 
  613.085,609.799 615.739,615.843 618.394,614.381 621.049,614.09 623.703,627.615 626.358,631.346 629.013,631.042 631.667,634.332 634.322,637.008 636.977,629.929 
  639.631,624.772 642.286,629.088 644.941,636.014 647.595,633.734 650.25,632.049 652.905,632.309 655.559,638.414 658.214,639.095 660.869,628.908 663.523,634.342 
  666.178,622.377 668.833,631.211 671.487,627.073 674.142,626.153 676.797,628.363 679.451,631.066 682.106,624.343 684.761,632.683 687.415,489.283 690.07,500.715 
  692.725,510.549 695.379,504.418 698.034,571.116 700.689,533.819 703.343,544.821 705.998,504.125 708.653,497.718 711.307,493.973 713.962,510.423 716.617,491.845 
  719.271,512.943 721.926,503.264 724.581,511.113 727.235,469.596 729.89,470.316 732.545,494.826 735.199,484.999 737.854,498.106 740.509,517.52 743.163,465.837 
  745.818,476.818 748.473,557.309 751.127,535.097 753.782,536.793 756.437,514.924 759.091,505.218 761.746,506.876 764.401,515.047 767.055,523.497 769.71,500.92 
  772.364,493.815 775.019,526.382 777.674,510.995 780.328,507.72 782.983,519.93 785.638,501.383 788.292,499.55 790.947,489.112 793.602,474.465 796.256,459.243 
  798.911,459.665 801.566,477.807 804.22,499.341 806.875,524.749 809.53,527.155 812.184,529.051 814.839,539.517 817.494,531.754 820.148,500.686 822.803,508.872 
  825.458,521.008 828.112,520.111 830.767,433.81 833.422,457.014 836.076,466.242 838.731,433.001 841.386,412.643 844.04,406.311 846.695,444.931 849.35,445.289 
  852.004,326.279 854.659,334.711 857.314,268.401 859.968,301.097 862.623,291.972 865.278,339.91 867.932,359.468 870.587,274.932 873.242,323.648 875.896,346.301 
  878.551,341.756 881.206,312.353 883.86,316.778 886.515,334.427 889.17,322.027 891.824,302.135 894.479,267.269 897.134,241.983 899.788,232.442 902.443,198.238 
  905.098,182.267 907.752,197.835 910.407,213.902 913.062,317.103 915.716,305.075 918.371,280.391 921.026,343.465 923.68,307.623 926.335,271.246 928.99,310.967 
  931.644,201.212 934.299,387.989 936.954,377.632 939.608,367.812 942.263,422.722 944.918,370.126 947.572,396.235 950.227,434.134 952.882,438.892 955.536,320.602 
  958.191,324.369 960.846,310.169 963.5,305.932 966.155,318.702 968.81,303.705 971.464,335.48 974.119,366.859 976.774,348.331 979.428,357.159 982.083,315.713 
  984.738,283.802 987.392,392.104 990.047,393.761 992.702,381.682 995.356,411.389 998.011,487.012 1000.67,496.864 1003.32,461.257 1005.97,475.438 1008.63,495.958 
  1011.28,502.006 1013.94,508.922 1016.59,462.601 1019.25,452.769 1021.9,463.719 1024.56,460.504 1027.21,478.639 1029.87,479.512 1032.52,452.013 1035.18,421.389 
  1037.83,452.274 1040.49,437.545 1043.14,436.544 1045.79,462.406 1048.45,487.222 1051.1,465.436 1053.76,494.814 1056.41,498.274 1059.07,491.032 1061.72,469.366 
  1064.38,500.422 1067.03,492.179 1069.69,468.14 1072.34,475.272 1075,461.731 1077.65,468.379 1080.31,462.828 1082.96,461.43 1085.61,465.426 1088.27,460.318 
  1090.92,492.887 1093.58,497.955 1096.23,500.258 1098.89,491.029 1101.54,582.935 1104.2,586.644 1106.85,568.092 1109.51,557.235 1112.16,549.916 1114.82,565.183 
  1117.47,570.987 1120.13,590.098 1122.78,584.6 1125.43,574.836 1128.09,573.748 1130.74,541.113 1133.4,540.253 1136.05,541.632 1138.71,544.334 1141.36,531.002 
  1144.02,514.358 1146.67,505.552 1149.33,508.111 1151.98,497.995 1154.64,487.877 1157.29,511.828 1159.95,475.702 1162.6,501.43 1165.25,489.156 1167.91,526.46 
  1170.56,510.959 1173.22,488.834 1175.87,503.141 1178.53,494.958 1181.18,481.928 1183.84,661.501 1186.49,664.477 1189.15,663.575 1191.8,661.836 1194.46,666.97 
  1197.11,665.202 1199.77,662.626 1202.42,663.85 1205.07,660.138 1207.73,660.441 1210.38,660.161 1213.04,661.604 1215.69,663.547 1218.35,660.396 1221,660.149 
  1223.66,661.221 1226.31,661.597 1228.97,661.792 1231.62,663.619 1234.28,666.076 1236.93,666.335 1239.59,666.561 1242.24,666.541 1244.89,666.33 1247.55,664.894 
  1250.2,664.163 1252.86,665.248 1255.51,659.871 1258.17,657.994 1260.82,665.352 1263.48,662.148 1266.13,666.203 1268.79,667.299 1271.44,667.102 1274.1,667.904 
  1276.75,664.718 1279.41,663.767 1282.06,664.649 1284.71,666.053 1287.37,667.384 1290.02,667.051 1292.68,666.48 1295.33,666.156 1297.99,666.807 1300.64,665.91 
  1303.3,668.576 1305.95,666.822 1308.61,663.384 1311.26,662.454 1313.92,663.362 1316.57,662.911 1319.23,662.313 1321.88,662.851 1324.53,663.142 1327.19,666.104 
  1329.84,666.224 1332.5,669.295 1335.15,666.808 1337.81,666.329 1340.46,667.476 1343.12,667.023 1345.77,666.834 1348.43,657.942 1351.08,657.984 1353.74,656.173 
  1356.39,658.71 1359.05,656.447 1361.7,658.089 1364.35,655.958 1367.01,656.383 1369.66,652.77 1372.32,648.281 1374.97,655.41 1377.63,655.108 1380.28,658.198 
  1382.94,656.661 1385.59,655.783 1388.25,651.244 1390.9,649.853 1393.56,653.076 1396.21,650.1 1398.87,645.508 1401.52,652.057 1404.17,651.44 1406.83,654.126 
  1409.48,651.936 1412.14,640.048 1414.79,636.641 1417.45,637.096 1420.1,644.783 1422.76,641.981 1425.41,645.586 1428.07,646.066 1430.72,649.94 1433.38,653.032 
  1436.03,650.506 1438.69,654.417 1441.34,649.837 1443.99,650.317 1446.65,654.382 1449.3,654.058 1451.96,649.082 1454.61,649.972 1457.27,646.861 1459.92,648.269 
  1462.58,657.982 1465.23,654.947 1467.89,656.865 1470.54,656.851 1473.2,657.182 1475.85,654.916 1478.5,662.254 1481.16,659.468 1483.81,657.046 1486.47,653.778 
  1489.12,656.898 1491.78,657.232 1494.43,660.649 1497.09,660.2 1499.74,658.517 1502.4,658.089 1505.05,661.366 1507.71,665.553 1510.36,663.643 1513.02,660.624 
  
  "/>
<polyline clip-path="url(#clip202)" style="stroke:#808080; stroke-linecap:round; stroke-linejoin:round; stroke-width:4; stroke-opacity:1; fill:none" stroke-dasharray="16, 10" points="
  188.339,684.526 190.993,684.526 193.648,684.526 196.303,684.526 198.957,684.526 201.612,684.526 204.267,684.526 206.921,684.526 209.576,684.526 212.231,684.526 
  214.885,684.526 217.54,684.526 220.195,684.526 222.849,684.526 225.504,684.526 228.158,684.526 230.813,684.526 233.468,684.526 236.122,684.526 238.777,684.526 
  241.432,684.526 244.086,684.526 246.741,684.526 249.396,684.526 252.05,684.526 254.705,684.526 257.36,684.526 260.014,684.526 262.669,684.526 265.324,684.526 
  267.978,684.526 270.633,684.526 273.288,684.526 275.942,684.526 278.597,684.526 281.252,684.526 283.906,684.526 286.561,684.526 289.216,684.526 291.87,684.526 
  294.525,684.526 297.18,684.526 299.834,684.526 302.489,684.526 305.144,684.526 307.798,684.526 310.453,684.526 313.108,684.526 315.762,684.526 318.417,684.526 
  321.072,684.526 323.726,684.526 326.381,684.525 329.036,684.525 331.69,684.525 334.345,684.525 337,684.525 339.654,684.525 342.309,684.524 344.964,684.523 
  347.618,684.522 350.273,684.52 352.928,684.517 355.582,684.513 358.237,684.505 360.892,684.493 363.546,684.474 366.201,684.445 368.856,684.399 371.51,684.33 
  374.165,684.225 376.82,684.069 379.474,683.84 382.129,683.506 384.784,683.027 387.438,682.348 390.093,681.399 392.748,680.089 395.402,678.304 398.057,675.904 
  400.712,672.721 403.366,668.554 406.021,663.174 408.676,656.321 411.33,647.712 413.985,637.049 416.64,624.028 419.294,608.355 421.949,589.767 424.604,568.05 
  427.258,543.065 429.913,514.771 432.568,483.251 435.222,448.728 437.877,411.582 440.532,372.357 443.186,331.759 445.841,290.642 448.496,249.985 451.15,210.857 
  453.805,174.371 456.46,141.637 459.114,113.702 461.769,91.4965 464.424,75.7848 467.078,67.1185 469.733,65.8057 472.388,71.893 475.042,85.1622 477.697,105.143 
  480.352,131.142 483.006,162.281 485.661,197.547 488.316,235.845 490.97,276.058 493.625,317.094 496.28,357.939 498.934,397.692 501.589,435.593 504.243,471.04 
  506.898,503.596 509.553,532.984 512.207,559.073 514.862,581.864 517.517,601.465 520.171,618.064 522.826,631.91 525.481,643.289 528.135,652.502 530.79,659.85 
  533.445,665.624 536.099,670.09 538.754,673.489 541.409,676.03 544.063,677.894 546.718,679.229 549.373,680.157 552.027,680.777 554.682,681.164 557.337,681.379 
  559.991,681.465 562.646,681.457 565.301,681.378 567.955,681.246 570.61,681.072 573.265,680.866 575.919,680.632 578.574,680.374 581.229,680.093 583.883,679.792 
  586.538,679.469 589.193,679.126 591.847,678.76 594.502,678.373 597.157,677.962 599.811,677.527 602.466,677.066 605.121,676.579 607.775,676.064 610.43,675.52 
  613.085,674.946 615.739,674.34 618.394,673.7 621.049,673.027 623.703,672.317 626.358,671.569 629.013,670.783 631.667,669.955 634.322,669.085 636.977,668.172 
  639.631,667.212 642.286,666.205 644.941,665.148 647.595,664.041 650.25,662.881 652.905,661.666 655.559,660.394 658.214,659.064 660.869,657.673 663.523,656.221 
  666.178,654.703 668.833,653.12 671.487,651.469 674.142,649.747 676.797,647.953 679.451,646.085 682.106,644.142 684.761,642.12 687.415,640.019 690.07,637.835 
  692.725,635.569 695.379,633.217 698.034,630.778 700.689,628.25 703.343,625.631 705.998,622.92 708.653,620.115 711.307,617.215 713.962,614.218 716.617,611.124 
  719.271,607.929 721.926,604.634 724.581,601.238 727.235,597.738 729.89,594.135 732.545,590.428 735.199,586.616 737.854,582.698 740.509,578.675 743.163,574.545 
  745.818,570.309 748.473,565.967 751.127,561.519 753.782,556.966 756.437,552.307 759.091,547.545 761.746,542.679 764.401,537.71 767.055,532.641 769.71,527.472 
  772.364,522.205 775.019,516.843 777.674,511.386 780.328,505.838 782.983,500.2 785.638,494.476 788.292,488.669 790.947,482.781 793.602,476.816 796.256,470.777 
  798.911,464.668 801.566,458.494 804.22,452.257 806.875,445.964 809.53,439.617 812.184,433.223 814.839,426.785 817.494,420.31 820.148,413.802 822.803,407.267 
  825.458,400.711 828.112,394.14 830.767,387.559 833.422,380.974 836.076,374.393 838.731,367.822 841.386,361.267 844.04,354.734 846.695,348.232 849.35,341.766 
  852.004,335.343 854.659,328.971 857.314,322.657 859.968,316.407 862.623,310.23 865.278,304.132 867.932,298.12 870.587,292.202 873.242,286.385 875.896,280.675 
  878.551,275.081 881.206,269.609 883.86,264.265 886.515,259.057 889.17,253.992 891.824,249.076 894.479,244.315 897.134,239.716 899.788,235.285 902.443,231.028 
  905.098,226.95 907.752,223.058 910.407,219.356 913.062,215.85 915.716,212.545 918.371,209.444 921.026,206.553 923.68,203.876 926.335,201.415 928.99,199.176 
  931.644,197.16 934.299,195.371 936.954,193.812 939.608,192.484 942.263,191.39 944.918,190.531 947.572,189.908 950.227,189.522 952.882,189.374 955.536,189.464 
  958.191,189.792 960.846,190.357 963.5,191.159 966.155,192.196 968.81,193.467 971.464,194.97 974.119,196.703 976.774,198.664 979.428,200.849 982.083,203.256 
  984.738,205.881 987.392,208.72 990.047,211.77 992.702,215.026 995.356,218.484 998.011,222.138 1000.67,225.985 1003.32,230.017 1005.97,234.231 1008.63,238.62 
  1011.28,243.179 1013.94,247.901 1016.59,252.78 1019.25,257.81 1021.9,262.983 1024.56,268.294 1027.21,273.736 1029.87,279.301 1032.52,284.983 1035.18,290.775 
  1037.83,296.669 1040.49,302.659 1043.14,308.737 1045.79,314.895 1048.45,321.128 1051.1,327.427 1053.76,333.785 1056.41,340.196 1059.07,346.653 1061.72,353.147 
  1064.38,359.673 1067.03,366.223 1069.69,372.791 1072.34,379.37 1075,385.954 1077.65,392.537 1080.31,399.111 1082.96,405.671 1085.61,412.212 1088.27,418.727 
  1090.92,425.211 1093.58,431.658 1096.23,438.063 1098.89,444.422 1101.54,450.729 1104.2,456.98 1106.85,463.169 1109.51,469.295 1112.16,475.351 1114.82,481.334 
  1117.47,487.241 1120.13,493.069 1122.78,498.813 1125.43,504.472 1128.09,510.042 1130.74,515.522 1133.4,520.907 1136.05,526.198 1138.71,531.391 1141.36,536.484 
  1144.02,541.477 1146.67,546.368 1149.33,551.156 1151.98,555.84 1154.64,560.419 1157.29,564.893 1159.95,569.261 1162.6,573.523 1165.25,577.678 1167.91,581.728 
  1170.56,585.671 1173.22,589.509 1175.87,593.242 1178.53,596.87 1181.18,600.394 1183.84,603.816 1186.49,607.136 1189.15,610.354 1191.8,613.473 1194.46,616.494 
  1197.11,619.417 1199.77,622.245 1202.42,624.979 1205.07,627.62 1207.73,630.17 1210.38,632.631 1213.04,635.004 1215.69,637.291 1218.35,639.494 1221,641.615 
  1223.66,643.656 1226.31,645.619 1228.97,647.505 1231.62,649.317 1234.28,651.056 1236.93,652.724 1239.59,654.324 1242.24,655.857 1244.89,657.325 1247.55,658.731 
  1250.2,660.075 1252.86,661.361 1255.51,662.59 1258.17,663.763 1260.82,664.883 1263.48,665.952 1266.13,666.971 1268.79,667.942 1271.44,668.867 1274.1,669.747 
  1276.75,670.585 1279.41,671.381 1282.06,672.138 1284.71,672.857 1287.37,673.54 1290.02,674.187 1292.68,674.801 1295.33,675.383 1297.99,675.934 1300.64,676.456 
  1303.3,676.95 1305.95,677.417 1308.61,677.859 1311.26,678.276 1313.92,678.669 1316.57,679.041 1319.23,679.392 1321.88,679.722 1324.53,680.033 1327.19,680.327 
  1329.84,680.602 1332.5,680.862 1335.15,681.106 1337.81,681.335 1340.46,681.551 1343.12,681.753 1345.77,681.943 1348.43,682.12 1351.08,682.287 1353.74,682.443 
  1356.39,682.589 1359.05,682.726 1361.7,682.854 1364.35,682.974 1367.01,683.085 1369.66,683.19 1372.32,683.287 1374.97,683.378 1377.63,683.463 1380.28,683.542 
  1382.94,683.615 1385.59,683.683 1388.25,683.747 1390.9,683.806 1393.56,683.861 1396.21,683.912 1398.87,683.96 1401.52,684.004 1404.17,684.045 1406.83,684.083 
  1409.48,684.118 1412.14,684.15 1414.79,684.18 1417.45,684.208 1420.1,684.234 1422.76,684.258 1425.41,684.28 1428.07,684.3 1430.72,684.319 1433.38,684.336 
  1436.03,684.352 1438.69,684.366 1441.34,684.38 1443.99,684.392 1446.65,684.404 1449.3,684.414 1451.96,684.424 1454.61,684.433 1457.27,684.441 1459.92,684.448 
  1462.58,684.455 1465.23,684.461 1467.89,684.467 1470.54,684.472 1473.2,684.477 1475.85,684.482 1478.5,684.486 1481.16,684.489 1483.81,684.493 1486.47,684.496 
  1489.12,684.499 1491.78,684.501 1494.43,684.504 1497.09,684.506 1499.74,684.508 1502.4,684.509 1505.05,684.511 1507.71,684.512 1510.36,684.514 1513.02,684.515 
  
  "/>
</svg>
