<?xml version="1.0" encoding="utf-8"?>
<svg xmlns="http://www.w3.org/2000/svg" xmlns:xlink="http://www.w3.org/1999/xlink" width="600" height="400" viewBox="0 0 2400 1600">
<defs>
  <clipPath id="clip580">
    <rect x="0" y="0" width="2400" height="1600"/>
  </clipPath>
</defs>
<path clip-path="url(#clip580)" d="
M0 1600 L2400 1600 L2400 0 L0 0  Z
  " fill="#ffffff" fill-rule="evenodd" fill-opacity="1"/>
<defs>
  <clipPath id="clip581">
    <rect x="480" y="0" width="1681" height="1600"/>
  </clipPath>
</defs>
<path clip-path="url(#clip580)" d="
M156.598 1486.45 L2352.76 1486.45 L2352.76 47.2441 L156.598 47.2441  Z
  " fill="#ffffff" fill-rule="evenodd" fill-opacity="1"/>
<defs>
  <clipPath id="clip582">
    <rect x="156" y="47" width="2197" height="1440"/>
  </clipPath>
</defs>
<polyline clip-path="url(#clip582)" style="stroke:#000000; stroke-linecap:round; stroke-linejoin:round; stroke-width:2; stroke-opacity:0.1; fill:none" points="
  330.179,1486.45 330.179,47.2441 
  "/>
<polyline clip-path="url(#clip582)" style="stroke:#000000; stroke-linecap:round; stroke-linejoin:round; stroke-width:2; stroke-opacity:0.1; fill:none" points="
  701.774,1486.45 701.774,47.2441 
  "/>
<polyline clip-path="url(#clip582)" style="stroke:#000000; stroke-linecap:round; stroke-linejoin:round; stroke-width:2; stroke-opacity:0.1; fill:none" points="
  1073.37,1486.45 1073.37,47.2441 
  "/>
<polyline clip-path="url(#clip582)" style="stroke:#000000; stroke-linecap:round; stroke-linejoin:round; stroke-width:2; stroke-opacity:0.1; fill:none" points="
  1444.96,1486.45 1444.96,47.2441 
  "/>
<polyline clip-path="url(#clip582)" style="stroke:#000000; stroke-linecap:round; stroke-linejoin:round; stroke-width:2; stroke-opacity:0.1; fill:none" points="
  1816.56,1486.45 1816.56,47.2441 
  "/>
<polyline clip-path="url(#clip582)" style="stroke:#000000; stroke-linecap:round; stroke-linejoin:round; stroke-width:2; stroke-opacity:0.1; fill:none" points="
  2188.15,1486.45 2188.15,47.2441 
  "/>
<polyline clip-path="url(#clip580)" style="stroke:#000000; stroke-linecap:round; stroke-linejoin:round; stroke-width:4; stroke-opacity:1; fill:none" points="
  156.598,1486.45 2352.76,1486.45 
  "/>
<polyline clip-path="url(#clip580)" style="stroke:#000000; stroke-linecap:round; stroke-linejoin:round; stroke-width:4; stroke-opacity:1; fill:none" points="
  330.179,1486.45 330.179,1467.55 
  "/>
<polyline clip-path="url(#clip580)" style="stroke:#000000; stroke-linecap:round; stroke-linejoin:round; stroke-width:4; stroke-opacity:1; fill:none" points="
  701.774,1486.45 701.774,1467.55 
  "/>
<polyline clip-path="url(#clip580)" style="stroke:#000000; stroke-linecap:round; stroke-linejoin:round; stroke-width:4; stroke-opacity:1; fill:none" points="
  1073.37,1486.45 1073.37,1467.55 
  "/>
<polyline clip-path="url(#clip580)" style="stroke:#000000; stroke-linecap:round; stroke-linejoin:round; stroke-width:4; stroke-opacity:1; fill:none" points="
  1444.96,1486.45 1444.96,1467.55 
  "/>
<polyline clip-path="url(#clip580)" style="stroke:#000000; stroke-linecap:round; stroke-linejoin:round; stroke-width:4; stroke-opacity:1; fill:none" points="
  1816.56,1486.45 1816.56,1467.55 
  "/>
<polyline clip-path="url(#clip580)" style="stroke:#000000; stroke-linecap:round; stroke-linejoin:round; stroke-width:4; stroke-opacity:1; fill:none" points="
  2188.15,1486.45 2188.15,1467.55 
  "/>
<path clip-path="url(#clip580)" d="M300.121 1532.02 L329.797 1532.02 L329.797 1535.95 L300.121 1535.95 L300.121 1532.02 Z" fill="#000000" fill-rule="evenodd" fill-opacity="1" /><path clip-path="url(#clip580)" d="M343.917 1544.91 L360.237 1544.91 L360.237 1548.85 L338.292 1548.85 L338.292 1544.91 Q340.955 1542.16 345.538 1537.53 Q350.144 1532.88 351.325 1531.53 Q353.57 1529.01 354.45 1527.27 Q355.353 1525.51 355.353 1523.82 Q355.353 1521.07 353.408 1519.33 Q351.487 1517.6 348.385 1517.6 Q346.186 1517.6 343.732 1518.36 Q341.302 1519.13 338.524 1520.68 L338.524 1515.95 Q341.348 1514.82 343.802 1514.24 Q346.255 1513.66 348.292 1513.66 Q353.663 1513.66 356.857 1516.35 Q360.052 1519.03 360.052 1523.52 Q360.052 1525.65 359.241 1527.57 Q358.454 1529.47 356.348 1532.07 Q355.769 1532.74 352.667 1535.95 Q349.566 1539.15 343.917 1544.91 Z" fill="#000000" fill-rule="evenodd" fill-opacity="1" /><path clip-path="url(#clip580)" d="M671.531 1532.02 L701.207 1532.02 L701.207 1535.95 L671.531 1535.95 L671.531 1532.02 Z" fill="#000000" fill-rule="evenodd" fill-opacity="1" /><path clip-path="url(#clip580)" d="M712.11 1544.91 L719.749 1544.91 L719.749 1518.55 L711.439 1520.21 L711.439 1515.95 L719.702 1514.29 L724.378 1514.29 L724.378 1544.91 L732.017 1544.91 L732.017 1548.85 L712.11 1548.85 L712.11 1544.91 Z" fill="#000000" fill-rule="evenodd" fill-opacity="1" /><path clip-path="url(#clip580)" d="M1073.37 1517.37 Q1069.76 1517.37 1067.93 1520.93 Q1066.12 1524.47 1066.12 1531.6 Q1066.12 1538.71 1067.93 1542.27 Q1069.76 1545.82 1073.37 1545.82 Q1077 1545.82 1078.81 1542.27 Q1080.64 1538.71 1080.64 1531.6 Q1080.64 1524.47 1078.81 1520.93 Q1077 1517.37 1073.37 1517.37 M1073.37 1513.66 Q1079.18 1513.66 1082.24 1518.27 Q1085.31 1522.85 1085.31 1531.6 Q1085.31 1540.33 1082.24 1544.94 Q1079.18 1549.52 1073.37 1549.52 Q1067.56 1549.52 1064.48 1544.94 Q1061.43 1540.33 1061.43 1531.6 Q1061.43 1522.85 1064.48 1518.27 Q1067.56 1513.66 1073.37 1513.66 Z" fill="#000000" fill-rule="evenodd" fill-opacity="1" /><path clip-path="url(#clip580)" d="M1435.35 1544.91 L1442.99 1544.91 L1442.99 1518.55 L1434.68 1520.21 L1434.68 1515.95 L1442.94 1514.29 L1447.61 1514.29 L1447.61 1544.91 L1455.25 1544.91 L1455.25 1548.85 L1435.35 1548.85 L1435.35 1544.91 Z" fill="#000000" fill-rule="evenodd" fill-opacity="1" /><path clip-path="url(#clip580)" d="M1811.21 1544.91 L1827.53 1544.91 L1827.53 1548.85 L1805.59 1548.85 L1805.59 1544.91 Q1808.25 1542.16 1812.83 1537.53 Q1817.44 1532.88 1818.62 1531.53 Q1820.87 1529.01 1821.74 1527.27 Q1822.65 1525.51 1822.65 1523.82 Q1822.65 1521.07 1820.7 1519.33 Q1818.78 1517.6 1815.68 1517.6 Q1813.48 1517.6 1811.03 1518.36 Q1808.6 1519.13 1805.82 1520.68 L1805.82 1515.95 Q1808.64 1514.82 1811.1 1514.24 Q1813.55 1513.66 1815.59 1513.66 Q1820.96 1513.66 1824.15 1516.35 Q1827.35 1519.03 1827.35 1523.52 Q1827.35 1525.65 1826.54 1527.57 Q1825.75 1529.47 1823.64 1532.07 Q1823.06 1532.74 1819.96 1535.95 Q1816.86 1539.15 1811.21 1544.91 Z" fill="#000000" fill-rule="evenodd" fill-opacity="1" /><path clip-path="url(#clip580)" d="M2192.4 1530.21 Q2195.76 1530.93 2197.63 1533.2 Q2199.53 1535.47 2199.53 1538.8 Q2199.53 1543.92 2196.01 1546.72 Q2192.5 1549.52 2186.01 1549.52 Q2183.84 1549.52 2181.52 1549.08 Q2179.23 1548.66 2176.78 1547.81 L2176.78 1543.29 Q2178.72 1544.43 2181.04 1545.01 Q2183.35 1545.58 2185.87 1545.58 Q2190.27 1545.58 2192.56 1543.85 Q2194.88 1542.11 2194.88 1538.8 Q2194.88 1535.75 2192.73 1534.03 Q2190.6 1532.3 2186.78 1532.3 L2182.75 1532.3 L2182.75 1528.45 L2186.96 1528.45 Q2190.41 1528.45 2192.24 1527.09 Q2194.07 1525.7 2194.07 1523.11 Q2194.07 1520.45 2192.17 1519.03 Q2190.3 1517.6 2186.78 1517.6 Q2184.86 1517.6 2182.66 1518.01 Q2180.46 1518.43 2177.82 1519.31 L2177.82 1515.14 Q2180.48 1514.4 2182.8 1514.03 Q2185.13 1513.66 2187.19 1513.66 Q2192.52 1513.66 2195.62 1516.09 Q2198.72 1518.5 2198.72 1522.62 Q2198.72 1525.49 2197.08 1527.48 Q2195.43 1529.45 2192.4 1530.21 Z" fill="#000000" fill-rule="evenodd" fill-opacity="1" /><polyline clip-path="url(#clip582)" style="stroke:#000000; stroke-linecap:round; stroke-linejoin:round; stroke-width:2; stroke-opacity:0.1; fill:none" points="
  156.598,1445.72 2352.76,1445.72 
  "/>
<polyline clip-path="url(#clip582)" style="stroke:#000000; stroke-linecap:round; stroke-linejoin:round; stroke-width:2; stroke-opacity:0.1; fill:none" points="
  156.598,1105.23 2352.76,1105.23 
  "/>
<polyline clip-path="url(#clip582)" style="stroke:#000000; stroke-linecap:round; stroke-linejoin:round; stroke-width:2; stroke-opacity:0.1; fill:none" points="
  156.598,764.748 2352.76,764.748 
  "/>
<polyline clip-path="url(#clip582)" style="stroke:#000000; stroke-linecap:round; stroke-linejoin:round; stroke-width:2; stroke-opacity:0.1; fill:none" points="
  156.598,424.264 2352.76,424.264 
  "/>
<polyline clip-path="url(#clip582)" style="stroke:#000000; stroke-linecap:round; stroke-linejoin:round; stroke-width:2; stroke-opacity:0.1; fill:none" points="
  156.598,83.7803 2352.76,83.7803 
  "/>
<polyline clip-path="url(#clip580)" style="stroke:#000000; stroke-linecap:round; stroke-linejoin:round; stroke-width:4; stroke-opacity:1; fill:none" points="
  156.598,1486.45 156.598,47.2441 
  "/>
<polyline clip-path="url(#clip580)" style="stroke:#000000; stroke-linecap:round; stroke-linejoin:round; stroke-width:4; stroke-opacity:1; fill:none" points="
  156.598,1445.72 175.496,1445.72 
  "/>
<polyline clip-path="url(#clip580)" style="stroke:#000000; stroke-linecap:round; stroke-linejoin:round; stroke-width:4; stroke-opacity:1; fill:none" points="
  156.598,1105.23 175.496,1105.23 
  "/>
<polyline clip-path="url(#clip580)" style="stroke:#000000; stroke-linecap:round; stroke-linejoin:round; stroke-width:4; stroke-opacity:1; fill:none" points="
  156.598,764.748 175.496,764.748 
  "/>
<polyline clip-path="url(#clip580)" style="stroke:#000000; stroke-linecap:round; stroke-linejoin:round; stroke-width:4; stroke-opacity:1; fill:none" points="
  156.598,424.264 175.496,424.264 
  "/>
<polyline clip-path="url(#clip580)" style="stroke:#000000; stroke-linecap:round; stroke-linejoin:round; stroke-width:4; stroke-opacity:1; fill:none" points="
  156.598,83.7803 175.496,83.7803 
  "/>
<path clip-path="url(#clip580)" d="M63.4226 1431.51 Q59.8115 1431.51 57.9828 1435.08 Q56.1773 1438.62 56.1773 1445.75 Q56.1773 1452.86 57.9828 1456.42 Q59.8115 1459.96 63.4226 1459.96 Q67.0569 1459.96 68.8624 1456.42 Q70.6911 1452.86 70.6911 1445.75 Q70.6911 1438.62 68.8624 1435.08 Q67.0569 1431.51 63.4226 1431.51 M63.4226 1427.81 Q69.2328 1427.81 72.2883 1432.42 Q75.367 1437 75.367 1445.75 Q75.367 1454.48 72.2883 1459.08 Q69.2328 1463.67 63.4226 1463.67 Q57.6125 1463.67 54.5338 1459.08 Q51.4782 1454.48 51.4782 1445.75 Q51.4782 1437 54.5338 1432.42 Q57.6125 1427.81 63.4226 1427.81 Z" fill="#000000" fill-rule="evenodd" fill-opacity="1" /><path clip-path="url(#clip580)" d="M83.5845 1457.12 L88.4688 1457.12 L88.4688 1463 L83.5845 1463 L83.5845 1457.12 Z" fill="#000000" fill-rule="evenodd" fill-opacity="1" /><path clip-path="url(#clip580)" d="M108.654 1431.51 Q105.043 1431.51 103.214 1435.08 Q101.409 1438.62 101.409 1445.75 Q101.409 1452.86 103.214 1456.42 Q105.043 1459.96 108.654 1459.96 Q112.288 1459.96 114.094 1456.42 Q115.922 1452.86 115.922 1445.75 Q115.922 1438.62 114.094 1435.08 Q112.288 1431.51 108.654 1431.51 M108.654 1427.81 Q114.464 1427.81 117.52 1432.42 Q120.598 1437 120.598 1445.75 Q120.598 1454.48 117.52 1459.08 Q114.464 1463.67 108.654 1463.67 Q102.844 1463.67 99.765 1459.08 Q96.7095 1454.48 96.7095 1445.75 Q96.7095 1437 99.765 1432.42 Q102.844 1427.81 108.654 1427.81 Z" fill="#000000" fill-rule="evenodd" fill-opacity="1" /><path clip-path="url(#clip580)" d="M65.0198 1091.03 Q61.4087 1091.03 59.58 1094.6 Q57.7745 1098.14 57.7745 1105.27 Q57.7745 1112.37 59.58 1115.94 Q61.4087 1119.48 65.0198 1119.48 Q68.6541 1119.48 70.4596 1115.94 Q72.2883 1112.37 72.2883 1105.27 Q72.2883 1098.14 70.4596 1094.6 Q68.6541 1091.03 65.0198 1091.03 M65.0198 1087.33 Q70.83 1087.33 73.8855 1091.93 Q76.9642 1096.52 76.9642 1105.27 Q76.9642 1113.99 73.8855 1118.6 Q70.83 1123.18 65.0198 1123.18 Q59.2097 1123.18 56.131 1118.6 Q53.0754 1113.99 53.0754 1105.27 Q53.0754 1096.52 56.131 1091.93 Q59.2097 1087.33 65.0198 1087.33 Z" fill="#000000" fill-rule="evenodd" fill-opacity="1" /><path clip-path="url(#clip580)" d="M85.1818 1116.63 L90.066 1116.63 L90.066 1122.51 L85.1818 1122.51 L85.1818 1116.63 Z" fill="#000000" fill-rule="evenodd" fill-opacity="1" /><path clip-path="url(#clip580)" d="M104.279 1118.58 L120.598 1118.58 L120.598 1122.51 L98.6539 1122.51 L98.6539 1118.58 Q101.316 1115.82 105.899 1111.19 Q110.506 1106.54 111.686 1105.2 Q113.932 1102.67 114.811 1100.94 Q115.714 1099.18 115.714 1097.49 Q115.714 1094.73 113.77 1093 Q111.848 1091.26 108.746 1091.26 Q106.547 1091.26 104.094 1092.03 Q101.663 1092.79 98.8854 1094.34 L98.8854 1089.62 Q101.709 1088.48 104.163 1087.91 Q106.617 1087.33 108.654 1087.33 Q114.024 1087.33 117.219 1090.01 Q120.413 1092.7 120.413 1097.19 Q120.413 1099.32 119.603 1101.24 Q118.816 1103.14 116.709 1105.73 Q116.131 1106.4 113.029 1109.62 Q109.927 1112.81 104.279 1118.58 Z" fill="#000000" fill-rule="evenodd" fill-opacity="1" /><path clip-path="url(#clip580)" d="M62.9365 750.547 Q59.3254 750.547 57.4967 754.111 Q55.6912 757.653 55.6912 764.783 Q55.6912 771.889 57.4967 775.454 Q59.3254 778.996 62.9365 778.996 Q66.5707 778.996 68.3763 775.454 Q70.205 771.889 70.205 764.783 Q70.205 757.653 68.3763 754.111 Q66.5707 750.547 62.9365 750.547 M62.9365 746.843 Q68.7467 746.843 71.8022 751.449 Q74.8809 756.033 74.8809 764.783 Q74.8809 773.509 71.8022 778.116 Q68.7467 782.699 62.9365 782.699 Q57.1264 782.699 54.0477 778.116 Q50.9921 773.509 50.9921 764.783 Q50.9921 756.033 54.0477 751.449 Q57.1264 746.843 62.9365 746.843 Z" fill="#000000" fill-rule="evenodd" fill-opacity="1" /><path clip-path="url(#clip580)" d="M83.0984 776.148 L87.9827 776.148 L87.9827 782.028 L83.0984 782.028 L83.0984 776.148 Z" fill="#000000" fill-rule="evenodd" fill-opacity="1" /><path clip-path="url(#clip580)" d="M111.015 751.542 L99.2095 769.991 L111.015 769.991 L111.015 751.542 M109.788 747.468 L115.668 747.468 L115.668 769.991 L120.598 769.991 L120.598 773.88 L115.668 773.88 L115.668 782.028 L111.015 782.028 L111.015 773.88 L95.4132 773.88 L95.4132 769.366 L109.788 747.468 Z" fill="#000000" fill-rule="evenodd" fill-opacity="1" /><path clip-path="url(#clip580)" d="M63.2606 410.063 Q59.6495 410.063 57.8208 413.628 Q56.0152 417.169 56.0152 424.299 Q56.0152 431.405 57.8208 434.97 Q59.6495 438.512 63.2606 438.512 Q66.8948 438.512 68.7004 434.97 Q70.5291 431.405 70.5291 424.299 Q70.5291 417.169 68.7004 413.628 Q66.8948 410.063 63.2606 410.063 M63.2606 406.359 Q69.0707 406.359 72.1263 410.966 Q75.205 415.549 75.205 424.299 Q75.205 433.026 72.1263 437.632 Q69.0707 442.215 63.2606 442.215 Q57.4504 442.215 54.3717 437.632 Q51.3162 433.026 51.3162 424.299 Q51.3162 415.549 54.3717 410.966 Q57.4504 406.359 63.2606 406.359 Z" fill="#000000" fill-rule="evenodd" fill-opacity="1" /><path clip-path="url(#clip580)" d="M83.4225 435.665 L88.3067 435.665 L88.3067 441.544 L83.4225 441.544 L83.4225 435.665 Z" fill="#000000" fill-rule="evenodd" fill-opacity="1" /><path clip-path="url(#clip580)" d="M109.071 422.401 Q105.922 422.401 104.071 424.553 Q102.242 426.706 102.242 430.456 Q102.242 434.183 104.071 436.359 Q105.922 438.512 109.071 438.512 Q112.219 438.512 114.047 436.359 Q115.899 434.183 115.899 430.456 Q115.899 426.706 114.047 424.553 Q112.219 422.401 109.071 422.401 M118.353 407.748 L118.353 412.007 Q116.594 411.174 114.788 410.734 Q113.006 410.294 111.246 410.294 Q106.617 410.294 104.163 413.419 Q101.733 416.544 101.385 422.864 Q102.751 420.85 104.811 419.785 Q106.871 418.697 109.348 418.697 Q114.557 418.697 117.566 421.868 Q120.598 425.016 120.598 430.456 Q120.598 435.78 117.45 438.998 Q114.302 442.215 109.071 442.215 Q103.075 442.215 99.9039 437.632 Q96.7326 433.026 96.7326 424.299 Q96.7326 416.104 100.621 411.243 Q104.51 406.359 111.061 406.359 Q112.82 406.359 114.603 406.706 Q116.408 407.054 118.353 407.748 Z" fill="#000000" fill-rule="evenodd" fill-opacity="1" /><path clip-path="url(#clip580)" d="M63.5152 69.5789 Q59.9041 69.5789 58.0754 73.1437 Q56.2699 76.6854 56.2699 83.815 Q56.2699 90.9214 58.0754 94.4862 Q59.9041 98.0279 63.5152 98.0279 Q67.1494 98.0279 68.955 94.4862 Q70.7837 90.9214 70.7837 83.815 Q70.7837 76.6854 68.955 73.1437 Q67.1494 69.5789 63.5152 69.5789 M63.5152 65.8753 Q69.3254 65.8753 72.3809 70.4817 Q75.4596 75.065 75.4596 83.815 Q75.4596 92.5418 72.3809 97.1482 Q69.3254 101.732 63.5152 101.732 Q57.7051 101.732 54.6264 97.1482 Q51.5708 92.5418 51.5708 83.815 Q51.5708 75.065 54.6264 70.4817 Q57.7051 65.8753 63.5152 65.8753 Z" fill="#000000" fill-rule="evenodd" fill-opacity="1" /><path clip-path="url(#clip580)" d="M83.6771 95.1807 L88.5614 95.1807 L88.5614 101.06 L83.6771 101.06 L83.6771 95.1807 Z" fill="#000000" fill-rule="evenodd" fill-opacity="1" /><path clip-path="url(#clip580)" d="M108.746 84.6483 Q105.413 84.6483 103.492 86.4307 Q101.594 88.2131 101.594 91.3381 Q101.594 94.4631 103.492 96.2455 Q105.413 98.0279 108.746 98.0279 Q112.08 98.0279 114.001 96.2455 Q115.922 94.4399 115.922 91.3381 Q115.922 88.2131 114.001 86.4307 Q112.103 84.6483 108.746 84.6483 M104.071 82.6576 Q101.061 81.9168 99.3715 79.8567 Q97.7048 77.7965 97.7048 74.8335 Q97.7048 70.69 100.645 68.2827 Q103.608 65.8753 108.746 65.8753 Q113.908 65.8753 116.848 68.2827 Q119.788 70.69 119.788 74.8335 Q119.788 77.7965 118.098 79.8567 Q116.432 81.9168 113.445 82.6576 Q116.825 83.4446 118.7 85.7363 Q120.598 88.0279 120.598 91.3381 Q120.598 96.3612 117.52 99.0464 Q114.464 101.732 108.746 101.732 Q103.029 101.732 99.9502 99.0464 Q96.8947 96.3612 96.8947 91.3381 Q96.8947 88.0279 98.7928 85.7363 Q100.691 83.4446 104.071 82.6576 M102.358 75.2734 Q102.358 77.9585 104.024 79.4631 Q105.714 80.9678 108.746 80.9678 Q111.756 80.9678 113.445 79.4631 Q115.158 77.9585 115.158 75.2734 Q115.158 72.5882 113.445 71.0836 Q111.756 69.5789 108.746 69.5789 Q105.714 69.5789 104.024 71.0836 Q102.358 72.5882 102.358 75.2734 Z" fill="#000000" fill-rule="evenodd" fill-opacity="1" /><circle clip-path="url(#clip582)" cx="695.023" cy="1445.72" r="14.4" fill="#808080" fill-rule="evenodd" fill-opacity="0.5" stroke="#000000" stroke-opacity="0.5" stroke-width="3.2"/>
<circle clip-path="url(#clip582)" cx="590.349" cy="1445.72" r="14.4" fill="#808080" fill-rule="evenodd" fill-opacity="0.5" stroke="#000000" stroke-opacity="0.5" stroke-width="3.2"/>
<circle clip-path="url(#clip582)" cx="1443.11" cy="1445.72" r="14.4" fill="#808080" fill-rule="evenodd" fill-opacity="0.5" stroke="#000000" stroke-opacity="0.5" stroke-width="3.2"/>
<circle clip-path="url(#clip582)" cx="1783" cy="1445.72" r="14.4" fill="#808080" fill-rule="evenodd" fill-opacity="0.5" stroke="#000000" stroke-opacity="0.5" stroke-width="3.2"/>
<circle clip-path="url(#clip582)" cx="1598.78" cy="1445.72" r="14.4" fill="#808080" fill-rule="evenodd" fill-opacity="0.5" stroke="#000000" stroke-opacity="0.5" stroke-width="3.2"/>
<circle clip-path="url(#clip582)" cx="1143.55" cy="1445.72" r="14.4" fill="#808080" fill-rule="evenodd" fill-opacity="0.5" stroke="#000000" stroke-opacity="0.5" stroke-width="3.2"/>
<circle clip-path="url(#clip582)" cx="1443.22" cy="1445.72" r="14.4" fill="#808080" fill-rule="evenodd" fill-opacity="0.5" stroke="#000000" stroke-opacity="0.5" stroke-width="3.2"/>
<circle clip-path="url(#clip582)" cx="1619.96" cy="1445.72" r="14.4" fill="#808080" fill-rule="evenodd" fill-opacity="0.5" stroke="#000000" stroke-opacity="0.5" stroke-width="3.2"/>
<circle clip-path="url(#clip582)" cx="1297.39" cy="1445.72" r="14.4" fill="#808080" fill-rule="evenodd" fill-opacity="0.5" stroke="#000000" stroke-opacity="0.5" stroke-width="3.2"/>
<circle clip-path="url(#clip582)" cx="723.115" cy="1445.72" r="14.4" fill="#808080" fill-rule="evenodd" fill-opacity="0.5" stroke="#000000" stroke-opacity="0.5" stroke-width="3.2"/>
<circle clip-path="url(#clip582)" cx="1428.65" cy="1445.72" r="14.4" fill="#808080" fill-rule="evenodd" fill-opacity="0.5" stroke="#000000" stroke-opacity="0.5" stroke-width="3.2"/>
<circle clip-path="url(#clip582)" cx="1380.82" cy="1445.72" r="14.4" fill="#808080" fill-rule="evenodd" fill-opacity="0.5" stroke="#000000" stroke-opacity="0.5" stroke-width="3.2"/>
<circle clip-path="url(#clip582)" cx="1050.89" cy="1445.72" r="14.4" fill="#808080" fill-rule="evenodd" fill-opacity="0.5" stroke="#000000" stroke-opacity="0.5" stroke-width="3.2"/>
<circle clip-path="url(#clip582)" cx="1525.63" cy="1445.72" r="14.4" fill="#808080" fill-rule="evenodd" fill-opacity="0.5" stroke="#000000" stroke-opacity="0.5" stroke-width="3.2"/>
<circle clip-path="url(#clip582)" cx="1541.71" cy="1445.72" r="14.4" fill="#808080" fill-rule="evenodd" fill-opacity="0.5" stroke="#000000" stroke-opacity="0.5" stroke-width="3.2"/>
<circle clip-path="url(#clip582)" cx="1362.45" cy="1445.72" r="14.4" fill="#808080" fill-rule="evenodd" fill-opacity="0.5" stroke="#000000" stroke-opacity="0.5" stroke-width="3.2"/>
<circle clip-path="url(#clip582)" cx="1573.48" cy="1445.72" r="14.4" fill="#808080" fill-rule="evenodd" fill-opacity="0.5" stroke="#000000" stroke-opacity="0.5" stroke-width="3.2"/>
<circle clip-path="url(#clip582)" cx="1374.78" cy="1445.72" r="14.4" fill="#808080" fill-rule="evenodd" fill-opacity="0.5" stroke="#000000" stroke-opacity="0.5" stroke-width="3.2"/>
<circle clip-path="url(#clip582)" cx="1470.68" cy="1445.72" r="14.4" fill="#808080" fill-rule="evenodd" fill-opacity="0.5" stroke="#000000" stroke-opacity="0.5" stroke-width="3.2"/>
<circle clip-path="url(#clip582)" cx="708.714" cy="1445.72" r="14.4" fill="#808080" fill-rule="evenodd" fill-opacity="0.5" stroke="#000000" stroke-opacity="0.5" stroke-width="3.2"/>
<circle clip-path="url(#clip582)" cx="713.321" cy="1445.72" r="14.4" fill="#808080" fill-rule="evenodd" fill-opacity="0.5" stroke="#000000" stroke-opacity="0.5" stroke-width="3.2"/>
<circle clip-path="url(#clip582)" cx="1660.34" cy="1445.72" r="14.4" fill="#808080" fill-rule="evenodd" fill-opacity="0.5" stroke="#000000" stroke-opacity="0.5" stroke-width="3.2"/>
<circle clip-path="url(#clip582)" cx="1492.86" cy="1445.72" r="14.4" fill="#808080" fill-rule="evenodd" fill-opacity="0.5" stroke="#000000" stroke-opacity="0.5" stroke-width="3.2"/>
<circle clip-path="url(#clip582)" cx="1726.15" cy="1445.72" r="14.4" fill="#808080" fill-rule="evenodd" fill-opacity="0.5" stroke="#000000" stroke-opacity="0.5" stroke-width="3.2"/>
<circle clip-path="url(#clip582)" cx="1530.17" cy="1445.72" r="14.4" fill="#808080" fill-rule="evenodd" fill-opacity="0.5" stroke="#000000" stroke-opacity="0.5" stroke-width="3.2"/>
<circle clip-path="url(#clip582)" cx="1430.73" cy="1445.72" r="14.4" fill="#808080" fill-rule="evenodd" fill-opacity="0.5" stroke="#000000" stroke-opacity="0.5" stroke-width="3.2"/>
<circle clip-path="url(#clip582)" cx="736.429" cy="1445.72" r="14.4" fill="#808080" fill-rule="evenodd" fill-opacity="0.5" stroke="#000000" stroke-opacity="0.5" stroke-width="3.2"/>
<circle clip-path="url(#clip582)" cx="1596.36" cy="1445.72" r="14.4" fill="#808080" fill-rule="evenodd" fill-opacity="0.5" stroke="#000000" stroke-opacity="0.5" stroke-width="3.2"/>
<circle clip-path="url(#clip582)" cx="703.157" cy="1445.72" r="14.4" fill="#808080" fill-rule="evenodd" fill-opacity="0.5" stroke="#000000" stroke-opacity="0.5" stroke-width="3.2"/>
<circle clip-path="url(#clip582)" cx="1389.09" cy="1445.72" r="14.4" fill="#808080" fill-rule="evenodd" fill-opacity="0.5" stroke="#000000" stroke-opacity="0.5" stroke-width="3.2"/>
<circle clip-path="url(#clip582)" cx="1652.78" cy="1445.72" r="14.4" fill="#808080" fill-rule="evenodd" fill-opacity="0.5" stroke="#000000" stroke-opacity="0.5" stroke-width="3.2"/>
<circle clip-path="url(#clip582)" cx="1023.61" cy="1445.72" r="14.4" fill="#808080" fill-rule="evenodd" fill-opacity="0.5" stroke="#000000" stroke-opacity="0.5" stroke-width="3.2"/>
<circle clip-path="url(#clip582)" cx="1352.65" cy="1445.72" r="14.4" fill="#808080" fill-rule="evenodd" fill-opacity="0.5" stroke="#000000" stroke-opacity="0.5" stroke-width="3.2"/>
<circle clip-path="url(#clip582)" cx="1366.85" cy="1445.72" r="14.4" fill="#808080" fill-rule="evenodd" fill-opacity="0.5" stroke="#000000" stroke-opacity="0.5" stroke-width="3.2"/>
<circle clip-path="url(#clip582)" cx="1624.83" cy="1445.72" r="14.4" fill="#808080" fill-rule="evenodd" fill-opacity="0.5" stroke="#000000" stroke-opacity="0.5" stroke-width="3.2"/>
<circle clip-path="url(#clip582)" cx="1597.42" cy="1445.72" r="14.4" fill="#808080" fill-rule="evenodd" fill-opacity="0.5" stroke="#000000" stroke-opacity="0.5" stroke-width="3.2"/>
<circle clip-path="url(#clip582)" cx="1572.78" cy="1445.72" r="14.4" fill="#808080" fill-rule="evenodd" fill-opacity="0.5" stroke="#000000" stroke-opacity="0.5" stroke-width="3.2"/>
<circle clip-path="url(#clip582)" cx="1810.32" cy="1445.72" r="14.4" fill="#808080" fill-rule="evenodd" fill-opacity="0.5" stroke="#000000" stroke-opacity="0.5" stroke-width="3.2"/>
<circle clip-path="url(#clip582)" cx="1360.84" cy="1445.72" r="14.4" fill="#808080" fill-rule="evenodd" fill-opacity="0.5" stroke="#000000" stroke-opacity="0.5" stroke-width="3.2"/>
<circle clip-path="url(#clip582)" cx="1118.82" cy="1445.72" r="14.4" fill="#808080" fill-rule="evenodd" fill-opacity="0.5" stroke="#000000" stroke-opacity="0.5" stroke-width="3.2"/>
<circle clip-path="url(#clip582)" cx="1479.22" cy="1445.72" r="14.4" fill="#808080" fill-rule="evenodd" fill-opacity="0.5" stroke="#000000" stroke-opacity="0.5" stroke-width="3.2"/>
<circle clip-path="url(#clip582)" cx="1595.18" cy="1445.72" r="14.4" fill="#808080" fill-rule="evenodd" fill-opacity="0.5" stroke="#000000" stroke-opacity="0.5" stroke-width="3.2"/>
<circle clip-path="url(#clip582)" cx="1328.83" cy="1445.72" r="14.4" fill="#808080" fill-rule="evenodd" fill-opacity="0.5" stroke="#000000" stroke-opacity="0.5" stroke-width="3.2"/>
<circle clip-path="url(#clip582)" cx="1603.15" cy="1445.72" r="14.4" fill="#808080" fill-rule="evenodd" fill-opacity="0.5" stroke="#000000" stroke-opacity="0.5" stroke-width="3.2"/>
<circle clip-path="url(#clip582)" cx="731.262" cy="1445.72" r="14.4" fill="#808080" fill-rule="evenodd" fill-opacity="0.5" stroke="#000000" stroke-opacity="0.5" stroke-width="3.2"/>
<circle clip-path="url(#clip582)" cx="1718.35" cy="1445.72" r="14.4" fill="#808080" fill-rule="evenodd" fill-opacity="0.5" stroke="#000000" stroke-opacity="0.5" stroke-width="3.2"/>
<circle clip-path="url(#clip582)" cx="1669.85" cy="1445.72" r="14.4" fill="#808080" fill-rule="evenodd" fill-opacity="0.5" stroke="#000000" stroke-opacity="0.5" stroke-width="3.2"/>
<circle clip-path="url(#clip582)" cx="713.032" cy="1445.72" r="14.4" fill="#808080" fill-rule="evenodd" fill-opacity="0.5" stroke="#000000" stroke-opacity="0.5" stroke-width="3.2"/>
<circle clip-path="url(#clip582)" cx="665.635" cy="1445.72" r="14.4" fill="#808080" fill-rule="evenodd" fill-opacity="0.5" stroke="#000000" stroke-opacity="0.5" stroke-width="3.2"/>
<circle clip-path="url(#clip582)" cx="1428.2" cy="1445.72" r="14.4" fill="#808080" fill-rule="evenodd" fill-opacity="0.5" stroke="#000000" stroke-opacity="0.5" stroke-width="3.2"/>
<circle clip-path="url(#clip582)" cx="1213.56" cy="1445.72" r="14.4" fill="#808080" fill-rule="evenodd" fill-opacity="0.5" stroke="#000000" stroke-opacity="0.5" stroke-width="3.2"/>
<circle clip-path="url(#clip582)" cx="1797.64" cy="1445.72" r="14.4" fill="#808080" fill-rule="evenodd" fill-opacity="0.5" stroke="#000000" stroke-opacity="0.5" stroke-width="3.2"/>
<circle clip-path="url(#clip582)" cx="1281.67" cy="1445.72" r="14.4" fill="#808080" fill-rule="evenodd" fill-opacity="0.5" stroke="#000000" stroke-opacity="0.5" stroke-width="3.2"/>
<circle clip-path="url(#clip582)" cx="1919.01" cy="1445.72" r="14.4" fill="#808080" fill-rule="evenodd" fill-opacity="0.5" stroke="#000000" stroke-opacity="0.5" stroke-width="3.2"/>
<circle clip-path="url(#clip582)" cx="1194.12" cy="1445.72" r="14.4" fill="#808080" fill-rule="evenodd" fill-opacity="0.5" stroke="#000000" stroke-opacity="0.5" stroke-width="3.2"/>
<circle clip-path="url(#clip582)" cx="1610.85" cy="1445.72" r="14.4" fill="#808080" fill-rule="evenodd" fill-opacity="0.5" stroke="#000000" stroke-opacity="0.5" stroke-width="3.2"/>
<circle clip-path="url(#clip582)" cx="1503.88" cy="1445.72" r="14.4" fill="#808080" fill-rule="evenodd" fill-opacity="0.5" stroke="#000000" stroke-opacity="0.5" stroke-width="3.2"/>
<circle clip-path="url(#clip582)" cx="775.252" cy="1445.72" r="14.4" fill="#808080" fill-rule="evenodd" fill-opacity="0.5" stroke="#000000" stroke-opacity="0.5" stroke-width="3.2"/>
<circle clip-path="url(#clip582)" cx="1282.27" cy="1445.72" r="14.4" fill="#808080" fill-rule="evenodd" fill-opacity="0.5" stroke="#000000" stroke-opacity="0.5" stroke-width="3.2"/>
<circle clip-path="url(#clip582)" cx="1124.96" cy="1445.72" r="14.4" fill="#808080" fill-rule="evenodd" fill-opacity="0.5" stroke="#000000" stroke-opacity="0.5" stroke-width="3.2"/>
<circle clip-path="url(#clip582)" cx="1702.38" cy="1445.72" r="14.4" fill="#808080" fill-rule="evenodd" fill-opacity="0.5" stroke="#000000" stroke-opacity="0.5" stroke-width="3.2"/>
<circle clip-path="url(#clip582)" cx="1448.33" cy="1445.72" r="14.4" fill="#808080" fill-rule="evenodd" fill-opacity="0.5" stroke="#000000" stroke-opacity="0.5" stroke-width="3.2"/>
<circle clip-path="url(#clip582)" cx="950.624" cy="1445.72" r="14.4" fill="#808080" fill-rule="evenodd" fill-opacity="0.5" stroke="#000000" stroke-opacity="0.5" stroke-width="3.2"/>
<circle clip-path="url(#clip582)" cx="1327.54" cy="1445.72" r="14.4" fill="#808080" fill-rule="evenodd" fill-opacity="0.5" stroke="#000000" stroke-opacity="0.5" stroke-width="3.2"/>
<circle clip-path="url(#clip582)" cx="1376.42" cy="1445.72" r="14.4" fill="#808080" fill-rule="evenodd" fill-opacity="0.5" stroke="#000000" stroke-opacity="0.5" stroke-width="3.2"/>
<circle clip-path="url(#clip582)" cx="650.432" cy="1445.72" r="14.4" fill="#808080" fill-rule="evenodd" fill-opacity="0.5" stroke="#000000" stroke-opacity="0.5" stroke-width="3.2"/>
<circle clip-path="url(#clip582)" cx="1567.81" cy="1445.72" r="14.4" fill="#808080" fill-rule="evenodd" fill-opacity="0.5" stroke="#000000" stroke-opacity="0.5" stroke-width="3.2"/>
<circle clip-path="url(#clip582)" cx="1293.99" cy="1445.72" r="14.4" fill="#808080" fill-rule="evenodd" fill-opacity="0.5" stroke="#000000" stroke-opacity="0.5" stroke-width="3.2"/>
<circle clip-path="url(#clip582)" cx="1080.64" cy="1445.72" r="14.4" fill="#808080" fill-rule="evenodd" fill-opacity="0.5" stroke="#000000" stroke-opacity="0.5" stroke-width="3.2"/>
<circle clip-path="url(#clip582)" cx="702.27" cy="1445.72" r="14.4" fill="#808080" fill-rule="evenodd" fill-opacity="0.5" stroke="#000000" stroke-opacity="0.5" stroke-width="3.2"/>
<circle clip-path="url(#clip582)" cx="1596.81" cy="1445.72" r="14.4" fill="#808080" fill-rule="evenodd" fill-opacity="0.5" stroke="#000000" stroke-opacity="0.5" stroke-width="3.2"/>
<circle clip-path="url(#clip582)" cx="1126.87" cy="1445.72" r="14.4" fill="#808080" fill-rule="evenodd" fill-opacity="0.5" stroke="#000000" stroke-opacity="0.5" stroke-width="3.2"/>
<circle clip-path="url(#clip582)" cx="1653.85" cy="1445.72" r="14.4" fill="#808080" fill-rule="evenodd" fill-opacity="0.5" stroke="#000000" stroke-opacity="0.5" stroke-width="3.2"/>
<circle clip-path="url(#clip582)" cx="1380.91" cy="1445.72" r="14.4" fill="#808080" fill-rule="evenodd" fill-opacity="0.5" stroke="#000000" stroke-opacity="0.5" stroke-width="3.2"/>
<circle clip-path="url(#clip582)" cx="695.977" cy="1445.72" r="14.4" fill="#808080" fill-rule="evenodd" fill-opacity="0.5" stroke="#000000" stroke-opacity="0.5" stroke-width="3.2"/>
<circle clip-path="url(#clip582)" cx="1467.21" cy="1445.72" r="14.4" fill="#808080" fill-rule="evenodd" fill-opacity="0.5" stroke="#000000" stroke-opacity="0.5" stroke-width="3.2"/>
<circle clip-path="url(#clip582)" cx="1831.63" cy="1445.72" r="14.4" fill="#808080" fill-rule="evenodd" fill-opacity="0.5" stroke="#000000" stroke-opacity="0.5" stroke-width="3.2"/>
<circle clip-path="url(#clip582)" cx="1333.8" cy="1445.72" r="14.4" fill="#808080" fill-rule="evenodd" fill-opacity="0.5" stroke="#000000" stroke-opacity="0.5" stroke-width="3.2"/>
<circle clip-path="url(#clip582)" cx="1642.59" cy="1445.72" r="14.4" fill="#808080" fill-rule="evenodd" fill-opacity="0.5" stroke="#000000" stroke-opacity="0.5" stroke-width="3.2"/>
<circle clip-path="url(#clip582)" cx="1373.75" cy="1445.72" r="14.4" fill="#808080" fill-rule="evenodd" fill-opacity="0.5" stroke="#000000" stroke-opacity="0.5" stroke-width="3.2"/>
<circle clip-path="url(#clip582)" cx="1255.25" cy="1445.72" r="14.4" fill="#808080" fill-rule="evenodd" fill-opacity="0.5" stroke="#000000" stroke-opacity="0.5" stroke-width="3.2"/>
<circle clip-path="url(#clip582)" cx="1714.05" cy="1445.72" r="14.4" fill="#808080" fill-rule="evenodd" fill-opacity="0.5" stroke="#000000" stroke-opacity="0.5" stroke-width="3.2"/>
<circle clip-path="url(#clip582)" cx="1773.85" cy="1445.72" r="14.4" fill="#808080" fill-rule="evenodd" fill-opacity="0.5" stroke="#000000" stroke-opacity="0.5" stroke-width="3.2"/>
<circle clip-path="url(#clip582)" cx="705.608" cy="1445.72" r="14.4" fill="#808080" fill-rule="evenodd" fill-opacity="0.5" stroke="#000000" stroke-opacity="0.5" stroke-width="3.2"/>
<circle clip-path="url(#clip582)" cx="1425.79" cy="1445.72" r="14.4" fill="#808080" fill-rule="evenodd" fill-opacity="0.5" stroke="#000000" stroke-opacity="0.5" stroke-width="3.2"/>
<circle clip-path="url(#clip582)" cx="1405.51" cy="1445.72" r="14.4" fill="#808080" fill-rule="evenodd" fill-opacity="0.5" stroke="#000000" stroke-opacity="0.5" stroke-width="3.2"/>
<circle clip-path="url(#clip582)" cx="1274.4" cy="1445.72" r="14.4" fill="#808080" fill-rule="evenodd" fill-opacity="0.5" stroke="#000000" stroke-opacity="0.5" stroke-width="3.2"/>
<circle clip-path="url(#clip582)" cx="775.772" cy="1445.72" r="14.4" fill="#808080" fill-rule="evenodd" fill-opacity="0.5" stroke="#000000" stroke-opacity="0.5" stroke-width="3.2"/>
<circle clip-path="url(#clip582)" cx="1635.8" cy="1445.72" r="14.4" fill="#808080" fill-rule="evenodd" fill-opacity="0.5" stroke="#000000" stroke-opacity="0.5" stroke-width="3.2"/>
<circle clip-path="url(#clip582)" cx="1294.59" cy="1445.72" r="14.4" fill="#808080" fill-rule="evenodd" fill-opacity="0.5" stroke="#000000" stroke-opacity="0.5" stroke-width="3.2"/>
<circle clip-path="url(#clip582)" cx="713.449" cy="1445.72" r="14.4" fill="#808080" fill-rule="evenodd" fill-opacity="0.5" stroke="#000000" stroke-opacity="0.5" stroke-width="3.2"/>
<circle clip-path="url(#clip582)" cx="1418.86" cy="1445.72" r="14.4" fill="#808080" fill-rule="evenodd" fill-opacity="0.5" stroke="#000000" stroke-opacity="0.5" stroke-width="3.2"/>
<circle clip-path="url(#clip582)" cx="1509.54" cy="1445.72" r="14.4" fill="#808080" fill-rule="evenodd" fill-opacity="0.5" stroke="#000000" stroke-opacity="0.5" stroke-width="3.2"/>
<circle clip-path="url(#clip582)" cx="1681.2" cy="1445.72" r="14.4" fill="#808080" fill-rule="evenodd" fill-opacity="0.5" stroke="#000000" stroke-opacity="0.5" stroke-width="3.2"/>
<circle clip-path="url(#clip582)" cx="1604.45" cy="1445.72" r="14.4" fill="#808080" fill-rule="evenodd" fill-opacity="0.5" stroke="#000000" stroke-opacity="0.5" stroke-width="3.2"/>
<circle clip-path="url(#clip582)" cx="1382.45" cy="1445.72" r="14.4" fill="#808080" fill-rule="evenodd" fill-opacity="0.5" stroke="#000000" stroke-opacity="0.5" stroke-width="3.2"/>
<circle clip-path="url(#clip582)" cx="1118.1" cy="1445.72" r="14.4" fill="#808080" fill-rule="evenodd" fill-opacity="0.5" stroke="#000000" stroke-opacity="0.5" stroke-width="3.2"/>
<circle clip-path="url(#clip582)" cx="684.546" cy="1445.72" r="14.4" fill="#808080" fill-rule="evenodd" fill-opacity="0.5" stroke="#000000" stroke-opacity="0.5" stroke-width="3.2"/>
<circle clip-path="url(#clip582)" cx="1042.62" cy="1445.72" r="14.4" fill="#808080" fill-rule="evenodd" fill-opacity="0.5" stroke="#000000" stroke-opacity="0.5" stroke-width="3.2"/>
<circle clip-path="url(#clip582)" cx="1363.35" cy="1445.72" r="14.4" fill="#808080" fill-rule="evenodd" fill-opacity="0.5" stroke="#000000" stroke-opacity="0.5" stroke-width="3.2"/>
<path clip-path="url(#clip582)" d="
M218.754 1256.69 L222.906 1256.69 L227.058 1256.69 L231.21 1256.69 L235.362 1256.69 L239.514 1256.69 L243.666 1256.69 L247.818 1256.69 L251.97 1256.69 L256.122 1256.69 
  L260.274 1256.69 L264.426 1256.69 L268.578 1256.69 L272.73 1256.69 L276.882 1256.69 L281.034 1256.69 L285.186 1257.07 L289.338 1257.07 L293.49 1257.07 L297.642 1257.07 
  L301.794 1257.07 L305.946 1257.07 L310.098 1257.07 L314.25 1257.07 L318.402 1257.07 L322.554 1257.07 L326.706 1257.07 L330.858 1257.07 L335.01 1257.07 L339.162 1257.07 
  L343.314 1257.07 L347.466 1257.07 L351.618 1256.36 L355.77 1256.36 L359.922 1256.36 L364.074 1256.36 L368.226 1256.36 L372.378 1256.36 L376.53 1256.36 L380.682 1256.36 
  L384.834 1256.36 L388.986 1256.36 L393.138 1256.36 L397.29 1256.36 L401.442 1256.36 L405.594 1256.36 L409.746 1256.36 L413.898 1256.06 L418.05 1256.06 L422.202 1256.06 
  L426.354 1256.06 L430.506 1256.06 L434.658 1256.06 L438.81 1256.06 L442.962 1256.06 L447.114 1256.06 L451.266 1256.06 L455.418 1256.06 L459.57 1256.06 L463.722 1256.06 
  L467.874 1256.06 L472.026 1256.06 L476.177 1256.06 L480.329 1233.46 L484.481 1233.46 L488.633 1233.46 L492.785 1233.46 L496.937 1233.46 L501.089 1233.46 L505.241 1233.46 
  L509.393 1233.46 L513.545 1233.46 L517.697 1233.46 L521.849 1233.46 L526.001 1233.46 L530.153 1233.46 L534.305 1233.46 L538.457 1233.46 L542.609 1232.61 L546.761 1232.61 
  L550.913 1232.61 L555.065 1232.61 L559.217 1232.61 L563.369 1232.61 L567.521 1232.61 L571.673 1232.61 L575.825 1232.61 L579.977 1232.61 L584.129 1232.61 L588.281 1232.61 
  L592.433 1232.61 L596.585 1232.61 L600.737 1232.61 L604.889 1232.61 L609.041 1219.88 L613.193 1219.88 L617.345 1219.88 L621.497 1219.88 L625.649 1219.88 L629.801 1219.88 
  L633.953 1219.88 L638.105 1219.88 L642.257 1219.88 L646.409 1219.88 L650.561 1219.88 L654.713 1219.88 L658.865 1219.88 L663.017 1219.88 L667.169 1219.88 L671.321 1219.88 
  L675.473 1209.72 L679.625 1209.72 L683.777 1209.72 L687.929 1209.72 L692.081 1209.72 L696.233 1209.72 L700.385 1209.72 L704.537 1209.72 L708.689 1209.72 L712.841 1209.72 
  L716.993 1209.72 L721.145 1209.72 L725.297 1209.72 L729.449 1209.72 L733.601 1209.72 L737.753 1255.47 L741.905 1255.47 L746.057 1255.47 L750.209 1255.47 L754.361 1255.47 
  L758.513 1255.47 L762.665 1255.47 L766.817 1255.47 L770.969 1255.47 L775.121 1255.47 L779.273 1255.47 L783.425 1255.47 L787.577 1255.47 L791.729 1255.47 L795.881 1255.47 
  L800.033 1255.47 L804.185 1256.58 L808.337 1256.58 L812.489 1256.58 L816.641 1256.58 L820.793 1256.58 L824.945 1256.58 L829.097 1256.58 L833.249 1256.58 L837.401 1256.58 
  L841.553 1256.58 L845.705 1256.58 L849.857 1256.58 L854.009 1256.58 L858.161 1256.58 L862.313 1256.58 L866.465 1257.27 L870.617 1257.27 L874.769 1257.27 L878.921 1257.27 
  L883.073 1257.27 L887.225 1257.27 L891.377 1257.27 L895.529 1257.27 L899.681 1257.27 L903.833 1257.27 L907.985 1257.27 L912.137 1257.27 L916.289 1257.27 L920.441 1257.27 
  L924.593 1257.27 L928.745 1257.27 L932.897 1257.94 L937.049 1257.94 L941.201 1257.94 L945.353 1257.94 L949.505 1257.94 L953.657 1257.94 L957.809 1257.94 L961.961 1257.94 
  L966.113 1257.94 L970.265 1257.94 L974.417 1257.94 L978.569 1257.94 L982.721 1257.94 L986.873 1257.94 L991.025 1257.94 L995.177 1257.94 L999.329 1238.64 L1003.48 1238.64 
  L1007.63 1238.64 L1011.79 1238.64 L1015.94 1238.64 L1020.09 1238.64 L1024.24 1238.64 L1028.39 1238.64 L1032.55 1238.64 L1036.7 1238.64 L1040.85 1238.64 L1045 1238.64 
  L1049.15 1238.64 L1053.31 1238.64 L1057.46 1238.64 L1061.61 1238.8 L1065.76 1238.8 L1069.91 1238.8 L1074.07 1238.8 L1078.22 1238.8 L1082.37 1238.8 L1086.52 1238.8 
  L1090.67 1238.8 L1094.83 1238.8 L1098.98 1238.8 L1103.13 1238.8 L1107.28 1238.8 L1111.43 1238.8 L1115.59 1238.8 L1119.74 1238.8 L1123.89 1238.8 L1128.04 1242.94 
  L1132.19 1242.94 L1136.35 1242.94 L1140.5 1242.94 L1144.65 1242.94 L1148.8 1242.94 L1152.95 1242.94 L1157.11 1242.94 L1161.26 1242.94 L1165.41 1242.94 L1169.56 1242.94 
  L1173.71 1242.94 L1177.87 1242.94 L1182.02 1242.94 L1186.17 1242.94 L1190.32 1243.17 L1194.47 1243.17 L1198.63 1243.17 L1202.78 1243.17 L1206.93 1243.17 L1211.08 1243.17 
  L1215.23 1243.17 L1219.39 1243.17 L1223.54 1243.17 L1227.69 1243.17 L1231.84 1243.17 L1235.99 1243.17 L1240.15 1243.17 L1244.3 1243.17 L1248.45 1243.17 L1252.6 1243.17 
  L1256.75 861.412 L1260.91 861.412 L1265.06 861.412 L1269.21 861.412 L1273.36 861.412 L1277.51 861.412 L1281.67 861.412 L1285.82 861.412 L1289.97 861.412 L1294.12 861.412 
  L1298.27 861.412 L1302.43 861.412 L1306.58 861.412 L1310.73 861.412 L1314.88 861.412 L1319.03 861.412 L1323.19 844.881 L1327.34 844.881 L1331.49 844.881 L1335.64 844.881 
  L1339.79 844.881 L1343.95 844.881 L1348.1 844.881 L1352.25 844.881 L1356.4 844.881 L1360.55 844.881 L1364.71 844.881 L1368.86 844.881 L1373.01 844.881 L1377.16 844.881 
  L1381.31 844.881 L1385.46 866.315 L1389.62 866.315 L1393.77 866.315 L1397.92 866.315 L1402.07 866.315 L1406.22 866.315 L1410.38 866.315 L1414.53 866.315 L1418.68 866.315 
  L1422.83 866.315 L1426.98 866.315 L1431.14 866.315 L1435.29 866.315 L1439.44 866.315 L1443.59 866.315 L1447.74 866.315 L1451.9 872.251 L1456.05 872.251 L1460.2 872.251 
  L1464.35 872.251 L1468.5 872.251 L1472.66 872.251 L1476.81 872.251 L1480.96 872.251 L1485.11 872.251 L1489.26 872.251 L1493.42 872.251 L1497.57 872.251 L1501.72 872.251 
  L1505.87 872.251 L1510.02 872.251 L1514.18 895.957 L1518.33 895.957 L1522.48 895.957 L1526.63 895.957 L1530.78 895.957 L1534.94 895.957 L1539.09 895.957 L1543.24 895.957 
  L1547.39 895.957 L1551.54 895.957 L1555.7 895.957 L1559.85 895.957 L1564 895.957 L1568.15 895.957 L1572.3 895.957 L1576.46 895.957 L1580.61 886.395 L1584.76 886.395 
  L1588.91 886.395 L1593.06 886.395 L1597.22 886.395 L1601.37 886.395 L1605.52 886.395 L1609.67 886.395 L1613.82 886.395 L1617.98 886.395 L1622.13 886.395 L1626.28 886.395 
  L1630.43 886.395 L1634.58 886.395 L1638.74 886.395 L1642.89 886.395 L1647.04 913.011 L1651.19 913.011 L1655.34 913.011 L1659.5 913.011 L1663.65 913.011 L1667.8 913.011 
  L1671.95 913.011 L1676.1 913.011 L1680.26 913.011 L1684.41 913.011 L1688.56 913.011 L1692.71 913.011 L1696.86 913.011 L1701.02 913.011 L1705.17 913.011 L1709.32 917 
  L1713.47 917 L1717.62 917 L1721.78 917 L1725.93 917 L1730.08 917 L1734.23 917 L1738.38 917 L1742.54 917 L1746.69 917 L1750.84 917 
  L1754.99 917 L1759.14 917 L1763.3 917 L1767.45 917 L1771.6 917 L1775.75 1182.57 L1779.9 1182.57 L1784.06 1182.57 L1788.21 1182.57 L1792.36 1182.57 
  L1796.51 1182.57 L1800.66 1182.57 L1804.82 1182.57 L1808.97 1182.57 L1813.12 1182.57 L1817.27 1182.57 L1821.42 1182.57 L1825.58 1182.57 L1829.73 1182.57 L1833.88 1182.57 
  L1838.03 1186.89 L1842.18 1186.89 L1846.34 1186.89 L1850.49 1186.89 L1854.64 1186.89 L1858.79 1186.89 L1862.94 1186.89 L1867.1 1186.89 L1871.25 1186.89 L1875.4 1186.89 
  L1879.55 1186.89 L1883.7 1186.89 L1887.86 1186.89 L1892.01 1186.89 L1896.16 1186.89 L1900.31 1186.89 L1904.46 1190.2 L1908.62 1190.2 L1912.77 1190.2 L1916.92 1190.2 
  L1921.07 1190.2 L1925.22 1190.2 L1929.38 1190.2 L1933.53 1190.2 L1937.68 1190.2 L1941.83 1190.2 L1945.98 1190.2 L1950.14 1190.2 L1954.29 1190.2 L1958.44 1190.2 
  L1962.59 1190.2 L1966.74 1190.2 L1970.9 1192 L1975.05 1192 L1979.2 1192 L1983.35 1192 L1987.5 1192 L1991.66 1192 L1995.81 1192 L1999.96 1192 
  L2004.11 1192 L2008.26 1192 L2012.42 1192 L2016.57 1192 L2020.72 1192 L2024.87 1192 L2029.02 1192 L2033.18 1203.17 L2037.33 1203.17 L2041.48 1203.17 
  L2045.63 1203.17 L2049.78 1203.17 L2053.94 1203.17 L2058.09 1203.17 L2062.24 1203.17 L2066.39 1203.17 L2070.54 1203.17 L2074.7 1203.17 L2078.85 1203.17 L2083 1203.17 
  L2087.15 1203.17 L2091.3 1203.17 L2095.46 1203.17 L2099.61 1204.21 L2103.76 1204.21 L2107.91 1204.21 L2112.06 1204.21 L2116.22 1204.21 L2120.37 1204.21 L2124.52 1204.21 
  L2128.67 1204.21 L2132.82 1204.21 L2136.98 1204.21 L2141.13 1204.21 L2145.28 1204.21 L2149.43 1204.21 L2153.58 1204.21 L2157.74 1204.21 L2161.89 1204.54 L2166.04 1204.54 
  L2170.19 1204.54 L2174.34 1204.54 L2178.5 1204.54 L2182.65 1204.54 L2186.8 1204.54 L2190.95 1204.54 L2195.1 1204.54 L2199.26 1204.54 L2203.41 1204.54 L2207.56 1204.54 
  L2211.71 1204.54 L2215.86 1204.54 L2220.02 1204.54 L2224.17 1204.54 L2228.32 1204.54 L2232.47 1204.54 L2236.62 1204.54 L2240.78 1204.54 L2244.93 1204.54 L2249.08 1204.54 
  L2253.23 1204.54 L2257.38 1204.54 L2261.54 1204.54 L2265.69 1204.54 L2269.84 1204.54 L2273.99 1204.54 L2278.14 1204.54 L2282.3 1204.54 L2286.45 1204.54 L2290.6 1204.54 
  L2290.6 1202.56 L2286.45 1202.56 L2282.3 1202.56 L2278.14 1202.56 L2273.99 1202.56 L2269.84 1202.56 L2265.69 1202.56 L2261.54 1202.56 L2257.38 1202.56 L2253.23 1202.56 
  L2249.08 1202.56 L2244.93 1202.56 L2240.78 1202.56 L2236.62 1202.56 L2232.47 1202.56 L2228.32 1202.56 L2224.17 1202.54 L2220.02 1202.54 L2215.86 1202.54 L2211.71 1202.54 
  L2207.56 1202.54 L2203.41 1202.54 L2199.26 1202.54 L2195.1 1202.54 L2190.95 1202.54 L2186.8 1202.54 L2182.65 1202.54 L2178.5 1202.54 L2174.34 1202.54 L2170.19 1202.54 
  L2166.04 1202.54 L2161.89 1202.54 L2157.74 1202.24 L2153.58 1202.24 L2149.43 1202.24 L2145.28 1202.24 L2141.13 1202.24 L2136.98 1202.24 L2132.82 1202.24 L2128.67 1202.24 
  L2124.52 1202.24 L2120.37 1202.24 L2116.22 1202.24 L2112.06 1202.24 L2107.91 1202.24 L2103.76 1202.24 L2099.61 1202.24 L2095.46 1201.07 L2091.3 1201.07 L2087.15 1201.07 
  L2083 1201.07 L2078.85 1201.07 L2074.7 1201.07 L2070.54 1201.07 L2066.39 1201.07 L2062.24 1201.07 L2058.09 1201.07 L2053.94 1201.07 L2049.78 1201.07 L2045.63 1201.07 
  L2041.48 1201.07 L2037.33 1201.07 L2033.18 1201.07 L2029.02 1189.79 L2024.87 1189.79 L2020.72 1189.79 L2016.57 1189.79 L2012.42 1189.79 L2008.26 1189.79 L2004.11 1189.79 
  L1999.96 1189.79 L1995.81 1189.79 L1991.66 1189.79 L1987.5 1189.79 L1983.35 1189.79 L1979.2 1189.79 L1975.05 1189.79 L1970.9 1189.79 L1966.74 1188 L1962.59 1188 
  L1958.44 1188 L1954.29 1188 L1950.14 1188 L1945.98 1188 L1941.83 1188 L1937.68 1188 L1933.53 1188 L1929.38 1188 L1925.22 1188 L1921.07 1188 
  L1916.92 1188 L1912.77 1188 L1908.62 1188 L1904.46 1188 L1900.31 1184.47 L1896.16 1184.47 L1892.01 1184.47 L1887.86 1184.47 L1883.7 1184.47 L1879.55 1184.47 
  L1875.4 1184.47 L1871.25 1184.47 L1867.1 1184.47 L1862.94 1184.47 L1858.79 1184.47 L1854.64 1184.47 L1850.49 1184.47 L1846.34 1184.47 L1842.18 1184.47 L1838.03 1184.47 
  L1833.88 1180.24 L1829.73 1180.24 L1825.58 1180.24 L1821.42 1180.24 L1817.27 1180.24 L1813.12 1180.24 L1808.97 1180.24 L1804.82 1180.24 L1800.66 1180.24 L1796.51 1180.24 
  L1792.36 1180.24 L1788.21 1180.24 L1784.06 1180.24 L1779.9 1180.24 L1775.75 1180.24 L1771.6 911.573 L1767.45 911.573 L1763.3 911.573 L1759.14 911.573 L1754.99 911.573 
  L1750.84 911.573 L1746.69 911.573 L1742.54 911.573 L1738.38 911.573 L1734.23 911.573 L1730.08 911.573 L1725.93 911.573 L1721.78 911.573 L1717.62 911.573 L1713.47 911.573 
  L1709.32 911.573 L1705.17 907.112 L1701.02 907.112 L1696.86 907.112 L1692.71 907.112 L1688.56 907.112 L1684.41 907.112 L1680.26 907.112 L1676.1 907.112 L1671.95 907.112 
  L1667.8 907.112 L1663.65 907.112 L1659.5 907.112 L1655.34 907.112 L1651.19 907.112 L1647.04 907.112 L1642.89 880.847 L1638.74 880.847 L1634.58 880.847 L1630.43 880.847 
  L1626.28 880.847 L1622.13 880.847 L1617.98 880.847 L1613.82 880.847 L1609.67 880.847 L1605.52 880.847 L1601.37 880.847 L1597.22 880.847 L1593.06 880.847 L1588.91 880.847 
  L1584.76 880.847 L1580.61 880.847 L1576.46 890.755 L1572.3 890.755 L1568.15 890.755 L1564 890.755 L1559.85 890.755 L1555.7 890.755 L1551.54 890.755 L1547.39 890.755 
  L1543.24 890.755 L1539.09 890.755 L1534.94 890.755 L1530.78 890.755 L1526.63 890.755 L1522.48 890.755 L1518.33 890.755 L1514.18 890.755 L1510.02 866.201 L1505.87 866.201 
  L1501.72 866.201 L1497.57 866.201 L1493.42 866.201 L1489.26 866.201 L1485.11 866.201 L1480.96 866.201 L1476.81 866.201 L1472.66 866.201 L1468.5 866.201 L1464.35 866.201 
  L1460.2 866.201 L1456.05 866.201 L1451.9 866.201 L1447.74 860.203 L1443.59 860.203 L1439.44 860.203 L1435.29 860.203 L1431.14 860.203 L1426.98 860.203 L1422.83 860.203 
  L1418.68 860.203 L1414.53 860.203 L1410.38 860.203 L1406.22 860.203 L1402.07 860.203 L1397.92 860.203 L1393.77 860.203 L1389.62 860.203 L1385.46 860.203 L1381.31 838.142 
  L1377.16 838.142 L1373.01 838.142 L1368.86 838.142 L1364.71 838.142 L1360.55 838.142 L1356.4 838.142 L1352.25 838.142 L1348.1 838.142 L1343.95 838.142 L1339.79 838.142 
  L1335.64 838.142 L1331.49 838.142 L1327.34 838.142 L1323.19 838.142 L1319.03 855.078 L1314.88 855.078 L1310.73 855.078 L1306.58 855.078 L1302.43 855.078 L1298.27 855.078 
  L1294.12 855.078 L1289.97 855.078 L1285.82 855.078 L1281.67 855.078 L1277.51 855.078 L1273.36 855.078 L1269.21 855.078 L1265.06 855.078 L1260.91 855.078 L1256.75 855.078 
  L1252.6 1241.47 L1248.45 1241.47 L1244.3 1241.47 L1240.15 1241.47 L1235.99 1241.47 L1231.84 1241.47 L1227.69 1241.47 L1223.54 1241.47 L1219.39 1241.47 L1215.23 1241.47 
  L1211.08 1241.47 L1206.93 1241.47 L1202.78 1241.47 L1198.63 1241.47 L1194.47 1241.47 L1190.32 1241.47 L1186.17 1241.25 L1182.02 1241.25 L1177.87 1241.25 L1173.71 1241.25 
  L1169.56 1241.25 L1165.41 1241.25 L1161.26 1241.25 L1157.11 1241.25 L1152.95 1241.25 L1148.8 1241.25 L1144.65 1241.25 L1140.5 1241.25 L1136.35 1241.25 L1132.19 1241.25 
  L1128.04 1241.25 L1123.89 1236.97 L1119.74 1236.97 L1115.59 1236.97 L1111.43 1236.97 L1107.28 1236.97 L1103.13 1236.97 L1098.98 1236.97 L1094.83 1236.97 L1090.67 1236.97 
  L1086.52 1236.97 L1082.37 1236.97 L1078.22 1236.97 L1074.07 1236.97 L1069.91 1236.97 L1065.76 1236.97 L1061.61 1236.97 L1057.46 1236.82 L1053.31 1236.82 L1049.15 1236.82 
  L1045 1236.82 L1040.85 1236.82 L1036.7 1236.82 L1032.55 1236.82 L1028.39 1236.82 L1024.24 1236.82 L1020.09 1236.82 L1015.94 1236.82 L1011.79 1236.82 L1007.63 1236.82 
  L1003.48 1236.82 L999.329 1236.82 L995.177 1256.53 L991.025 1256.53 L986.873 1256.53 L982.721 1256.53 L978.569 1256.53 L974.417 1256.53 L970.265 1256.53 L966.113 1256.53 
  L961.961 1256.53 L957.809 1256.53 L953.657 1256.53 L949.505 1256.53 L945.353 1256.53 L941.201 1256.53 L937.049 1256.53 L932.897 1256.53 L928.745 1255.78 L924.593 1255.78 
  L920.441 1255.78 L916.289 1255.78 L912.137 1255.78 L907.985 1255.78 L903.833 1255.78 L899.681 1255.78 L895.529 1255.78 L891.377 1255.78 L887.225 1255.78 L883.073 1255.78 
  L878.921 1255.78 L874.769 1255.78 L870.617 1255.78 L866.465 1255.78 L862.313 1255.1 L858.161 1255.1 L854.009 1255.1 L849.857 1255.1 L845.705 1255.1 L841.553 1255.1 
  L837.401 1255.1 L833.249 1255.1 L829.097 1255.1 L824.945 1255.1 L820.793 1255.1 L816.641 1255.1 L812.489 1255.1 L808.337 1255.1 L804.185 1255.1 L800.033 1254.01 
  L795.881 1254.01 L791.729 1254.01 L787.577 1254.01 L783.425 1254.01 L779.273 1254.01 L775.121 1254.01 L770.969 1254.01 L766.817 1254.01 L762.665 1254.01 L758.513 1254.01 
  L754.361 1254.01 L750.209 1254.01 L746.057 1254.01 L741.905 1254.01 L737.753 1254.01 L733.601 1207.43 L729.449 1207.43 L725.297 1207.43 L721.145 1207.43 L716.993 1207.43 
  L712.841 1207.43 L708.689 1207.43 L704.537 1207.43 L700.385 1207.43 L696.233 1207.43 L692.081 1207.43 L687.929 1207.43 L683.777 1207.43 L679.625 1207.43 L675.473 1207.43 
  L671.321 1217.8 L667.169 1217.8 L663.017 1217.8 L658.865 1217.8 L654.713 1217.8 L650.561 1217.8 L646.409 1217.8 L642.257 1217.8 L638.105 1217.8 L633.953 1217.8 
  L629.801 1217.8 L625.649 1217.8 L621.497 1217.8 L617.345 1217.8 L613.193 1217.8 L609.041 1217.8 L604.889 1230.7 L600.737 1230.7 L596.585 1230.7 L592.433 1230.7 
  L588.281 1230.7 L584.129 1230.7 L579.977 1230.7 L575.825 1230.7 L571.673 1230.7 L567.521 1230.7 L563.369 1230.7 L559.217 1230.7 L555.065 1230.7 L550.913 1230.7 
  L546.761 1230.7 L542.609 1230.7 L538.457 1231.5 L534.305 1231.5 L530.153 1231.5 L526.001 1231.5 L521.849 1231.5 L517.697 1231.5 L513.545 1231.5 L509.393 1231.5 
  L505.241 1231.5 L501.089 1231.5 L496.937 1231.5 L492.785 1231.5 L488.633 1231.5 L484.481 1231.5 L480.329 1231.5 L476.177 1254.59 L472.026 1254.59 L467.874 1254.59 
  L463.722 1254.59 L459.57 1254.59 L455.418 1254.59 L451.266 1254.59 L447.114 1254.59 L442.962 1254.59 L438.81 1254.59 L434.658 1254.59 L430.506 1254.59 L426.354 1254.59 
  L422.202 1254.59 L418.05 1254.59 L413.898 1254.59 L409.746 1254.88 L405.594 1254.88 L401.442 1254.88 L397.29 1254.88 L393.138 1254.88 L388.986 1254.88 L384.834 1254.88 
  L380.682 1254.88 L376.53 1254.88 L372.378 1254.88 L368.226 1254.88 L364.074 1254.88 L359.922 1254.88 L355.77 1254.88 L351.618 1254.88 L347.466 1255.53 L343.314 1255.53 
  L339.162 1255.53 L335.01 1255.53 L330.858 1255.53 L326.706 1255.53 L322.554 1255.53 L318.402 1255.53 L314.25 1255.53 L310.098 1255.53 L305.946 1255.53 L301.794 1255.53 
  L297.642 1255.53 L293.49 1255.53 L289.338 1255.53 L285.186 1255.53 L281.034 1255.06 L276.882 1255.06 L272.73 1255.06 L268.578 1255.06 L264.426 1255.06 L260.274 1255.06 
  L256.122 1255.06 L251.97 1255.06 L247.818 1255.06 L243.666 1255.06 L239.514 1255.06 L235.362 1255.06 L231.21 1255.06 L227.058 1255.06 L222.906 1255.06 L218.754 1255.06 
   Z
  " fill="#000000" fill-rule="evenodd" fill-opacity="0.5"/>
<polyline clip-path="url(#clip582)" style="stroke:#000000; stroke-linecap:round; stroke-linejoin:round; stroke-width:4; stroke-opacity:1; fill:none" points="
  218.754,1255.88 222.906,1255.88 227.058,1255.88 231.21,1255.88 235.362,1255.88 239.514,1255.88 243.666,1255.88 247.818,1255.88 251.97,1255.88 256.122,1255.88 
  260.274,1255.88 264.426,1255.88 268.578,1255.88 272.73,1255.88 276.882,1255.88 281.034,1255.88 285.186,1256.3 289.338,1256.3 293.49,1256.3 297.642,1256.3 
  301.794,1256.3 305.946,1256.3 310.098,1256.3 314.25,1256.3 318.402,1256.3 322.554,1256.3 326.706,1256.3 330.858,1256.3 335.01,1256.3 339.162,1256.3 
  343.314,1256.3 347.466,1256.3 351.618,1255.62 355.77,1255.62 359.922,1255.62 364.074,1255.62 368.226,1255.62 372.378,1255.62 376.53,1255.62 380.682,1255.62 
  384.834,1255.62 388.986,1255.62 393.138,1255.62 397.29,1255.62 401.442,1255.62 405.594,1255.62 409.746,1255.62 413.898,1255.33 418.05,1255.33 422.202,1255.33 
  426.354,1255.33 430.506,1255.33 434.658,1255.33 438.81,1255.33 442.962,1255.33 447.114,1255.33 451.266,1255.33 455.418,1255.33 459.57,1255.33 463.722,1255.33 
  467.874,1255.33 472.026,1255.33 476.177,1255.33 480.329,1232.48 484.481,1232.48 488.633,1232.48 492.785,1232.48 496.937,1232.48 501.089,1232.48 505.241,1232.48 
  509.393,1232.48 513.545,1232.48 517.697,1232.48 521.849,1232.48 526.001,1232.48 530.153,1232.48 534.305,1232.48 538.457,1232.48 542.609,1231.66 546.761,1231.66 
  550.913,1231.66 555.065,1231.66 559.217,1231.66 563.369,1231.66 567.521,1231.66 571.673,1231.66 575.825,1231.66 579.977,1231.66 584.129,1231.66 588.281,1231.66 
  592.433,1231.66 596.585,1231.66 600.737,1231.66 604.889,1231.66 609.041,1218.84 613.193,1218.84 617.345,1218.84 621.497,1218.84 625.649,1218.84 629.801,1218.84 
  633.953,1218.84 638.105,1218.84 642.257,1218.84 646.409,1218.84 650.561,1218.84 654.713,1218.84 658.865,1218.84 663.017,1218.84 667.169,1218.84 671.321,1218.84 
  675.473,1208.58 679.625,1208.58 683.777,1208.58 687.929,1208.58 692.081,1208.58 696.233,1208.58 700.385,1208.58 704.537,1208.58 708.689,1208.58 712.841,1208.58 
  716.993,1208.58 721.145,1208.58 725.297,1208.58 729.449,1208.58 733.601,1208.58 737.753,1254.74 741.905,1254.74 746.057,1254.74 750.209,1254.74 754.361,1254.74 
  758.513,1254.74 762.665,1254.74 766.817,1254.74 770.969,1254.74 775.121,1254.74 779.273,1254.74 783.425,1254.74 787.577,1254.74 791.729,1254.74 795.881,1254.74 
  800.033,1254.74 804.185,1255.84 808.337,1255.84 812.489,1255.84 816.641,1255.84 820.793,1255.84 824.945,1255.84 829.097,1255.84 833.249,1255.84 837.401,1255.84 
  841.553,1255.84 845.705,1255.84 849.857,1255.84 854.009,1255.84 858.161,1255.84 862.313,1255.84 866.465,1256.52 870.617,1256.52 874.769,1256.52 878.921,1256.52 
  883.073,1256.52 887.225,1256.52 891.377,1256.52 895.529,1256.52 899.681,1256.52 903.833,1256.52 907.985,1256.52 912.137,1256.52 916.289,1256.52 920.441,1256.52 
  924.593,1256.52 928.745,1256.52 932.897,1257.23 937.049,1257.23 941.201,1257.23 945.353,1257.23 949.505,1257.23 953.657,1257.23 957.809,1257.23 961.961,1257.23 
  966.113,1257.23 970.265,1257.23 974.417,1257.23 978.569,1257.23 982.721,1257.23 986.873,1257.23 991.025,1257.23 995.177,1257.23 999.329,1237.73 1003.48,1237.73 
  1007.63,1237.73 1011.79,1237.73 1015.94,1237.73 1020.09,1237.73 1024.24,1237.73 1028.39,1237.73 1032.55,1237.73 1036.7,1237.73 1040.85,1237.73 1045,1237.73 
  1049.15,1237.73 1053.31,1237.73 1057.46,1237.73 1061.61,1237.89 1065.76,1237.89 1069.91,1237.89 1074.07,1237.89 1078.22,1237.89 1082.37,1237.89 1086.52,1237.89 
  1090.67,1237.89 1094.83,1237.89 1098.98,1237.89 1103.13,1237.89 1107.28,1237.89 1111.43,1237.89 1115.59,1237.89 1119.74,1237.89 1123.89,1237.89 1128.04,1242.09 
  1132.19,1242.09 1136.35,1242.09 1140.5,1242.09 1144.65,1242.09 1148.8,1242.09 1152.95,1242.09 1157.11,1242.09 1161.26,1242.09 1165.41,1242.09 1169.56,1242.09 
  1173.71,1242.09 1177.87,1242.09 1182.02,1242.09 1186.17,1242.09 1190.32,1242.32 1194.47,1242.32 1198.63,1242.32 1202.78,1242.32 1206.93,1242.32 1211.08,1242.32 
  1215.23,1242.32 1219.39,1242.32 1223.54,1242.32 1227.69,1242.32 1231.84,1242.32 1235.99,1242.32 1240.15,1242.32 1244.3,1242.32 1248.45,1242.32 1252.6,1242.32 
  1256.75,858.245 1260.91,858.245 1265.06,858.245 1269.21,858.245 1273.36,858.245 1277.51,858.245 1281.67,858.245 1285.82,858.245 1289.97,858.245 1294.12,858.245 
  1298.27,858.245 1302.43,858.245 1306.58,858.245 1310.73,858.245 1314.88,858.245 1319.03,858.245 1323.19,841.512 1327.34,841.512 1331.49,841.512 1335.64,841.512 
  1339.79,841.512 1343.95,841.512 1348.1,841.512 1352.25,841.512 1356.4,841.512 1360.55,841.512 1364.71,841.512 1368.86,841.512 1373.01,841.512 1377.16,841.512 
  1381.31,841.512 1385.46,863.259 1389.62,863.259 1393.77,863.259 1397.92,863.259 1402.07,863.259 1406.22,863.259 1410.38,863.259 1414.53,863.259 1418.68,863.259 
  1422.83,863.259 1426.98,863.259 1431.14,863.259 1435.29,863.259 1439.44,863.259 1443.59,863.259 1447.74,863.259 1451.9,869.226 1456.05,869.226 1460.2,869.226 
  1464.35,869.226 1468.5,869.226 1472.66,869.226 1476.81,869.226 1480.96,869.226 1485.11,869.226 1489.26,869.226 1493.42,869.226 1497.57,869.226 1501.72,869.226 
  1505.87,869.226 1510.02,869.226 1514.18,893.356 1518.33,893.356 1522.48,893.356 1526.63,893.356 1530.78,893.356 1534.94,893.356 1539.09,893.356 1543.24,893.356 
  1547.39,893.356 1551.54,893.356 1555.7,893.356 1559.85,893.356 1564,893.356 1568.15,893.356 1572.3,893.356 1576.46,893.356 1580.61,883.621 1584.76,883.621 
  1588.91,883.621 1593.06,883.621 1597.22,883.621 1601.37,883.621 1605.52,883.621 1609.67,883.621 1613.82,883.621 1617.98,883.621 1622.13,883.621 1626.28,883.621 
  1630.43,883.621 1634.58,883.621 1638.74,883.621 1642.89,883.621 1647.04,910.061 1651.19,910.061 1655.34,910.061 1659.5,910.061 1663.65,910.061 1667.8,910.061 
  1671.95,910.061 1676.1,910.061 1680.26,910.061 1684.41,910.061 1688.56,910.061 1692.71,910.061 1696.86,910.061 1701.02,910.061 1705.17,910.061 1709.32,914.287 
  1713.47,914.287 1717.62,914.287 1721.78,914.287 1725.93,914.287 1730.08,914.287 1734.23,914.287 1738.38,914.287 1742.54,914.287 1746.69,914.287 1750.84,914.287 
  1754.99,914.287 1759.14,914.287 1763.3,914.287 1767.45,914.287 1771.6,914.287 1775.75,1181.4 1779.9,1181.4 1784.06,1181.4 1788.21,1181.4 1792.36,1181.4 
  1796.51,1181.4 1800.66,1181.4 1804.82,1181.4 1808.97,1181.4 1813.12,1181.4 1817.27,1181.4 1821.42,1181.4 1825.58,1181.4 1829.73,1181.4 1833.88,1181.4 
  1838.03,1185.68 1842.18,1185.68 1846.34,1185.68 1850.49,1185.68 1854.64,1185.68 1858.79,1185.68 1862.94,1185.68 1867.1,1185.68 1871.25,1185.68 1875.4,1185.68 
  1879.55,1185.68 1883.7,1185.68 1887.86,1185.68 1892.01,1185.68 1896.16,1185.68 1900.31,1185.68 1904.46,1189.1 1908.62,1189.1 1912.77,1189.1 1916.92,1189.1 
  1921.07,1189.1 1925.22,1189.1 1929.38,1189.1 1933.53,1189.1 1937.68,1189.1 1941.83,1189.1 1945.98,1189.1 1950.14,1189.1 1954.29,1189.1 1958.44,1189.1 
  1962.59,1189.1 1966.74,1189.1 1970.9,1190.9 1975.05,1190.9 1979.2,1190.9 1983.35,1190.9 1987.5,1190.9 1991.66,1190.9 1995.81,1190.9 1999.96,1190.9 
  2004.11,1190.9 2008.26,1190.9 2012.42,1190.9 2016.57,1190.9 2020.72,1190.9 2024.87,1190.9 2029.02,1190.9 2033.18,1202.12 2037.33,1202.12 2041.48,1202.12 
  2045.63,1202.12 2049.78,1202.12 2053.94,1202.12 2058.09,1202.12 2062.24,1202.12 2066.39,1202.12 2070.54,1202.12 2074.7,1202.12 2078.85,1202.12 2083,1202.12 
  2087.15,1202.12 2091.3,1202.12 2095.46,1202.12 2099.61,1203.23 2103.76,1203.23 2107.91,1203.23 2112.06,1203.23 2116.22,1203.23 2120.37,1203.23 2124.52,1203.23 
  2128.67,1203.23 2132.82,1203.23 2136.98,1203.23 2141.13,1203.23 2145.28,1203.23 2149.43,1203.23 2153.58,1203.23 2157.74,1203.23 2161.89,1203.54 2166.04,1203.54 
  2170.19,1203.54 2174.34,1203.54 2178.5,1203.54 2182.65,1203.54 2186.8,1203.54 2190.95,1203.54 2195.1,1203.54 2199.26,1203.54 2203.41,1203.54 2207.56,1203.54 
  2211.71,1203.54 2215.86,1203.54 2220.02,1203.54 2224.17,1203.54 2228.32,1203.55 2232.47,1203.55 2236.62,1203.55 2240.78,1203.55 2244.93,1203.55 2249.08,1203.55 
  2253.23,1203.55 2257.38,1203.55 2261.54,1203.55 2265.69,1203.55 2269.84,1203.55 2273.99,1203.55 2278.14,1203.55 2282.3,1203.55 2286.45,1203.55 2290.6,1203.55 
  
  "/>
<polyline clip-path="url(#clip582)" style="stroke:#808080; stroke-linecap:round; stroke-linejoin:round; stroke-width:4; stroke-opacity:1; fill:none" stroke-dasharray="16, 10" points="
  218.754,1445.72 222.906,1445.72 227.058,1445.72 231.21,1445.72 235.362,1445.72 239.514,1445.72 243.666,1445.72 247.818,1445.72 251.97,1445.72 256.122,1445.72 
  260.274,1445.72 264.426,1445.72 268.578,1445.72 272.73,1445.72 276.882,1445.72 281.034,1445.72 285.186,1445.72 289.338,1445.72 293.49,1445.72 297.642,1445.72 
  301.794,1445.72 305.946,1445.72 310.098,1445.72 314.25,1445.72 318.402,1445.72 322.554,1445.72 326.706,1445.72 330.858,1445.72 335.01,1445.72 339.162,1445.72 
  343.314,1445.72 347.466,1445.72 351.618,1445.72 355.77,1445.72 359.922,1445.72 364.074,1445.72 368.226,1445.72 372.378,1445.72 376.53,1445.72 380.682,1445.72 
  384.834,1445.72 388.986,1445.72 393.138,1445.72 397.29,1445.72 401.442,1445.72 405.594,1445.72 409.746,1445.72 413.898,1445.72 418.05,1445.72 422.202,1445.72 
  426.354,1445.72 430.506,1445.72 434.658,1445.72 438.81,1445.72 442.962,1445.72 447.114,1445.72 451.266,1445.72 455.418,1445.71 459.57,1445.71 463.722,1445.71 
  467.874,1445.71 472.026,1445.71 476.177,1445.71 480.329,1445.71 484.481,1445.71 488.633,1445.71 492.785,1445.71 496.937,1445.71 501.089,1445.71 505.241,1445.71 
  509.393,1445.71 513.545,1445.71 517.697,1445.71 521.849,1445.7 526.001,1445.69 530.153,1445.68 534.305,1445.66 538.457,1445.62 542.609,1445.57 546.761,1445.48 
  550.913,1445.35 555.065,1445.14 559.217,1444.84 563.369,1444.38 567.521,1443.71 571.673,1442.74 575.825,1441.35 579.977,1439.38 584.129,1436.65 588.281,1432.88 
  592.433,1427.78 596.585,1420.97 600.737,1411.98 604.889,1400.3 609.041,1385.32 613.193,1366.4 617.345,1342.85 621.497,1313.96 625.649,1279.04 629.801,1237.49 
  633.953,1188.79 638.105,1132.64 642.257,1068.95 646.409,997.93 650.561,920.12 654.713,836.44 658.865,748.199 663.017,657.083 667.169,565.125 671.321,474.642 
  675.473,388.145 679.625,308.231 683.777,237.454 687.929,178.193 692.081,132.52 696.233,102.075 700.385,87.9763 704.537,90.7448 708.689,110.276 712.841,145.846 
  716.993,196.155 721.145,259.405 725.297,333.41 729.449,415.718 733.601,503.744 737.753,594.906 741.905,686.746 746.057,777.031 750.209,863.839 754.361,945.603 
  758.513,1021.15 762.665,1089.67 766.817,1150.76 770.969,1204.29 775.121,1250.44 779.273,1289.6 783.425,1322.3 787.577,1349.18 791.729,1370.94 795.881,1388.29 
  800.033,1401.91 804.185,1412.42 808.337,1420.4 812.489,1426.36 816.641,1430.71 820.793,1433.82 824.945,1435.98 829.097,1437.41 833.249,1438.31 837.401,1438.8 
  841.553,1439 845.705,1438.98 849.857,1438.8 854.009,1438.5 858.161,1438.11 862.313,1437.64 866.465,1437.11 870.617,1436.53 874.769,1435.89 878.921,1435.21 
  883.073,1434.48 887.225,1433.71 891.377,1432.88 895.529,1432 899.681,1431.07 903.833,1430.08 907.985,1429.03 912.137,1427.92 916.289,1426.75 920.441,1425.51 
  924.593,1424.2 928.745,1422.82 932.897,1421.36 937.049,1419.81 941.201,1418.19 945.353,1416.48 949.505,1414.67 953.657,1412.78 957.809,1410.78 961.961,1408.68 
  966.113,1406.48 970.265,1404.16 974.417,1401.73 978.569,1399.18 982.721,1396.51 986.873,1393.71 991.025,1390.77 995.177,1387.71 999.329,1384.5 1003.48,1381.14 
  1007.63,1377.64 1011.79,1373.98 1015.94,1370.16 1020.09,1366.18 1024.24,1362.03 1028.39,1357.71 1032.55,1353.21 1036.7,1348.53 1040.85,1343.66 1045,1338.61 
  1049.15,1333.36 1053.31,1327.91 1057.46,1322.26 1061.61,1316.4 1065.76,1310.33 1069.91,1304.05 1074.07,1297.55 1078.22,1290.83 1082.37,1283.88 1086.52,1276.71 
  1090.67,1269.31 1094.83,1261.67 1098.98,1253.81 1103.13,1245.7 1107.28,1237.36 1111.43,1228.78 1115.59,1219.95 1119.74,1210.89 1123.89,1201.58 1128.04,1192.03 
  1132.19,1182.24 1136.35,1172.21 1140.5,1161.94 1144.65,1151.43 1148.8,1140.68 1152.95,1129.7 1157.11,1118.48 1161.26,1107.04 1165.41,1095.37 1169.56,1083.48 
  1173.71,1071.37 1177.87,1059.05 1182.02,1046.53 1186.17,1033.81 1190.32,1020.89 1194.47,1007.79 1198.63,994.505 1202.78,981.053 1206.93,967.438 1211.08,953.67 
  1215.23,939.758 1219.39,925.713 1223.54,911.545 1227.69,897.264 1231.84,882.883 1235.99,868.414 1240.15,853.867 1244.3,839.258 1248.45,824.598 1252.6,809.901 
  1256.75,795.181 1260.91,780.453 1265.06,765.731 1269.21,751.031 1273.36,736.366 1277.51,721.754 1281.67,707.21 1285.82,692.75 1289.97,678.39 1294.12,664.146 
  1298.27,650.036 1302.43,636.075 1306.58,622.28 1310.73,608.669 1314.88,595.257 1319.03,582.062 1323.19,569.1 1327.34,556.388 1331.49,543.942 1335.64,531.778 
  1339.79,519.912 1343.95,508.361 1348.1,497.139 1352.25,486.263 1356.4,475.746 1360.55,465.603 1364.71,455.849 1368.86,446.497 1373.01,437.56 1377.16,429.051 
  1381.31,420.982 1385.46,413.364 1389.62,406.21 1393.77,399.528 1397.92,393.329 1402.07,387.621 1406.22,382.414 1410.38,377.715 1414.53,373.531 1418.68,369.867 
  1422.83,366.73 1426.98,364.125 1431.14,362.054 1435.29,360.521 1439.44,359.529 1443.59,359.078 1447.74,359.17 1451.9,359.805 1456.05,360.981 1460.2,362.696 
  1464.35,364.949 1468.5,367.735 1472.66,371.052 1476.81,374.893 1480.96,379.252 1485.11,384.125 1489.26,389.502 1493.42,395.378 1497.57,401.741 1501.72,408.585 
  1505.87,415.898 1510.02,423.67 1514.18,431.889 1518.33,440.545 1522.48,449.624 1526.63,459.114 1530.78,469.002 1534.94,479.273 1539.09,489.914 1543.24,500.909 
  1547.39,512.244 1551.54,523.904 1555.7,535.872 1559.85,548.134 1564,560.672 1568.15,573.471 1572.3,586.514 1576.46,599.784 1580.61,613.266 1584.76,626.941 
  1588.91,640.794 1593.06,654.808 1597.22,668.965 1601.37,683.25 1605.52,697.646 1609.67,712.137 1613.82,726.706 1617.98,741.337 1622.13,756.015 1626.28,770.725 
  1630.43,785.451 1634.58,800.178 1638.74,814.891 1642.89,829.577 1647.04,844.221 1651.19,858.811 1655.34,873.333 1659.5,887.774 1663.65,902.122 1667.8,916.365 
  1671.95,930.493 1676.1,944.494 1680.26,958.358 1684.41,972.075 1688.56,985.636 1692.71,999.032 1696.86,1012.25 1701.02,1025.29 1705.17,1038.15 1709.32,1050.8 
  1713.47,1063.26 1717.62,1075.5 1721.78,1087.54 1725.93,1099.35 1730.08,1110.95 1734.23,1122.31 1738.38,1133.45 1742.54,1144.35 1746.69,1155.02 1750.84,1165.45 
  1754.99,1175.64 1759.14,1185.59 1763.3,1195.3 1767.45,1204.77 1771.6,1213.99 1775.75,1222.97 1779.9,1231.72 1784.06,1240.22 1788.21,1248.48 1792.36,1256.5 
  1796.51,1264.29 1800.66,1271.85 1804.82,1279.17 1808.97,1286.26 1813.12,1293.13 1817.27,1299.78 1821.42,1306.2 1825.58,1312.41 1829.73,1318.41 1833.88,1324.2 
  1838.03,1329.78 1842.18,1335.16 1846.34,1340.34 1850.49,1345.33 1854.64,1350.14 1858.79,1354.76 1862.94,1359.19 1867.1,1363.46 1871.25,1367.55 1875.4,1371.47 
  1879.55,1375.24 1883.7,1378.84 1887.86,1382.3 1892.01,1385.6 1896.16,1388.76 1900.31,1391.78 1904.46,1394.67 1908.62,1397.43 1912.77,1400.06 1916.92,1402.57 
  1921.07,1404.96 1925.22,1407.24 1929.38,1409.4 1933.53,1411.47 1937.68,1413.43 1941.83,1415.3 1945.98,1417.07 1950.14,1418.75 1954.29,1420.35 1958.44,1421.86 
  1962.59,1423.29 1966.74,1424.65 1970.9,1425.94 1975.05,1427.16 1979.2,1428.31 1983.35,1429.39 1987.5,1430.42 1991.66,1431.39 1995.81,1432.31 1999.96,1433.17 
  2004.11,1433.98 2008.26,1434.75 2012.42,1435.47 2016.57,1436.15 2020.72,1436.79 2024.87,1437.38 2029.02,1437.95 2033.18,1438.48 2037.33,1438.97 2041.48,1439.44 
  2045.63,1439.87 2049.78,1440.28 2053.94,1440.67 2058.09,1441.02 2062.24,1441.36 2066.39,1441.67 2070.54,1441.96 2074.7,1442.24 2078.85,1442.49 2083,1442.73 
  2087.15,1442.95 2091.3,1443.16 2095.46,1443.35 2099.61,1443.53 2103.76,1443.69 2107.91,1443.85 2112.06,1443.99 2116.22,1444.12 2120.37,1444.25 2124.52,1444.36 
  2128.67,1444.47 2132.82,1444.57 2136.98,1444.66 2141.13,1444.74 2145.28,1444.82 2149.43,1444.89 2153.58,1444.96 2157.74,1445.02 2161.89,1445.08 2166.04,1445.13 
  2170.19,1445.18 2174.34,1445.23 2178.5,1445.27 2182.65,1445.31 2186.8,1445.34 2190.95,1445.37 2195.1,1445.4 2199.26,1445.43 2203.41,1445.45 2207.56,1445.48 
  2211.71,1445.5 2215.86,1445.52 2220.02,1445.53 2224.17,1445.55 2228.32,1445.57 2232.47,1445.58 2236.62,1445.59 2240.78,1445.6 2244.93,1445.61 2249.08,1445.62 
  2253.23,1445.63 2257.38,1445.64 2261.54,1445.65 2265.69,1445.65 2269.84,1445.66 2273.99,1445.66 2278.14,1445.67 2282.3,1445.67 2286.45,1445.68 2290.6,1445.68 
  
  "/>
</svg>
